<?xml version="1.0" encoding="UTF-8"?><svg xmlns="http://www.w3.org/2000/svg" xmlns:xlink="http://www.w3.org/1999/xlink" id="Layer_1" version="1.1" viewBox="0 0 202 402">
  <!-- Generator: Adobe Illustrator 30.0.0, SVG Export Plug-In . SVG Version: 2.1.1 Build 123)  -->
  <defs>
    <style>
      .st0, .st1, .st2, .st3 {
        fill: none;
      }

      .st4 {
        mask: url(#mask);
      }

      .st5 {
        fill: url(#radial-gradient);
        stroke: url(#linear-gradient);
      }

      .st5, .st1 {
        stroke-width: 2px;
      }

      .st6 {
        fill: url(#linear-gradient2);
      }

      .st7 {
        fill: #c4c4c4;
      }

      .st8 {
        fill: #fff;
      }

      .st9 {
        fill: #2a2a2a;
      }

      .st10 {
        fill: url(#radial-gradient1);
        stroke: url(#linear-gradient1);
      }

      .st11 {
        fill: #d32f2f;
        stroke: #b71c1c;
      }

      .st1 {
        stroke: #333;
      }

      .st2 {
        opacity: .5;
      }

      .st2, .st3 {
        isolation: isolate;
      }

      .st3 {
        opacity: .6;
      }

      .st12 {
        fill: #333;
      }
    </style>
    <radialGradient id="radial-gradient" cx="105.4" cy="238.5" fx="105.4" fy="238.5" r="141" gradientTransform="translate(0 -141.4) scale(1 1.6)" gradientUnits="userSpaceOnUse">
      <stop offset=".4" stop-color="#666"/>
      <stop offset=".9" stop-color="#000"/>
    </radialGradient>
    <linearGradient id="linear-gradient" x1="-45.8" y1="54.2" x2="247.8" y2="347.8" gradientUnits="userSpaceOnUse">
      <stop offset="0" stop-color="#999"/>
      <stop offset="1" stop-color="#000"/>
    </linearGradient>
    <radialGradient id="radial-gradient1" cx="101" cy="197" fx="101" fy="197" r="122.8" gradientUnits="userSpaceOnUse">
      <stop offset=".4" stop-color="#333"/>
      <stop offset="1" stop-color="#000"/>
    </radialGradient>
    <linearGradient id="linear-gradient1" x1="-10.5" y1="85.5" x2="212.5" y2="308.5" gradientUnits="userSpaceOnUse">
      <stop offset=".4" stop-color="#aaa"/>
      <stop offset="1" stop-color="#000"/>
    </linearGradient>
    <mask id="mask" x="0" y="0" width="200" height="904.2" maskUnits="userSpaceOnUse">
      <g id="mask0_1_2">
        <g id="Group">
          <path id="Vector_5" class="st8" d="M143,63H59c-4.4,0-8,4.9-8,10.8v249.3c0,6,3.6,10.8,8,10.8h84c4.4,0,8-4.9,8-10.8V73.8c0-6-3.6-10.8-8-10.8Z"/>
        </g>
      </g>
    </mask>
    <linearGradient id="linear-gradient2" x1="100" y1="404" x2="100" y2="2" gradientTransform="translate(0 404) scale(1 -1)" gradientUnits="userSpaceOnUse">
      <stop offset="0" stop-color="#9f9f9f"/>
      <stop offset=".5" stop-color="#fff"/>
      <stop offset="1" stop-color="#000"/>
    </linearGradient>
  </defs>
  <g id="depth-figma">
    <path id="Vector" class="st5" d="M187.7,1H14.3C7,1,1,7,1,14.3v373.3c0,7.4,6,13.3,13.3,13.3h173.3c7.4,0,13.3-6,13.3-13.3V14.3c0-7.4-6-13.3-13.3-13.3Z"/>
    <path id="Vector_2" class="st10" d="M161,38H41c-5.5,0-10,5.9-10,13.2v291.5c0,7.3,4.5,13.2,10,13.2h120c5.5,0,10-5.9,10-13.2V51.2c0-7.3-4.5-13.2-10-13.2Z"/>
    <g id="Vector_3">
      <path class="st9" d="M148,58H54c-4.4,0-8,4.7-8,10.6v256.8c0,5.8,3.6,10.6,8,10.6h94c4.4,0,8-4.7,8-10.6V68.6c0-5.8-3.6-10.6-8-10.6Z"/>
    </g>
    <path id="Vector_4" class="st0" d="M143,63H59c-4.4,0-8,4.9-8,10.8v249.3c0,6,3.6,10.8,8,10.8h84c4.4,0,8-4.9,8-10.8V73.8c0-6-3.6-10.8-8-10.8Z"/>
    <g id="Mask_group">
      <g class="st4">
        <g id="Group_2">
          <path id="scaleBackground" class="st6" d="M100,0H0v800h200V0h-100Z"/>
          <g id="movingScale">
            <g id="majorTicks">
              <path id="_x30_" class="st12" d="M57.2,899.6c.2-1,.4-1.9.7-2.5.3-.7.7-1.2,1.3-1.5.6-.3,1.4-.5,2.3-.5s1.9.2,2.3.7c.4.4.7,1.1.7,2s0,.6,0,.9c0,.3,0,.7-.2,1.1-.2,1-.4,1.9-.7,2.5-.3.7-.7,1.2-1.3,1.5-.6.3-1.3.5-2.3.5s-1.9-.2-2.3-.7c-.4-.4-.6-1.1-.6-1.9s0-1.2.2-2ZM58.9,895.2c-.1,0-.2.2-.3.3-.1,0-.2.2-.3.3l-5.3-.6h6ZM57.7,896.6c0,0,0,.2-.1.3,0,.1,0,.2-.1.3l-5.7-.6h6ZM60.3,898l-.7,3.9h.6c.4,0,.6,0,.8-.1.2,0,.3-.3.4-.6l.7-3.9h-.6c-.4,0-.6,0-.8.1-.2,0-.3.3-.3.6ZM57.2,897.9l-.2.6-5.9-.6h6ZM56.7,899.9l-5.9-.6h6v.6ZM56.6,901.3l-5.9-.6h6c0,.1,0,.2,0,.3,0,.1,0,.2,0,.3ZM56.6,902c0,.2,0,.4,0,.6l-5.9-.6h5.8ZM57.4,904l-5.9-.6h5.4c.1.3.3.5.5.6Z"/>
              <path id="Vector_21" data-name="Vector_2" class="st1" d="M70,820h30"/>
              <path id="_x31_0" class="st12" d="M51.3,824h-2.8l1-6h-2.3l.3-2.1,3.2-.7h2.1l-1.5,8.8ZM47.1,815.8l-4.4-.5h6l-1.7.4h0ZM46.9,817.2l-5.9-.6h6v.6ZM46.7,818.6l-5.9-.6h6v.6ZM48.8,819.9l-5.9-.6h6v.6ZM48.5,821.3l-5.9-.6h6v.6ZM48.3,822.6l-5.9-.6h6v.6ZM48.1,824l-5.9-.6h6v.6ZM57.2,819.6c.2-1,.4-1.9.7-2.5.3-.7.7-1.2,1.3-1.5.6-.3,1.4-.5,2.3-.5s1.9.2,2.3.7c.4.4.7,1.1.7,2s0,.6,0,.9c0,.3,0,.7-.2,1.1-.2,1-.4,1.9-.7,2.5-.3.7-.7,1.2-1.3,1.5-.6.3-1.3.5-2.3.5s-1.9-.2-2.3-.7c-.4-.4-.6-1.1-.6-1.9s0-1.2.2-2ZM58.9,815.2c-.1,0-.2.2-.3.3-.1,0-.2.2-.3.3l-5.3-.6h6ZM57.7,816.6c0,0,0,.2-.1.3,0,.1,0,.2-.1.3l-5.7-.6h6ZM60.3,818l-.7,3.9h.6c.4,0,.6,0,.8-.1.2,0,.3-.3.4-.6l.7-3.9h-.6c-.4,0-.6,0-.8.1-.2,0-.3.3-.3.6ZM57.2,817.9l-.2.6-5.9-.6h6ZM56.7,819.9l-5.9-.6h6v.6ZM56.6,821.3l-5.9-.6h6c0,.1,0,.2,0,.3,0,.1,0,.2,0,.3ZM56.6,822c0,.2,0,.4,0,.6l-5.9-.6h5.8ZM57.4,824l-5.9-.6h5.4c.1.3.3.5.5.6Z"/>
              <path id="Vector_31" data-name="Vector_3" class="st1" d="M70,740h30"/>
              <path id="_x32_0" class="st12" d="M47.4,737.3v-1.8c.5-.2,1.1-.3,1.7-.4.6-.1,1.2-.2,1.7-.2s1.1,0,1.5.1c.5,0,.8.3,1.1.5.3.3.4.7.4,1.3s-.1,1.3-.4,1.8c-.2.5-.5.9-1,1.2-.4.3-.9.6-1.5.8-.6.2-1.2.4-1.8.7v.4c0,0,3.7,0,3.7,0l-.4,2.2h-6.8l.3-1.8c.1-.6.3-1.1.6-1.5.3-.4.6-.7,1-1,.4-.3.9-.5,1.4-.8.6-.2,1.2-.5,1.8-.8v-.8c.1,0-3.5,0-3.5,0ZM47,735.9l-5.9-.6h5.9v.6ZM47,737.2l-5.9-.6h5.9v.6ZM50.4,737.9l-1.2.5-4.9-.5h6.1ZM47.5,739.3c-.1,0-.3.2-.4.3-.1,0-.2.2-.4.3l-5.3-.6h6ZM46.2,740.6h0c-.1.2-.2.4-.3.6l-5.8-.6h6ZM45.5,742.6l-5.9-.6h6v.6ZM45.3,744l-5.9-.6h6v.6ZM57.2,739.6c.2-1,.4-1.9.7-2.5.3-.7.7-1.2,1.3-1.5.6-.3,1.4-.5,2.3-.5s1.9.2,2.3.7c.4.4.7,1.1.7,2s0,.6,0,.9c0,.3,0,.7-.2,1.1-.2,1-.4,1.9-.7,2.5-.3.7-.7,1.2-1.3,1.5-.6.3-1.3.5-2.3.5s-1.9-.2-2.3-.7c-.4-.4-.6-1.1-.6-1.9s0-1.2.2-2ZM58.9,735.2c-.1,0-.2.2-.3.3-.1,0-.2.2-.3.3l-5.3-.6h6ZM57.7,736.6c0,0,0,.2-.1.3,0,.1,0,.2-.1.3l-5.7-.6h6ZM60.3,738l-.7,3.9h.6c.4,0,.6,0,.8-.1.2,0,.3-.3.4-.6l.7-3.9h-.6c-.4,0-.6,0-.8.1-.2,0-.3.3-.3.6ZM57.2,737.9l-.2.6-5.9-.6h6ZM56.7,739.9l-5.9-.6h6v.6ZM56.6,741.3l-5.9-.6h6c0,.1,0,.2,0,.3,0,.1,0,.2,0,.3ZM56.6,742c0,.2,0,.4,0,.6l-5.9-.6h5.8ZM57.4,744l-5.9-.6h5.4c.1.3.3.5.5.6Z"/>
              <path id="Vector_41" data-name="Vector_4" class="st1" d="M70,660h30"/>
              <path id="_x33_0" class="st12" d="M50.9,658.3l.2-1h-3.5v-1.8c.5-.2,1.1-.3,1.6-.4.5,0,1.1-.1,1.6-.1s1.1,0,1.6.1c.5,0,.8.2,1.1.4.3.2.4.6.4,1.1s-.1,1.2-.4,1.6c-.3.4-.6.8-1.1,1h0c.7.4,1,.9,1,1.7s-.1,1.2-.4,1.6c-.2.4-.5.8-.9,1-.4.2-.9.4-1.4.5-.5.1-1.1.2-1.7.2-1.1,0-2.1-.1-3-.4l.8-2.3c.4.1.8.2,1.1.2.4,0,.8,0,1.2,0s.8,0,1.3,0l.2-.9-2.3-.2.3-2,2.4-.3ZM47.1,655.9l-5.9-.6h5.9v.6ZM47.1,657.2l-5.9-.6h5.9v.6ZM42.2,657.9h6v.6c-.1,0-6-.6-6-.6ZM47.9,659.9l-5.9-.6h6v.6ZM47.6,661.3l-5.9-.6h6v.6ZM46,662l-.2.6-5.9-.6h6ZM45.6,663.3l-.2.6-5.9-.6h6ZM57.2,659.6c.2-1,.4-1.9.7-2.5.3-.7.7-1.2,1.3-1.5.6-.3,1.4-.5,2.3-.5s1.9.2,2.3.7c.4.4.7,1.1.7,2s0,.6,0,.9c0,.3,0,.7-.2,1.1-.2,1-.4,1.9-.7,2.5-.3.7-.7,1.2-1.3,1.5-.6.3-1.3.5-2.3.5s-1.9-.2-2.3-.7c-.4-.4-.6-1.1-.6-1.9s0-1.2.2-2ZM58.9,655.2c-.1,0-.2.2-.3.3-.1,0-.2.2-.3.3l-5.3-.6h6ZM57.7,656.6c0,0,0,.2-.1.3,0,.1,0,.2-.1.3l-5.7-.6h6ZM60.3,658l-.7,3.9h.6c.4,0,.6,0,.8-.1.2,0,.3-.3.4-.6l.7-3.9h-.6c-.4,0-.6,0-.8.1-.2,0-.3.3-.3.6ZM57.2,657.9l-.2.6-5.9-.6h6ZM56.7,659.9l-5.9-.6h6v.6ZM56.6,661.3l-5.9-.6h6c0,.1,0,.2,0,.3,0,.1,0,.2,0,.3ZM56.6,662c0,.2,0,.4,0,.6l-5.9-.6h5.8ZM57.4,664l-5.9-.6h5.4c.1.3.3.5.5.6Z"/>
              <path id="Vector_51" data-name="Vector_5" class="st1" d="M70,580h30"/>
              <path id="_x34_0" class="st12" d="M48.2,575.9l-5.7-.6h6l-.3.6ZM49.5,584l.2-1.4h-4.1l.3-1.8,3-5.6h4.7l-.9,4.9h.9l-.4,2.4h-.9l-.2,1.4h-2.7ZM47.5,577.2l-5.7-.6h6l-.3.6ZM50.6,577.3l-1.7,2.8h1.3l.5-2.8h-.1ZM46.8,578.5l-5.7-.6h6l-.3.6ZM46,579.9l-5.7-.6h6l-.3.6ZM39.6,580.6h6,0c0,.1,0,.6,0,.6l-5.9-.6ZM45.2,582.6l-5.9-.6h6v.6ZM49.1,584l-5.9-.6h6v.6ZM57.2,579.6c.2-1,.4-1.9.7-2.5.3-.7.7-1.2,1.3-1.5.6-.3,1.4-.5,2.3-.5s1.9.2,2.3.7c.4.4.7,1.1.7,2s0,.6,0,.9c0,.3,0,.7-.2,1.1-.2,1-.4,1.9-.7,2.5-.3.7-.7,1.2-1.3,1.5-.6.3-1.3.5-2.3.5s-1.9-.2-2.3-.7c-.4-.4-.6-1.1-.6-1.9s0-1.2.2-2ZM58.9,575.2c-.1,0-.2.2-.3.3-.1,0-.2.2-.3.3l-5.3-.6h6ZM57.7,576.6c0,0,0,.2-.1.3,0,.1,0,.2-.1.3l-5.7-.6h6ZM60.3,578l-.7,3.9h.6c.4,0,.6,0,.8-.1.2,0,.3-.3.4-.6l.7-3.9h-.6c-.4,0-.6,0-.8.1-.2,0-.3.3-.3.6ZM57.2,577.9l-.2.6-5.9-.6h6ZM56.7,579.9l-5.9-.6h6v.6ZM56.6,581.3l-5.9-.6h6c0,.1,0,.2,0,.3,0,.1,0,.2,0,.3ZM56.6,582c0,.2,0,.4,0,.6l-5.9-.6h5.8ZM57.4,584l-5.9-.6h5.4c.1.3.3.5.5.6Z"/>
              <path id="Vector_6" class="st1" d="M70,500h30"/>
              <path id="_x35_0" class="st12" d="M47.2,495.9l-5.9-.6h6v.6ZM45.8,503.8l.8-2.3c.8.2,1.6.3,2.5.3s.8,0,1.3,0v-.7c.1,0-.9-.1-.9-.1-.9-.1-1.6-.3-1.9-.5-.4-.2-.6-.6-.6-1.1s0-.4,0-.5l.8-3.6h6l-.6,2.4-3.1-.2-.2.9h.8c1,.2,1.7.5,2.1.8.4.3.6.8.6,1.3,0,.8-.1,1.5-.4,2-.3.5-.6.9-1,1.1-.4.3-.9.4-1.4.5-.5,0-1,.1-1.5.1s-1.1,0-1.6,0c-.5,0-1-.1-1.5-.3ZM47.1,496.6v.6c-.1,0-6-.6-6-.6h6ZM40.7,497.9h6v.6c-.1,0-6-.6-6-.6ZM46.6,499.9l-5.9-.6h5.9v.2c0,.2,0,.3,0,.5ZM47,500.6c.2.1.4.3.6.4.2,0,.5.2.8.2l-5.7-.6h4.2ZM45.8,502.6l-5.8-.6h6l-.2.6ZM39.5,503.3h6l-.2.6-5.9-.6ZM57.2,499.6c.2-1,.4-1.9.7-2.5.3-.7.7-1.2,1.3-1.5.6-.3,1.4-.5,2.3-.5s1.9.2,2.3.7c.4.4.7,1.1.7,2s0,.6,0,.9c0,.3,0,.7-.2,1-.2,1-.4,1.9-.7,2.5-.3.7-.7,1.2-1.3,1.5-.6.3-1.3.5-2.3.5s-1.9-.2-2.3-.7c-.4-.4-.6-1.1-.6-1.9s0-1.2.2-2ZM58.9,495.2c-.1,0-.2.2-.3.3-.1,0-.2.2-.3.3l-5.3-.6h6ZM57.7,496.6c0,0,0,.2-.1.3,0,.1,0,.2-.1.3l-5.7-.6h6ZM60.3,498l-.7,3.9h.6c.4,0,.6,0,.8-.1.2,0,.3-.3.4-.6l.7-3.9h-.6c-.4,0-.6,0-.8.1-.2,0-.3.3-.3.6ZM57.2,497.9l-.2.6-5.9-.6h6ZM56.7,499.9l-5.9-.6h6v.6ZM56.6,501.3l-5.9-.6h6c0,.1,0,.2,0,.3,0,.1,0,.2,0,.3ZM56.6,502c0,.2,0,.4,0,.6l-5.9-.6h5.8ZM57.4,504l-5.9-.6h5.4c.1.3.3.5.5.6Z"/>
              <path id="Vector_7" class="st1" d="M70,420h30"/>
              <path id="_x36_0" class="st12" d="M53.3,420.4c0,1.3-.4,2.3-1.1,2.9-.7.6-1.7.9-3.1.9s-1.8-.2-2.3-.7c-.4-.5-.6-1.1-.6-2s0-.6,0-.9c0-.3,0-.7.2-1,.1-.8.3-1.4.5-2,.2-.6.5-1.1.9-1.4.4-.4.8-.7,1.4-.9.6-.2,1.3-.3,2.2-.3s.5,0,.8,0c.3,0,.7,0,1,.1.3,0,.5.1.7.2l-.7,1.9h-3.5l-.2,1h.7c.6,0,1.1,0,1.6.1.5,0,.8.3,1.1.6.3.3.4.7.4,1.3ZM48.5,415.2c-.3.2-.5.4-.8.6l-5.2-.6h6ZM47.1,416.6c0,0-.1.2-.2.3,0,.1-.1.2-.2.3l-5.7-.6h6ZM46.5,417.9c0,0,0,.2,0,.3,0,.1,0,.2,0,.3l-5.9-.6h6ZM46,419.9l-5.9-.6h6s0,.1,0,.2c0,0,0,.2,0,.4ZM50.3,421.5l.2-1.1h-.5c-.3,0-.5,0-.6,0-.1,0-.2.2-.3.5l-.2,1.1h.5c.3,0,.5,0,.6,0,.1,0,.2-.2.3-.5ZM45.8,421.3l-5.9-.6h6c0,.1,0,.2,0,.3s0,.2,0,.3ZM45.9,422.6l-5.9-.6h5.9c0,.2,0,.4,0,.6ZM46.2,423.3c0,.1.1.2.2.3,0,0,.2.2.3.3l-5.6-.6h5.2ZM57.2,419.6c.2-1,.4-1.9.7-2.5.3-.7.7-1.2,1.3-1.5.6-.3,1.4-.5,2.3-.5s1.9.2,2.3.7c.4.4.7,1.1.7,2s0,.6,0,.9c0,.3,0,.7-.2,1-.2,1-.4,1.9-.7,2.5-.3.7-.7,1.2-1.3,1.5-.6.3-1.3.5-2.3.5s-1.9-.2-2.3-.7c-.4-.4-.6-1.1-.6-1.9s0-1.2.2-2ZM58.9,415.2c-.1,0-.2.2-.3.3-.1,0-.2.2-.3.3l-5.3-.6h6ZM57.7,416.6c0,0,0,.2-.1.3,0,.1,0,.2-.1.3l-5.7-.6h6ZM60.3,418l-.7,3.9h.6c.4,0,.6,0,.8-.1.2,0,.3-.3.4-.6l.7-3.9h-.6c-.4,0-.6,0-.8.1-.2,0-.3.3-.3.6ZM57.2,417.9l-.2.6-5.9-.6h6ZM56.7,419.9l-5.9-.6h6v.6ZM56.6,421.3l-5.9-.6h6c0,.1,0,.2,0,.3,0,.1,0,.2,0,.3ZM56.6,422c0,.2,0,.4,0,.6l-5.9-.6h5.8ZM57.4,424l-5.9-.6h5.4c.1.3.3.5.5.6Z"/>
              <path id="Vector_8" class="st1" d="M70,340h30"/>
              <path id="_x37_0" class="st12" d="M47.1,335.9l-5.9-.6h6v.6ZM53.8,337l-3.8,7h-3l3.5-6.3h-3.2l.3-2.5h6.6l-.3,1.8ZM46.9,337.2l-5.9-.6h6v.6ZM46.8,338.6l-5.9-.6h6v.6ZM43.1,339.3h6l-.3.6-5.7-.6ZM48.1,341.2l-5.7-.6h6l-.3.6ZM41.6,342h6l-.3.6-5.7-.6ZM46.9,343.3l-.3.6-5.7-.6h6ZM57.2,339.6c.2-1,.4-1.9.7-2.5.3-.7.7-1.2,1.3-1.5.6-.3,1.4-.5,2.3-.5s1.9.2,2.3.7c.4.4.7,1.1.7,2s0,.6,0,.9c0,.3,0,.7-.2,1-.2,1-.4,1.9-.7,2.5-.3.7-.7,1.2-1.3,1.5-.6.3-1.3.5-2.3.5s-1.9-.2-2.3-.7c-.4-.4-.6-1.1-.6-1.9s0-1.2.2-2ZM58.9,335.2c-.1,0-.2.2-.3.3-.1,0-.2.2-.3.3l-5.3-.6h6ZM57.7,336.6c0,0,0,.2-.1.3,0,.1,0,.2-.1.3l-5.7-.6h6ZM60.3,338l-.7,3.9h.6c.4,0,.6,0,.8-.1.2,0,.3-.3.4-.6l.7-3.9h-.6c-.4,0-.6,0-.8.1-.2,0-.3.3-.3.6ZM57.2,337.9l-.2.6-5.9-.6h6ZM56.7,339.9l-5.9-.6h6v.6ZM56.6,341.3l-5.9-.6h6c0,.1,0,.2,0,.3,0,.1,0,.2,0,.3ZM56.6,342c0,.2,0,.4,0,.6l-5.9-.6h5.8ZM57.4,344l-5.9-.6h5.4c.1.3.3.5.5.6Z"/>
              <path id="Vector_9" class="st1" d="M70,260h30"/>
              <path id="_x38_0" class="st12" d="M49.2,264.2c-.6,0-1.1,0-1.6-.2-.5-.1-.8-.3-1.1-.6-.3-.3-.4-.7-.4-1.2s.1-1,.4-1.5c.3-.5.7-.8,1.1-1h0c-.4-.4-.6-.9-.6-1.6s.1-1.1.3-1.5c.2-.4.5-.7.9-.9.4-.2.8-.4,1.2-.5.4-.1.9-.2,1.3-.2s1,0,1.4.2c.4.1.8.3,1,.6.3.3.4.7.4,1.2s-.1,1-.4,1.5c-.3.5-.6.8-.9,1h0c.3.2.5.5.6.7.2.3.2.6.2.9,0,.7-.2,1.3-.5,1.7-.4.4-.9.7-1.5.9-.6.2-1.3.3-2,.3ZM47.4,255.8l-5.3-.6h6c-.3.1-.5.3-.7.6ZM46.7,257.2l-5.8-.6h6c0,0,0,.2-.1.3,0,.1,0,.2,0,.3ZM50.5,258.6c.2,0,.3,0,.3-.3l.2-1.1h-.5c-.3,0-.5,0-.6,0-.1,0-.2.2-.3.5v.3s.7.5.7.5c0,0,.1,0,.2,0ZM46.7,258.6l-5.9-.6h5.9v.4c0,0,0,.1,0,.2ZM46.6,259.9l-5.6-.6h5.8s0,0,0,.1c0,0,0,0,0,.1-.1,0-.3.2-.4.3ZM45.8,261.2l-5.8-.6h6,0c-.1.2-.2.4-.2.6ZM48.9,262.1h.5c.3,0,.5,0,.6,0,.1,0,.2-.2.3-.5v-.3c0,0-.8-.5-.8-.5,0,0-.2,0-.3,0s-.2,0-.2.2l-.2,1.2ZM45.7,262.6l-5.9-.6h5.9s0,0,0,.1h0c0,.2,0,.4,0,.5ZM46.4,264l-5.9-.6h5.4c.1.2.3.5.5.6ZM57.2,259.6c.2-1,.4-1.9.7-2.5.3-.7.7-1.2,1.3-1.5.6-.3,1.4-.5,2.3-.5s1.9.2,2.3.7c.4.4.7,1.1.7,2s0,.6,0,.9c0,.3,0,.7-.2,1-.2,1-.4,1.9-.7,2.5-.3.7-.7,1.2-1.3,1.5-.6.3-1.3.5-2.3.5s-1.9-.2-2.3-.7c-.4-.4-.6-1.1-.6-1.9s0-1.2.2-2ZM58.9,255.2c-.1,0-.2.2-.3.3-.1,0-.2.2-.3.3l-5.3-.6h6ZM57.7,256.6c0,0,0,.2-.1.3,0,.1,0,.2-.1.3l-5.7-.6h6ZM60.3,258l-.7,3.9h.6c.4,0,.6,0,.8-.1.2,0,.3-.3.4-.6l.7-3.9h-.6c-.4,0-.6,0-.8.1-.2,0-.3.3-.3.6ZM57.2,257.9l-.2.6-5.9-.6h6ZM56.7,259.9l-5.9-.6h6v.6ZM56.6,261.3l-5.9-.6h6c0,.1,0,.2,0,.3,0,.1,0,.2,0,.3ZM56.6,262c0,.2,0,.4,0,.6l-5.9-.6h5.8ZM57.4,264l-5.9-.6h5.4c.1.3.3.5.5.6Z"/>
              <path id="Vector_10" class="st1" d="M70,180h30"/>
              <path id="_x39_0" class="st12" d="M49.2,184.2c-.6,0-1.1,0-1.7,0-.6,0-1.1-.1-1.6-.3l.8-2.3c.4.1.8.2,1.2.2s.8,0,1.1,0,.8,0,1.3,0l.2-1h-.7c-.4,0-.8,0-1.2,0-.4,0-.7-.1-1-.2-.3-.1-.5-.3-.7-.6-.2-.3-.2-.6-.2-1.1,0-1.3.4-2.2,1.1-2.9.7-.6,1.7-1,3.1-1s1.8.2,2.3.7c.4.5.7,1.1.7,2s0,.6,0,.9c0,.3,0,.6-.1,1-.2,1-.4,1.9-.8,2.5-.3.7-.8,1.2-1.3,1.5-.6.3-1.3.5-2.3.5ZM47.3,175.8l-5.3-.6h6c-.3.2-.5.4-.7.6ZM46.4,177.2l-5.8-.6h6,0c0,.1,0,.2-.1.3,0,0,0,.2-.1.3ZM49.5,178.7h.5c.3,0,.5,0,.6,0,.1,0,.2-.2.3-.5l.2-1h-.5c-.3,0-.5,0-.6,0-.1,0-.2.2-.3.5l-.2,1ZM46.2,178.6l-5.9-.6h6c0,0,0,.2,0,.3,0,0,0,.2,0,.3ZM46.3,179.8l-5.1-.5h5c0,0,0,.2,0,.3,0,0,0,.2,0,.3ZM47.7,181.1l-4.5-.5h3.6c.1.1.3.2.4.3.1,0,.3.1.5.2h0ZM45.9,182.6l-5.8-.6h6l-.2.6ZM45.5,183.9l-5.8-.6h6l-.2.6ZM57.2,179.6c.2-1,.4-1.9.7-2.5.3-.7.7-1.2,1.3-1.5.6-.3,1.4-.5,2.3-.5s1.9.2,2.3.7c.4.4.7,1.1.7,2s0,.6,0,.9c0,.3,0,.7-.2,1.1-.2,1-.4,1.9-.7,2.5-.3.7-.7,1.2-1.3,1.5-.6.3-1.3.5-2.3.5s-1.9-.2-2.3-.7c-.4-.4-.6-1.1-.6-1.9s0-1.2.2-2ZM58.9,175.2c-.1,0-.2.2-.3.3-.1,0-.2.2-.3.3l-5.3-.6h6ZM57.7,176.6c0,0,0,.2-.1.3,0,.1,0,.2-.1.3l-5.7-.6h6ZM60.3,178l-.7,3.9h.6c.4,0,.6,0,.8-.1.2,0,.3-.3.4-.6l.7-3.9h-.6c-.4,0-.6,0-.8.1-.2,0-.3.3-.3.6ZM57.2,177.9l-.2.6-5.9-.6h6ZM56.7,179.9l-5.9-.6h6v.6ZM56.6,181.3l-5.9-.6h6c0,.1,0,.2,0,.3,0,.1,0,.2,0,.3ZM56.6,182c0,.2,0,.4,0,.6l-5.9-.6h5.8ZM57.4,184l-5.9-.6h5.4c.1.3.3.5.5.6Z"/>
              <path id="Vector_11" class="st1" d="M70,100h30"/>
              <path id="_x31_00" class="st12" d="M40.5,104h-2.8l1-5.9h-2.3l.3-2.1,3.2-.7h2.1l-1.5,8.8ZM36.3,95.8l-4.4-.5h6l-1.7.4h0ZM36.1,97.2l-5.9-.6h6v.6ZM35.9,98.6l-5.9-.6h6v.6ZM38,99.9l-5.9-.6h6v.6ZM37.7,101.3l-5.9-.6h6v.6ZM37.5,102.6l-5.9-.6h6v.6ZM37.2,104l-5.9-.6h6v.6ZM46.4,99.6c.2-1,.4-1.9.7-2.5.3-.7.7-1.2,1.3-1.5.6-.3,1.4-.5,2.3-.5s1.9.2,2.3.7c.4.4.7,1.1.7,2s0,.6,0,.9c0,.3,0,.7-.2,1.1-.2,1-.4,1.9-.7,2.5-.3.7-.7,1.2-1.3,1.5-.6.3-1.3.5-2.3.5s-1.9-.2-2.3-.7c-.4-.4-.6-1.1-.6-1.9s0-1.2.2-2ZM48.1,95.2c-.1,0-.2.2-.4.3s-.2.2-.3.3l-5.3-.6h6ZM46.9,96.6c0,0,0,.2-.1.3,0,.1,0,.2-.1.3l-5.7-.6h6ZM49.4,98l-.7,3.9h.6c.4,0,.6,0,.8-.1.2,0,.3-.3.4-.6l.7-3.9h-.6c-.4,0-.6,0-.8.1-.2,0-.3.3-.3.6ZM46.4,97.9l-.2.6-5.9-.6h6ZM45.9,99.9l-5.9-.6h6v.6ZM45.8,101.3l-5.9-.6h6c0,.1,0,.2,0,.3,0,.1,0,.2,0,.3ZM45.8,102c0,.2,0,.4,0,.6l-5.9-.6h5.8ZM46.6,104l-5.9-.6h5.4c.1.3.3.5.5.6ZM57.2,99.6c.2-1,.4-1.9.7-2.5.3-.7.7-1.2,1.3-1.5.6-.3,1.4-.5,2.3-.5s1.9.2,2.3.7c.4.4.7,1.1.7,2s0,.6,0,.9c0,.3,0,.7-.2,1.1-.2,1-.4,1.9-.7,2.5-.3.7-.7,1.2-1.3,1.5-.6.3-1.3.5-2.3.5s-1.9-.2-2.3-.7c-.4-.4-.6-1.1-.6-1.9s0-1.2.2-2ZM58.9,95.2c-.1,0-.2.2-.3.3-.1,0-.2.2-.3.3l-5.3-.6h6ZM57.7,96.6c0,0,0,.2-.1.3,0,.1,0,.2-.1.3l-5.7-.6h6ZM60.3,98l-.7,3.9h.6c.4,0,.6,0,.8-.1.2,0,.3-.3.4-.6l.7-3.9h-.6c-.4,0-.6,0-.8.1-.2,0-.3.3-.3.6ZM57.2,97.9l-.2.6-5.9-.6h6ZM56.7,99.9l-5.9-.6h6v.6ZM56.6,101.3l-5.9-.6h6c0,.1,0,.2,0,.3,0,.1,0,.2,0,.3ZM56.6,102c0,.2,0,.4,0,.6l-5.9-.6h5.8ZM57.4,104l-5.9-.6h5.4c.1.3.3.5.5.6Z"/>
            </g>
          </g>
        </g>
      </g>
    </g>
    <path id="pointer" class="st11" d="M130,201l21,10v-20l-21,10Z"/>
    <path id="Vector_91" data-name="Vector_9" class="st3" d="M101,166c19.3,0,35-11.2,35-25s-15.7-25-35-25-35,11.2-35,25,15.7,25,35,25Z"/>
    <path id="DEPTH_INDICATOR" class="st7" d="M21.7,26.4c.6,0,1.1,0,1.5-.2.7-.2,1.3-.7,1.8-1.4.4-.6.6-1.3.8-2.1,0-.5.1-1,.1-1.4,0-1.7-.3-3-1-3.9-.7-.9-1.7-1.4-3.2-1.4h-3.3v10.5h3.3ZM16.6,14.4h5.5c1.9,0,3.3.7,4.4,2,.9,1.2,1.4,2.7,1.4,4.6s-.3,2.8-.8,3.9c-1,2.1-2.6,3.1-4.9,3.1h-5.5v-13.6ZM30.4,14.4h9.9v1.7h-8.1v4.1h7.5v1.6h-7.5v4.6h8.3v1.6h-10.1v-13.6ZM43.1,14.4h6.1c1.2,0,2.2.3,2.9,1,.7.7,1.1,1.6,1.1,2.9s-.3,2-1,2.8c-.7.8-1.7,1.2-3.1,1.2h-4.3v5.8h-1.8v-13.6ZM51.4,18.3c0-1-.4-1.7-1.1-2-.4-.2-1-.3-1.7-.3h-3.7v4.7h3.7c.8,0,1.5-.2,2-.5.5-.4.8-1,.8-1.9ZM65.5,14.4v1.6h-4.6v12h-1.9v-12h-4.6v-1.6h11.1ZM67.2,14.4h1.9v5.6h7.1v-5.6h1.9v13.6h-1.9v-6.4h-7.1v6.4h-1.9v-13.6ZM86.6,14.4h1.9v13.6h-1.9v-13.6ZM91.5,14.4h2.2l6.9,11v-11h1.8v13.6h-2.1l-7-11v11h-1.8v-13.6ZM110.5,26.4c.6,0,1.1,0,1.5-.2.7-.2,1.3-.7,1.8-1.4.4-.6.6-1.3.8-2.1,0-.5.1-1,.1-1.4,0-1.7-.3-3-1-3.9-.7-.9-1.7-1.4-3.2-1.4h-3.3v10.5h3.3ZM105.3,14.4h5.5c1.9,0,3.3.7,4.4,2,.9,1.2,1.4,2.7,1.4,4.6s-.3,2.8-.8,3.9c-1,2.1-2.6,3.1-4.9,3.1h-5.5v-13.6ZM119.4,14.4h1.9v13.6h-1.9v-13.6ZM130,14c1.7,0,3.1.5,4,1.4,1,.9,1.5,1.9,1.6,3.1h-1.8c-.2-.9-.6-1.6-1.2-2.1-.6-.5-1.5-.8-2.6-.8s-2.4.5-3.3,1.4c-.8.9-1.2,2.4-1.2,4.3s.4,2.9,1.1,3.9c.7,1,1.9,1.5,3.3,1.5s2.4-.5,3.1-1.6c.4-.6.7-1.3.8-2.2h1.8c-.2,1.4-.7,2.6-1.6,3.6-1.1,1.2-2.5,1.8-4.4,1.8s-2.9-.5-4-1.4c-1.4-1.3-2.1-3.2-2.1-5.9s.5-3.7,1.6-4.9c1.1-1.4,2.7-2.1,4.8-2.1ZM145,22.4l-2.1-6-2.2,6h4.3ZM141.9,14.4h2.1l4.9,13.6h-2l-1.4-4.1h-5.4l-1.5,4.1h-1.9l5.1-13.6ZM159.1,14.4v1.6h-4.6v12h-1.9v-12h-4.6v-1.6h11.1ZM166.4,14c2.4,0,4.2.8,5.3,2.3.9,1.2,1.4,2.7,1.4,4.6s-.5,3.7-1.5,5.1c-1.2,1.6-2.9,2.4-5.2,2.4s-3.7-.7-4.9-2.1c-1.1-1.3-1.6-3-1.6-5.1s.5-3.4,1.4-4.7c1.2-1.7,2.9-2.5,5.2-2.5ZM166.6,26.7c1.6,0,2.8-.6,3.5-1.7.7-1.2,1.1-2.5,1.1-4s-.4-2.9-1.3-3.9c-.8-1-2-1.5-3.4-1.5s-2.6.5-3.5,1.5c-.9,1-1.3,2.4-1.3,4.3s.4,2.8,1.1,3.8c.8,1,2,1.6,3.7,1.6ZM181.6,20.6c.9,0,1.6-.2,2-.5.5-.3.8-1,.8-1.9s-.4-1.6-1.1-2c-.4-.2-.9-.3-1.5-.3h-4.5v4.7h4.3ZM175.5,14.4h6.3c1,0,1.9.2,2.6.5,1.3.6,1.9,1.7,1.9,3.2s-.2,1.5-.5,2c-.3.5-.8.9-1.4,1.3.5.2.9.5,1.2.9.3.4.4.9.5,1.7v1.8c0,.5.1.9.2,1.2.1.4.3.7.6.8v.3h-2.3c0-.1-.1-.3-.1-.5,0-.2,0-.5,0-1.1v-2.3c-.2-.9-.5-1.5-1.1-1.8-.4-.2-.9-.3-1.7-.3h-4.2v5.8h-1.8v-13.6Z"/>
    <g id="Turbek_Industries">
      <path class="st7" d="M45.9,366.4h8.1v1.5h-3.2v8.5h-1.8v-8.5h-3.2v-1.5Z"/>
      <path class="st7" d="M60,376.4h-1.6v-1h0c-.2.4-.5.7-.9.9-.4.2-.8.3-1.2.3-1,0-1.6-.2-2.1-.7-.4-.5-.6-1.2-.6-2.1v-4.6h1.6v4.4c0,.6.1,1.1.4,1.3.2.3.6.4,1,.4s.6,0,.8-.2.4-.2.5-.4.2-.4.3-.6c0-.2,0-.5,0-.8v-4.2h1.6v7.2Z"/>
      <path class="st7" d="M61.7,369.2h1.5v1.4h0c0-.2.1-.4.3-.6.1-.2.3-.4.5-.5s.4-.3.6-.4c.2,0,.5-.1.7-.1s.3,0,.4,0c0,0,.1,0,.2,0v1.5c-.1,0-.2,0-.3,0-.1,0-.2,0-.3,0-.3,0-.5,0-.8.2-.2.1-.4.3-.6.5s-.3.5-.4.8c-.1.3-.2.7-.2,1.1v3.4h-1.6v-7.2Z"/>
      <path class="st7" d="M66.6,366.4h1.6v3.7h0c.1-.2.2-.3.4-.5.2-.1.3-.3.5-.4.2,0,.4-.2.6-.2.2,0,.4,0,.6,0,.6,0,1.1,0,1.5.3.4.2.8.5,1.1.8.3.3.5.8.6,1.2.1.5.2,1,.2,1.5s0,1-.2,1.4-.3.9-.6,1.2c-.3.3-.6.6-1,.8s-.9.3-1.4.3-.5,0-.7,0c-.2,0-.5,0-.7-.2-.2,0-.4-.2-.6-.4s-.3-.3-.5-.6h0v1h-1.5v-10ZM72.2,372.8c0-.3,0-.6-.1-1,0-.3-.2-.6-.4-.8s-.4-.4-.6-.6-.5-.2-.9-.2c-.7,0-1.2.2-1.5.7-.3.5-.5,1.1-.5,1.9s0,.7.1,1c0,.3.2.6.4.8.2.2.4.4.6.5.2.1.5.2.9.2s.7,0,.9-.2.5-.3.6-.6c.2-.2.3-.5.4-.8,0-.3.1-.6.1-.9Z"/>
      <path class="st7" d="M76.4,373.2c0,.3,0,.6.1.8,0,.3.2.5.4.7s.4.4.6.5c.2.1.5.2.9.2s.8,0,1.1-.3c.3-.2.5-.5.6-.9h1.5c0,.4-.2.7-.4,1-.2.3-.5.6-.7.8-.3.2-.6.4-1,.5-.4.1-.7.2-1.1.2-.6,0-1.1,0-1.5-.3-.4-.2-.8-.4-1.1-.8-.3-.3-.5-.7-.7-1.2-.2-.5-.2-1-.2-1.5s0-1,.2-1.5.4-.9.7-1.2.7-.6,1.1-.8c.4-.2.9-.3,1.5-.3s1.1.1,1.5.4.8.6,1.1.9c.3.4.5.8.7,1.4s.2,1,.1,1.6h-5.3ZM80.1,372.1c0-.3,0-.5-.2-.7,0-.2-.2-.4-.4-.6-.2-.2-.3-.3-.6-.4-.2-.1-.5-.2-.7-.2s-.5,0-.8.1c-.2,0-.4.2-.6.4-.2.2-.3.4-.4.6s-.2.5-.2.8h3.7Z"/>
      <path class="st7" d="M83,366.4h1.6v5.7l2.9-2.9h2l-2.8,2.7,3,4.6h-1.9l-2.2-3.5-1,.9v2.6h-1.6v-10Z"/>
      <path class="st7" d="M94.6,366.4h1.8v10h-1.8v-10Z"/>
      <path class="st7" d="M98.2,369.2h1.5v1.1h0c.2-.4.6-.7,1-.9s.8-.3,1.3-.3c.8,0,1.4.2,1.9.6.5.4.7,1,.7,1.8v5h-1.6v-4.5c0-.6-.1-1-.4-1.2-.2-.3-.6-.4-1.1-.4s-.5,0-.7.1c-.2,0-.4.2-.5.4-.1.2-.3.4-.4.6s-.1.5-.1.7v4.3h-1.6v-7.2Z"/>
      <path class="st7" d="M113.1,376.4h-1.5v-1h0c-.2.4-.5.7-.9.9-.4.2-.8.3-1.3.3s-1.1-.1-1.5-.3c-.4-.2-.8-.5-1.1-.8s-.5-.8-.6-1.2c-.1-.5-.2-1-.2-1.5s0-1.2.3-1.7c.2-.5.4-.9.7-1.2s.6-.5,1-.7.8-.2,1.2-.2.5,0,.7,0,.5.1.7.2c.2,0,.4.2.6.4.2.1.3.3.5.5h0v-3.7h1.6v10ZM107.5,372.9c0,.3,0,.6.1.9s.2.6.4.8c.2.2.4.4.6.6.3.1.5.2.9.2s.7,0,.9-.2.5-.3.6-.6c.2-.2.3-.5.4-.8,0-.3.1-.6.1-.9,0-.8-.2-1.4-.5-1.9s-.8-.7-1.5-.7-.7,0-.9.2c-.3.2-.5.4-.6.6s-.3.5-.3.8c0,.3-.1.6-.1,1Z"/>
      <path class="st7" d="M121.2,376.4h-1.6v-1h0c-.2.4-.5.7-.9.9-.4.2-.8.3-1.2.3-1,0-1.6-.2-2.1-.7-.4-.5-.6-1.2-.6-2.1v-4.6h1.6v4.4c0,.6.1,1.1.4,1.3.2.3.6.4,1,.4s.6,0,.8-.2.4-.2.5-.4.2-.4.3-.6,0-.5,0-.8v-4.2h1.6v7.2Z"/>
      <path class="st7" d="M124.1,374.1c0,.5.2.8.5,1,.3.2.7.3,1.1.3s.3,0,.5,0c.2,0,.4,0,.5-.1.2,0,.3-.2.4-.3s.2-.3.1-.5c0-.2,0-.4-.2-.5-.1-.1-.3-.2-.5-.3-.2,0-.5-.1-.7-.2-.3,0-.6-.1-.9-.2-.3,0-.6-.1-.9-.2-.3,0-.5-.2-.7-.4-.2-.2-.4-.4-.5-.6-.1-.2-.2-.6-.2-.9s0-.7.3-1c.2-.3.4-.5.7-.6s.6-.3,1-.3.7,0,1,0,.7,0,1.1.1c.3,0,.6.2.9.4.3.2.5.4.7.7.2.3.3.6.3,1h-1.7c0-.4-.2-.6-.5-.8-.3-.1-.6-.2-.9-.2s-.2,0-.4,0c-.2,0-.3,0-.4.1-.1,0-.2.1-.3.2,0,0-.1.2-.1.4s0,.4.2.5c.1.1.3.2.5.3.2,0,.5.1.7.2.3,0,.6.1.9.2.3,0,.6.1.9.2.3,0,.5.2.7.4.2.2.4.4.5.6.1.2.2.5.2.9s0,.8-.3,1.1c-.2.3-.5.5-.8.7s-.7.3-1,.4-.8.1-1.1.1-.9,0-1.3-.2c-.4-.1-.7-.3-1-.5s-.5-.5-.7-.8-.2-.7-.3-1.1h1.6Z"/>
      <path class="st7" d="M129.4,369.2h1.2v-2.2h1.6v2.2h1.4v1.2h-1.4v3.9c0,.2,0,.3,0,.4,0,.1,0,.2,0,.3,0,0,.1.1.2.2s.2,0,.4,0,.2,0,.3,0c.1,0,.2,0,.3,0v1.2c-.2,0-.3,0-.5,0s-.3,0-.5,0c-.4,0-.8,0-1-.1s-.5-.2-.6-.4c-.1-.2-.2-.3-.3-.6,0-.2,0-.5,0-.8v-4.3h-1.2v-1.2Z"/>
      <path class="st7" d="M134.8,369.2h1.5v1.4h0c0-.2.1-.4.3-.6.1-.2.3-.4.5-.5s.4-.3.6-.4c.2,0,.5-.1.7-.1s.3,0,.4,0c0,0,.1,0,.2,0v1.5c-.1,0-.2,0-.3,0-.1,0-.2,0-.3,0-.3,0-.5,0-.8.2s-.4.3-.6.5c-.2.2-.3.5-.4.8-.1.3-.2.7-.2,1.1v3.4h-1.6v-7.2Z"/>
      <path class="st7" d="M139.8,366.4h1.6v1.5h-1.6v-1.5ZM139.8,369.2h1.6v7.2h-1.6v-7.2Z"/>
      <path class="st7" d="M144.3,373.2c0,.3,0,.6.1.8,0,.3.2.5.4.7.2.2.4.4.6.5.2.1.5.2.9.2s.8,0,1.1-.3c.3-.2.5-.5.6-.9h1.5c0,.4-.2.7-.4,1-.2.3-.5.6-.7.8s-.6.4-1,.5-.7.2-1.1.2c-.6,0-1.1,0-1.5-.3-.4-.2-.8-.4-1.1-.8-.3-.3-.5-.7-.7-1.2-.2-.5-.2-1-.2-1.5s0-1,.2-1.5c.2-.5.4-.9.7-1.2.3-.3.7-.6,1.1-.8.4-.2.9-.3,1.5-.3s1.1.1,1.5.4c.5.2.8.6,1.1.9.3.4.5.8.7,1.4.1.5.2,1,.1,1.6h-5.3ZM148.1,372.1c0-.3,0-.5-.2-.7,0-.2-.2-.4-.4-.6s-.3-.3-.6-.4c-.2-.1-.5-.2-.7-.2s-.5,0-.8.1c-.2,0-.4.2-.6.4s-.3.4-.4.6-.2.5-.2.8h3.7Z"/>
      <path class="st7" d="M152.1,374.1c0,.5.2.8.5,1,.3.2.7.3,1.1.3s.3,0,.5,0c.2,0,.4,0,.5-.1.2,0,.3-.2.4-.3s.2-.3.1-.5c0-.2,0-.4-.2-.5-.1-.1-.3-.2-.5-.3-.2,0-.5-.1-.7-.2-.3,0-.6-.1-.9-.2-.3,0-.6-.1-.9-.2-.3,0-.5-.2-.7-.4-.2-.2-.4-.4-.5-.6-.1-.2-.2-.6-.2-.9s0-.7.3-1c.2-.3.4-.5.7-.6s.6-.3,1-.3.7,0,1,0,.7,0,1.1.1c.3,0,.6.2.9.4.3.2.5.4.7.7.2.3.3.6.3,1h-1.7c0-.4-.2-.6-.5-.8-.3-.1-.6-.2-.9-.2s-.2,0-.4,0c-.2,0-.3,0-.4.1-.1,0-.2.1-.3.2,0,0-.1.2-.1.4s0,.4.2.5c.1.1.3.2.5.3.2,0,.5.1.7.2.3,0,.6.1.9.2.3,0,.6.1.9.2.3,0,.5.2.7.4.2.2.4.4.5.6.1.2.2.5.2.9s0,.8-.3,1.1c-.2.3-.5.5-.8.7s-.7.3-1,.4-.8.1-1.1.1-.9,0-1.3-.2c-.4-.1-.7-.3-1-.5s-.5-.5-.7-.8-.2-.7-.3-1.1h1.6Z"/>
    </g>
    <path id="MODEL_501-D" class="st7" d="M76,383.3h1.1l1.6,4.9,1.6-4.9h1.1v5.7h-.7v-3.4c0-.1,0-.3,0-.6,0-.3,0-.6,0-.9l-1.6,4.8h-.8l-1.6-4.8v.2c0,.1,0,.4,0,.6,0,.3,0,.5,0,.6v3.4h-.7v-5.7ZM85.2,383.1c1,0,1.8.3,2.2,1,.4.5.6,1.2.6,1.9s-.2,1.6-.7,2.1c-.5.7-1.2,1-2.2,1s-1.6-.3-2.1-.9c-.5-.6-.7-1.3-.7-2.1s.2-1.4.6-2c.5-.7,1.2-1.1,2.2-1.1ZM85.2,388.5c.7,0,1.2-.2,1.5-.7.3-.5.5-1.1.5-1.7s-.2-1.2-.5-1.6c-.4-.4-.8-.6-1.4-.6s-1.1.2-1.5.6c-.4.4-.6,1-.6,1.8s.2,1.2.5,1.6c.3.4.8.7,1.6.7ZM91.1,388.3c.3,0,.5,0,.6,0,.3-.1.5-.3.7-.6.2-.2.3-.5.3-.9,0-.2,0-.4,0-.6,0-.7-.1-1.3-.4-1.7-.3-.4-.7-.6-1.4-.6h-1.4v4.4h1.4ZM88.9,383.3h2.3c.8,0,1.4.3,1.8.8.4.5.6,1.2.6,1.9s-.1,1.2-.3,1.7c-.4.9-1.1,1.3-2.1,1.3h-2.3v-5.7ZM94.8,383.3h4.2v.7h-3.4v1.7h3.2v.7h-3.2v1.9h3.5v.7h-4.2v-5.7ZM100,383.3h.8v5.1h2.9v.7h-3.7v-5.7ZM106.8,387.6c0,.4.2.7.6.8.2,0,.4.1.6.1.4,0,.7-.1.9-.4.2-.3.3-.6.3-.9s-.1-.7-.4-.9c-.2-.2-.5-.3-.9-.3s-.5,0-.6.1c-.2,0-.3.2-.4.4h-.6s.4-3,.4-3h2.9v.7h-2.4l-.2,1.6c.1,0,.3-.2.4-.2.2,0,.4-.1.7-.1.5,0,.9.2,1.3.5.4.3.5.8.5,1.3s-.2,1-.5,1.4c-.3.4-.8.6-1.6.6s-.9-.1-1.2-.4c-.3-.3-.5-.7-.6-1.2h.7ZM112.4,383.4c.7,0,1.2.3,1.6.9.2.5.4,1.1.4,1.9s-.1,1.4-.3,1.9c-.3.7-.9,1.1-1.6,1.1s-1.2-.3-1.5-.9c-.3-.5-.4-1.1-.4-2s0-1.2.2-1.6c.3-.8.9-1.3,1.7-1.3ZM112.4,388.5c.4,0,.7-.2.9-.5.2-.3.3-.9.3-1.8s0-1.2-.2-1.6c-.2-.4-.5-.6-.9-.6s-.7.2-.9.6c-.2.4-.3,1-.3,1.7s0,1,.2,1.4c.2.5.5.8,1,.8ZM115.5,385v-.5c.5,0,.9-.1,1.1-.2.2-.1.4-.4.4-.8h.6v5.6h-.8v-4h-1.3ZM119.5,386.4h2v.7h-2v-.7ZM124.6,388.3c.3,0,.5,0,.6,0,.3-.1.6-.3.7-.6.2-.2.3-.5.3-.9,0-.2,0-.4,0-.6,0-.7-.1-1.3-.4-1.7-.3-.4-.7-.6-1.4-.6h-1.4v4.4h1.4ZM122.5,383.3h2.3c.8,0,1.4.3,1.8.8.4.5.6,1.2.6,1.9s-.1,1.2-.3,1.7c-.4.9-1.1,1.3-2.1,1.3h-2.3v-5.7Z"/>
    <path id="Vector_101" data-name="Vector_10" class="st2" d="M143,66H59c-4.4,0-8,4.9-8,10.8v249.3c0,6,3.6,10.8,8,10.8h84c4.4,0,8-4.9,8-10.8V76.8c0-6-3.6-10.8-8-10.8Z"/>
  </g>
<script type="text/javascript">
// // this is to make javascript work in the SVG, leave it alone

    function updateSVG(instrumentValue){
    // ========================================
    // STUDENT EDIT ZONE
    // This sections controls how the gauge displays
    // ========================================

// Get the movingScale element
  const movingScale = document.getElementById("movingScale");
  if (!movingScale) return;

  

  // Make sure depth is between 0 and 100
  const normalizedDepth = Math.max(0, Math.min(100, instrumentValue));



  // Calculate y position
  const yPosition = normalizedDepth * -8 + 100
  //0 = -&gt; -700 -&gt; -800
	//100 -&gt; 100 -&gt; 0

  // Update transform to move the scale vertically
  movingScale.setAttribute("transform", `translate(20, ${yPosition})`);


    // ========================================
    // END STUDENT EDIT ZONE
    // ========================================

    }


    setInterval(() =&gt; { // do this repeatedly

    // Check localStorage for updates
      const thisSVGfilename = window.location.pathname;
    // this SVG expects a localStorage with the same name as its file
      const localStorageName =  thisSVGfilename.substring(thisSVGfilename.lastIndexOf('/') + 1, thisSVGfilename.lastIndexOf('.'));
      let instrumentValue = localStorage.getItem(localStorageName);



    if (instrumentValue !== null) {
      // Make sure percentage is between 0 and 100
      instrumentValue = Math.max(0, Math.min(100, instrumentValue));

    } else {
    // no localStorage, so make up a number, so it swings back and forth
    // Initialize static variables if they don't exist
    if (typeof window.testValue === 'undefined') {
      window.testValue = 0;
      window.testDirection = 1; // 1 for increasing, -1 for decreasing
    }

    // Update the test value
    window.testValue += window.testDirection * 2; // increment by 2 each time

    // Reverse direction at boundaries
    if (window.testValue &gt;= 100) {
      window.testValue = 100;
      window.testDirection = -1;
    } else if (window.testValue &lt;= 0) {
      window.testValue = 0;
      window.testDirection = 1;
    }

    instrumentValue = window.testValue;
    console.log('no local storage \"'+localStorageName+'\", using test value:', instrumentValue);

     }

    updateSVG(instrumentValue)



    }, 50);  //end of setInterval code.  50 is 50 milliseconds or 20 times per second.

  // // this is to make javascript work in the SVG, leave it alone
  </script></svg>