<svg width="202" height="402" viewBox="0 0 202 402" fill="none" xmlns="http://www.w3.org/2000/svg"  xmlns:xlink="http://www.w3.org/1999/xlink" version="1.1">
<g id="depth-figma">
<path id="Vector" d="M187.667 1H14.3333C6.96954 1 1 6.96954 1 14.3333V387.667C1 395.03 6.96954 401 14.3333 401H187.667C195.03 401 201 395.03 201 387.667V14.3333C201 6.96954 195.03 1 187.667 1Z" fill="#D64A2B" stroke="#B83920" stroke-width="2" />
<path id="Vector_2" d="M161 38H41C35.4772 38 31 43.9322 31 51.25V342.75C31 350.068 35.4772 356 41 356H161C166.523 356 171 350.068 171 342.75V51.25C171 43.9322 166.523 38 161 38Z" fill="#C4412A" stroke="#A83520"/>
<g id="Vector_3">
<path d="M148 58H54C49.5817 58 46 62.7415 46 68.5905V325.41C46 331.258 49.5817 336 54 336H148C152.418 336 156 331.258 156 325.41V68.5905C156 62.7415 152.418 58 148 58Z" fill="#2A2A2A"/>
</g>
<path id="Vector_4" d="M143 63H59C54.5817 63 51 67.8532 51 73.84V323.16C51 329.147 54.5817 334 59 334H143C147.418 334 151 329.147 151 323.16V73.84C151 67.8532 147.418 63 143 63Z" />
<g id="Mask group">
<mask id="mask0_1_2" style="mask-type:luminance" maskUnits="userSpaceOnUse" x="51" y="63" width="100" height="271">
<g id="Group">  
<path id="Vector_5" d="M143 63H59C54.5817 63 51 67.8532 51 73.84V323.16C51 329.147 54.5817 334 59 334H143C147.418 334 151 329.147 151 323.16V73.84C151 67.8532 147.418 63 143 63Z" fill="white"/>
</g>
</mask>
<g mask="url(#mask0_1_2)">
<g id="Group_2">
<path id="scaleBackground" d="M100 0H0V800H200V0Z"  fill="url(#background)" />
<g id="movingScale">
<g id="majorTicks">

<path id="0" d="M57.2379 899.632C57.4152 898.615 57.6532 897.77 57.9519 897.098C58.2599 896.417 58.6985 895.903 59.2679 895.558C59.8465 895.213 60.6259 895.04 61.6059 895.04C62.7165 895.04 63.4865 895.259 63.9159 895.698C64.3545 896.137 64.5739 896.79 64.5739 897.658C64.5739 897.947 64.5552 898.255 64.5179 898.582C64.4805 898.909 64.4292 899.259 64.3639 899.632C64.1865 900.64 63.9439 901.485 63.6359 902.166C63.3372 902.838 62.9032 903.347 62.3339 903.692C61.7645 904.037 60.9852 904.21 59.9959 904.21C58.8852 904.21 58.1105 903.991 57.6719 903.552C57.2425 903.113 57.0279 902.465 57.0279 901.606C57.0279 901.027 57.0979 900.369 57.2379 899.632ZM58.9179 895.25C58.7965 895.334 58.6799 895.423 58.5679 895.516C58.4559 895.609 58.3485 895.712 58.2459 895.824L52.8979 895.25H58.9179ZM57.6999 896.594C57.6532 896.687 57.6065 896.785 57.5599 896.888C57.5132 896.991 57.4665 897.098 57.4199 897.21L51.6799 896.594H57.6999ZM60.2619 898.036L59.5619 901.956H60.1219C60.4765 901.956 60.7519 901.919 60.9479 901.844C61.1439 901.769 61.2745 901.559 61.3399 901.214L62.0259 897.294H61.3959C61.0319 897.294 60.7659 897.331 60.5979 897.406C60.4392 897.481 60.3272 897.691 60.2619 898.036ZM57.1819 897.938L57.0139 898.568L51.1339 897.938H57.1819ZM56.7479 899.912L50.8119 899.282H56.8599L56.7479 899.912ZM56.6079 901.256L50.6719 900.626H56.6639C56.6545 900.729 56.6452 900.831 56.6359 900.934C56.6265 901.037 56.6172 901.144 56.6079 901.256ZM56.6079 901.97C56.6265 902.194 56.6545 902.404 56.6919 902.6L50.7699 901.97H56.6079ZM57.4479 903.958L51.5119 903.328H56.9439C57.0745 903.58 57.2425 903.79 57.4479 903.958Z" fill="#333333"/>
<path id="Vector_2" d="M70 820H100" stroke="#333333" stroke-width="2"/>
<path id="10" d="M51.3021 824H48.5021L49.5381 818.05H47.2001L47.5501 815.978L50.7281 815.25H52.8281L51.3021 824ZM47.1441 815.754L42.7761 815.25H48.8241L47.1721 815.628L47.1441 815.754ZM46.9061 817.224L40.9701 816.594H47.0041L46.9061 817.224ZM46.6821 818.568L40.7461 817.938H46.7941L46.6821 818.568ZM48.7821 819.912L42.8461 819.282H48.8941L48.7821 819.912ZM48.5441 821.256L42.6081 820.626H48.6561L48.5441 821.256ZM48.3061 822.6L42.3701 821.97H48.4181L48.3061 822.6ZM48.0681 823.958L42.1321 823.328H48.1801L48.0681 823.958ZM57.2379 819.632C57.4152 818.615 57.6532 817.77 57.9519 817.098C58.2599 816.417 58.6985 815.903 59.2679 815.558C59.8465 815.213 60.6259 815.04 61.6059 815.04C62.7165 815.04 63.4865 815.259 63.9159 815.698C64.3545 816.137 64.5739 816.79 64.5739 817.658C64.5739 817.947 64.5552 818.255 64.5179 818.582C64.4805 818.909 64.4292 819.259 64.3639 819.632C64.1865 820.64 63.9439 821.485 63.6359 822.166C63.3372 822.838 62.9032 823.347 62.3339 823.692C61.7645 824.037 60.9852 824.21 59.9959 824.21C58.8852 824.21 58.1105 823.991 57.6719 823.552C57.2425 823.113 57.0279 822.465 57.0279 821.606C57.0279 821.027 57.0979 820.369 57.2379 819.632ZM58.9179 815.25C58.7965 815.334 58.6799 815.423 58.5679 815.516C58.4559 815.609 58.3485 815.712 58.2459 815.824L52.8979 815.25H58.9179ZM57.6999 816.594C57.6532 816.687 57.6065 816.785 57.5599 816.888C57.5132 816.991 57.4665 817.098 57.4199 817.21L51.6799 816.594H57.6999ZM60.2619 818.036L59.5619 821.956H60.1219C60.4765 821.956 60.7519 821.919 60.9479 821.844C61.1439 821.769 61.2745 821.559 61.3399 821.214L62.0259 817.294H61.3959C61.0319 817.294 60.7659 817.331 60.5979 817.406C60.4392 817.481 60.3272 817.691 60.2619 818.036ZM57.1819 817.938L57.0139 818.568L51.1339 817.938H57.1819ZM56.7479 819.912L50.8119 819.282H56.8599L56.7479 819.912ZM56.6079 821.256L50.6719 820.626H56.6639C56.6545 820.729 56.6452 820.831 56.6359 820.934C56.6265 821.037 56.6172 821.144 56.6079 821.256ZM56.6079 821.97C56.6265 822.194 56.6545 822.404 56.6919 822.6L50.7699 821.97H56.6079ZM57.4479 823.958L51.5119 823.328H56.9439C57.0745 823.58 57.2425 823.79 57.4479 823.958Z" fill="#333333"/>
<path id="Vector_3" d="M70 740H100" stroke="#333333" stroke-width="2"/>
<path id="20" d="M47.3732 737.35V735.572C47.9052 735.413 48.4746 735.287 49.0812 735.194C49.6879 735.091 50.2666 735.04 50.8172 735.04C51.3866 735.04 51.8952 735.082 52.3432 735.166C52.8006 735.241 53.1646 735.418 53.4352 735.698C53.7059 735.969 53.8412 736.403 53.8412 737C53.8412 737.709 53.7246 738.297 53.4912 738.764C53.2672 739.231 52.9452 739.618 52.5252 739.926C52.1146 740.225 51.6292 740.486 51.0692 740.71C50.5186 740.925 49.9166 741.144 49.2632 741.368L49.1932 741.76H52.9452L52.5532 744H45.7212L46.0292 742.25C46.1412 741.634 46.3279 741.135 46.5892 740.752C46.8506 740.36 47.1819 740.029 47.5832 739.758C47.9939 739.487 48.4699 739.235 49.0112 739.002C49.5619 738.759 50.1732 738.484 50.8452 738.176L50.9712 737.35H47.3732ZM46.9672 735.88L41.0452 735.25H46.9672V735.88ZM46.9532 737.224L41.0172 736.594H46.9532V737.224ZM50.3832 737.938L49.1512 738.456L44.2512 737.938H50.3832ZM47.5272 739.282C47.3966 739.366 47.2659 739.455 47.1352 739.548C47.0139 739.641 46.8972 739.739 46.7852 739.842L41.5072 739.282H47.5272ZM46.1552 740.626V740.64C46.0432 740.827 45.9452 741.027 45.8612 741.242L40.1072 740.626H46.1552ZM45.5392 742.6L39.6032 741.97H45.6512L45.5392 742.6ZM45.3012 743.958L39.3652 743.328H45.4132L45.3012 743.958ZM57.2379 739.632C57.4152 738.615 57.6532 737.77 57.9519 737.098C58.2599 736.417 58.6985 735.903 59.2679 735.558C59.8465 735.213 60.6259 735.04 61.6059 735.04C62.7165 735.04 63.4865 735.259 63.9159 735.698C64.3545 736.137 64.5739 736.79 64.5739 737.658C64.5739 737.947 64.5552 738.255 64.5179 738.582C64.4805 738.909 64.4292 739.259 64.3639 739.632C64.1865 740.64 63.9439 741.485 63.6359 742.166C63.3372 742.838 62.9032 743.347 62.3339 743.692C61.7645 744.037 60.9852 744.21 59.9959 744.21C58.8852 744.21 58.1105 743.991 57.6719 743.552C57.2425 743.113 57.0279 742.465 57.0279 741.606C57.0279 741.027 57.0979 740.369 57.2379 739.632ZM58.9179 735.25C58.7965 735.334 58.6799 735.423 58.5679 735.516C58.4559 735.609 58.3485 735.712 58.2459 735.824L52.8979 735.25H58.9179ZM57.6999 736.594C57.6532 736.687 57.6065 736.785 57.5599 736.888C57.5132 736.991 57.4665 737.098 57.4199 737.21L51.6799 736.594H57.6999ZM60.2619 738.036L59.5619 741.956H60.1219C60.4765 741.956 60.7519 741.919 60.9479 741.844C61.1439 741.769 61.2745 741.559 61.3399 741.214L62.0259 737.294H61.3959C61.0319 737.294 60.7659 737.331 60.5979 737.406C60.4392 737.481 60.3272 737.691 60.2619 738.036ZM57.1819 737.938L57.0139 738.568L51.1339 737.938H57.1819ZM56.7479 739.912L50.8119 739.282H56.8599L56.7479 739.912ZM56.6079 741.256L50.6719 740.626H56.6639C56.6545 740.729 56.6452 740.831 56.6359 740.934C56.6265 741.037 56.6172 741.144 56.6079 741.256ZM56.6079 741.97C56.6265 742.194 56.6545 742.404 56.6919 742.6L50.7699 741.97H56.6079ZM57.4479 743.958L51.5119 743.328H56.9439C57.0745 743.58 57.2425 743.79 57.4479 743.958Z" fill="#333333"/>
<path id="Vector_4" d="M70 660H100" stroke="#333333" stroke-width="2"/>
<path id="30" d="M50.869 658.33L51.023 657.35H47.495V655.572C48.0363 655.404 48.5683 655.273 49.091 655.18C49.623 655.087 50.1643 655.04 50.715 655.04C51.2936 655.04 51.8116 655.077 52.269 655.152C52.7263 655.217 53.0856 655.367 53.347 655.6C53.6176 655.833 53.753 656.197 53.753 656.692C53.753 657.327 53.6083 657.863 53.319 658.302C53.039 658.731 52.6796 659.058 52.241 659.282L52.227 659.352C52.8896 659.679 53.221 660.206 53.221 660.934C53.221 661.587 53.1043 662.129 52.871 662.558C52.647 662.978 52.3343 663.309 51.933 663.552C51.5316 663.795 51.0696 663.963 50.547 664.056C50.0243 664.159 49.469 664.21 48.881 664.21C47.817 664.21 46.8136 664.089 45.871 663.846L46.655 661.536C47.047 661.639 47.425 661.718 47.789 661.774C48.1623 661.83 48.5636 661.858 48.993 661.858C49.413 661.858 49.8376 661.83 50.267 661.774L50.421 660.878L48.167 660.64L48.517 658.61L50.869 658.33ZM47.075 655.88L41.153 655.25H47.075V655.88ZM47.061 657.224L41.125 656.594H47.061V657.224ZM42.161 657.938H48.209L48.083 658.568L42.161 657.938ZM47.859 659.912L41.937 659.282H47.971L47.859 659.912ZM47.635 661.256L41.699 660.626H47.747L47.635 661.256ZM46.039 661.97L45.843 662.6L39.991 661.97H46.039ZM45.591 663.328L45.395 663.958L39.543 663.328H45.591ZM57.2379 659.632C57.4152 658.615 57.6532 657.77 57.9519 657.098C58.2599 656.417 58.6985 655.903 59.2679 655.558C59.8465 655.213 60.6259 655.04 61.6059 655.04C62.7165 655.04 63.4865 655.259 63.9159 655.698C64.3545 656.137 64.5739 656.79 64.5739 657.658C64.5739 657.947 64.5552 658.255 64.5179 658.582C64.4805 658.909 64.4292 659.259 64.3639 659.632C64.1865 660.64 63.9439 661.485 63.6359 662.166C63.3372 662.838 62.9032 663.347 62.3339 663.692C61.7645 664.037 60.9852 664.21 59.9959 664.21C58.8852 664.21 58.1105 663.991 57.6719 663.552C57.2425 663.113 57.0279 662.465 57.0279 661.606C57.0279 661.027 57.0979 660.369 57.2379 659.632ZM58.9179 655.25C58.7965 655.334 58.6799 655.423 58.5679 655.516C58.4559 655.609 58.3485 655.712 58.2459 655.824L52.8979 655.25H58.9179ZM57.6999 656.594C57.6532 656.687 57.6065 656.785 57.5599 656.888C57.5132 656.991 57.4665 657.098 57.4199 657.21L51.6799 656.594H57.6999ZM60.2619 658.036L59.5619 661.956H60.1219C60.4765 661.956 60.7519 661.919 60.9479 661.844C61.1439 661.769 61.2745 661.559 61.3399 661.214L62.0259 657.294H61.3959C61.0319 657.294 60.7659 657.331 60.5979 657.406C60.4392 657.481 60.3272 657.691 60.2619 658.036ZM57.1819 657.938L57.0139 658.568L51.1339 657.938H57.1819ZM56.7479 659.912L50.8119 659.282H56.8599L56.7479 659.912ZM56.6079 661.256L50.6719 660.626H56.6639C56.6545 660.729 56.6452 660.831 56.6359 660.934C56.6265 661.037 56.6172 661.144 56.6079 661.256ZM56.6079 661.97C56.6265 662.194 56.6545 662.404 56.6919 662.6L50.7699 661.97H56.6079ZM57.4479 663.958L51.5119 663.328H56.9439C57.0745 663.58 57.2425 663.79 57.4479 663.958Z" fill="#333333"/>
<path id="Vector_5" d="M70 580H100" stroke="#333333" stroke-width="2"/>
<path id="40" d="M48.2285 575.866L42.5305 575.25H48.5505L48.2285 575.866ZM49.5445 584L49.7825 582.6H45.6805L45.9885 580.85L49.0265 575.25H53.7445L52.8625 580.192H53.7305L53.3105 582.6H52.4425L52.2045 584H49.5445ZM47.5005 577.196L41.8165 576.594H47.8225L47.5005 577.196ZM50.5665 577.35L48.8865 580.192H50.2025L50.7065 577.35H50.5665ZM46.7585 578.54L41.0745 577.938H47.0945L46.7585 578.54ZM46.0305 579.898L40.3325 579.282H46.3665L46.0305 579.898ZM39.5905 580.626H45.6385L45.5685 580.752L45.4845 581.256L39.5905 580.626ZM45.2465 582.6L39.3105 581.97H45.3585L45.2465 582.6ZM49.1245 583.958L43.1885 583.328H49.2365L49.1245 583.958ZM57.2379 579.632C57.4152 578.615 57.6532 577.77 57.9519 577.098C58.2599 576.417 58.6985 575.903 59.2679 575.558C59.8465 575.213 60.6259 575.04 61.6059 575.04C62.7165 575.04 63.4865 575.259 63.9159 575.698C64.3545 576.137 64.5739 576.79 64.5739 577.658C64.5739 577.947 64.5552 578.255 64.5179 578.582C64.4805 578.909 64.4292 579.259 64.3639 579.632C64.1865 580.64 63.9439 581.485 63.6359 582.166C63.3372 582.838 62.9032 583.347 62.3339 583.692C61.7645 584.037 60.9852 584.21 59.9959 584.21C58.8852 584.21 58.1105 583.991 57.6719 583.552C57.2425 583.113 57.0279 582.465 57.0279 581.606C57.0279 581.027 57.0979 580.369 57.2379 579.632ZM58.9179 575.25C58.7965 575.334 58.6799 575.423 58.5679 575.516C58.4559 575.609 58.3485 575.712 58.2459 575.824L52.8979 575.25H58.9179ZM57.6999 576.594C57.6532 576.687 57.6065 576.785 57.5599 576.888C57.5132 576.991 57.4665 577.098 57.4199 577.21L51.6799 576.594H57.6999ZM60.2619 578.036L59.5619 581.956H60.1219C60.4765 581.956 60.7519 581.919 60.9479 581.844C61.1439 581.769 61.2745 581.559 61.3399 581.214L62.0259 577.294H61.3959C61.0319 577.294 60.7659 577.331 60.5979 577.406C60.4392 577.481 60.3272 577.691 60.2619 578.036ZM57.1819 577.938L57.0139 578.568L51.1339 577.938H57.1819ZM56.7479 579.912L50.8119 579.282H56.8599L56.7479 579.912ZM56.6079 581.256L50.6719 580.626H56.6639C56.6545 580.729 56.6452 580.831 56.6359 580.934C56.6265 581.037 56.6172 581.144 56.6079 581.256ZM56.6079 581.97C56.6265 582.194 56.6545 582.404 56.6919 582.6L50.7699 581.97H56.6079ZM57.4479 583.958L51.5119 583.328H56.9439C57.0745 583.58 57.2425 583.79 57.4479 583.958Z" fill="#333333"/>
<path id="Vector_6" d="M70 500H100" stroke="#333333" stroke-width="2"/>
<path id="50" d="M47.2163 495.88L41.3223 495.25H47.3423L47.2163 495.88ZM45.8023 503.846L46.5863 501.536C47.3889 501.751 48.2149 501.858 49.0643 501.858C49.4843 501.858 49.9043 501.83 50.3243 501.774L50.4363 501.074L49.4703 500.962C48.5649 500.859 47.9163 500.705 47.5243 500.5C47.1416 500.295 46.9503 499.94 46.9503 499.436C46.9503 499.259 46.9689 499.077 47.0063 498.89L47.7763 495.25H53.8243L53.1943 497.658L50.0863 497.462L49.9323 498.316L50.7023 498.414C51.7103 498.545 52.4056 498.773 52.7883 499.1C53.1803 499.417 53.3763 499.851 53.3763 500.402C53.3763 501.251 53.2409 501.928 52.9703 502.432C52.7089 502.936 52.3589 503.319 51.9203 503.58C51.4816 503.832 51.0009 504 50.4783 504.084C49.9649 504.168 49.4563 504.21 48.9523 504.21C48.4016 504.21 47.8603 504.177 47.3283 504.112C46.8056 504.056 46.2969 503.967 45.8023 503.846ZM47.0623 496.594L46.9363 497.224L41.0283 496.594H47.0623ZM40.7343 497.938H46.7823L46.6423 498.568L40.7343 497.938ZM46.5723 499.912L40.6363 499.282H46.5303V499.436C46.5303 499.595 46.5443 499.753 46.5723 499.912ZM46.9503 500.626C47.1089 500.775 47.3049 500.897 47.5383 500.99C47.7716 501.083 48.0516 501.163 48.3783 501.228L42.7083 500.626H46.9503ZM45.7743 502.586L39.9503 501.97H45.9843L45.7743 502.586ZM39.4883 503.328H45.5363L45.3403 503.958L39.4883 503.328ZM57.2379 499.632C57.4152 498.615 57.6532 497.77 57.9519 497.098C58.2599 496.417 58.6985 495.903 59.2679 495.558C59.8465 495.213 60.6259 495.04 61.6059 495.04C62.7165 495.04 63.4865 495.259 63.9159 495.698C64.3545 496.137 64.5739 496.79 64.5739 497.658C64.5739 497.947 64.5552 498.255 64.5179 498.582C64.4805 498.909 64.4292 499.259 64.3639 499.632C64.1865 500.64 63.9439 501.485 63.6359 502.166C63.3372 502.838 62.9032 503.347 62.3339 503.692C61.7645 504.037 60.9852 504.21 59.9959 504.21C58.8852 504.21 58.1105 503.991 57.6719 503.552C57.2425 503.113 57.0279 502.465 57.0279 501.606C57.0279 501.027 57.0979 500.369 57.2379 499.632ZM58.9179 495.25C58.7965 495.334 58.6799 495.423 58.5679 495.516C58.4559 495.609 58.3485 495.712 58.2459 495.824L52.8979 495.25H58.9179ZM57.6999 496.594C57.6532 496.687 57.6065 496.785 57.5599 496.888C57.5132 496.991 57.4665 497.098 57.4199 497.21L51.6799 496.594H57.6999ZM60.2619 498.036L59.5619 501.956H60.1219C60.4765 501.956 60.7519 501.919 60.9479 501.844C61.1439 501.769 61.2745 501.559 61.3399 501.214L62.0259 497.294H61.3959C61.0319 497.294 60.7659 497.331 60.5979 497.406C60.4392 497.481 60.3272 497.691 60.2619 498.036ZM57.1819 497.938L57.0139 498.568L51.1339 497.938H57.1819ZM56.7479 499.912L50.8119 499.282H56.8599L56.7479 499.912ZM56.6079 501.256L50.6719 500.626H56.6639C56.6545 500.729 56.6452 500.831 56.6359 500.934C56.6265 501.037 56.6172 501.144 56.6079 501.256ZM56.6079 501.97C56.6265 502.194 56.6545 502.404 56.6919 502.6L50.7699 501.97H56.6079ZM57.4479 503.958L51.5119 503.328H56.9439C57.0745 503.58 57.2425 503.79 57.4479 503.958Z" fill="#333333"/>
<path id="Vector_7" d="M70 420H100" stroke="#333333" stroke-width="2"/>
<path id="60" d="M53.3101 420.374C53.3101 421.671 52.9554 422.637 52.2461 423.272C51.5368 423.897 50.5148 424.21 49.1801 424.21C48.1068 424.21 47.3508 423.986 46.9121 423.538C46.4828 423.081 46.2681 422.409 46.2681 421.522C46.2681 421.251 46.2821 420.957 46.3101 420.64C46.3474 420.323 46.3988 419.987 46.4641 419.632C46.5948 418.876 46.7674 418.213 46.9821 417.644C47.1968 417.065 47.4861 416.585 47.8501 416.202C48.2234 415.81 48.6994 415.521 49.2781 415.334C49.8568 415.138 50.5801 415.04 51.4481 415.04C51.6721 415.04 51.9474 415.059 52.2741 415.096C52.6101 415.133 52.9321 415.18 53.2401 415.236C53.5481 415.292 53.7861 415.348 53.9541 415.404L53.2541 417.35H49.7261L49.5441 418.33H50.2161C50.7854 418.33 51.3034 418.377 51.7701 418.47C52.2368 418.554 52.6101 418.741 52.8901 419.03C53.1701 419.319 53.3101 419.767 53.3101 420.374ZM48.4661 415.25C48.1768 415.427 47.9248 415.614 47.7101 415.81L42.4601 415.25H48.4661ZM47.0661 416.594C47.0101 416.687 46.9541 416.785 46.8981 416.888C46.8421 416.991 46.7908 417.093 46.7441 417.196L41.0461 416.594H47.0661ZM46.4501 417.938C46.4128 418.031 46.3801 418.134 46.3521 418.246C46.3241 418.349 46.2961 418.456 46.2681 418.568L40.4021 417.938H46.4501ZM45.9741 419.912L40.0521 419.282H46.1001C46.0908 419.329 46.0768 419.389 46.0581 419.464C46.0488 419.539 46.0208 419.688 45.9741 419.912ZM50.3141 421.508L50.5101 420.402H49.9781C49.7168 420.402 49.5114 420.435 49.3621 420.5C49.2128 420.556 49.1148 420.719 49.0681 420.99L48.8721 422.096H49.4181C49.6888 422.096 49.8941 422.068 50.0341 422.012C50.1741 421.947 50.2674 421.779 50.3141 421.508ZM45.8481 421.256L39.9121 420.626H45.8901C45.8808 420.738 45.8714 420.845 45.8621 420.948C45.8528 421.051 45.8481 421.153 45.8481 421.256ZM45.9461 422.6L40.0101 421.97H45.8621C45.8714 422.175 45.8994 422.385 45.9461 422.6ZM46.2121 423.328C46.2774 423.449 46.3474 423.561 46.4221 423.664C46.4968 423.757 46.5808 423.846 46.6741 423.93L41.0321 423.328H46.2121ZM57.2379 419.632C57.4152 418.615 57.6532 417.77 57.9519 417.098C58.2599 416.417 58.6985 415.903 59.2679 415.558C59.8465 415.213 60.6259 415.04 61.6059 415.04C62.7165 415.04 63.4865 415.259 63.9159 415.698C64.3545 416.137 64.5739 416.79 64.5739 417.658C64.5739 417.947 64.5552 418.255 64.5179 418.582C64.4805 418.909 64.4292 419.259 64.3639 419.632C64.1865 420.64 63.9439 421.485 63.6359 422.166C63.3372 422.838 62.9032 423.347 62.3339 423.692C61.7645 424.037 60.9852 424.21 59.9959 424.21C58.8852 424.21 58.1105 423.991 57.6719 423.552C57.2425 423.113 57.0279 422.465 57.0279 421.606C57.0279 421.027 57.0979 420.369 57.2379 419.632ZM58.9179 415.25C58.7965 415.334 58.6799 415.423 58.5679 415.516C58.4559 415.609 58.3485 415.712 58.2459 415.824L52.8979 415.25H58.9179ZM57.6999 416.594C57.6532 416.687 57.6065 416.785 57.5599 416.888C57.5132 416.991 57.4665 417.098 57.4199 417.21L51.6799 416.594H57.6999ZM60.2619 418.036L59.5619 421.956H60.1219C60.4765 421.956 60.7519 421.919 60.9479 421.844C61.1439 421.769 61.2745 421.559 61.3399 421.214L62.0259 417.294H61.3959C61.0319 417.294 60.7659 417.331 60.5979 417.406C60.4392 417.481 60.3272 417.691 60.2619 418.036ZM57.1819 417.938L57.0139 418.568L51.1339 417.938H57.1819ZM56.7479 419.912L50.8119 419.282H56.8599L56.7479 419.912ZM56.6079 421.256L50.6719 420.626H56.6639C56.6545 420.729 56.6452 420.831 56.6359 420.934C56.6265 421.037 56.6172 421.144 56.6079 421.256ZM56.6079 421.97C56.6265 422.194 56.6545 422.404 56.6919 422.6L50.7699 421.97H56.6079ZM57.4479 423.958L51.5119 423.328H56.9439C57.0745 423.58 57.2425 423.79 57.4479 423.958Z" fill="#333333"/>
<path id="Vector_8" d="M70 340H100" stroke="#333333" stroke-width="2"/>
<path id="70" d="M47.0858 335.88L41.1778 335.25H47.1558L47.0858 335.88ZM53.8478 337L50.0538 344H47.0438L50.5298 337.728H47.3238L47.5758 335.25H54.1558L53.8478 337ZM46.9458 337.224L41.0098 336.594H47.0158L46.9458 337.224ZM46.7778 338.568L40.8418 337.938H46.8758L46.7778 338.568ZM43.1378 339.282H49.1858L48.8498 339.898L43.1378 339.282ZM48.0938 341.228L42.3958 340.626H48.4298L48.0938 341.228ZM41.6398 341.97H47.6878L47.3518 342.586L41.6398 341.97ZM46.9318 343.328L46.5958 343.944L40.8838 343.328H46.9318ZM57.2379 339.632C57.4152 338.615 57.6532 337.77 57.9519 337.098C58.2599 336.417 58.6985 335.903 59.2679 335.558C59.8465 335.213 60.6259 335.04 61.6059 335.04C62.7165 335.04 63.4865 335.259 63.9159 335.698C64.3545 336.137 64.5739 336.79 64.5739 337.658C64.5739 337.947 64.5552 338.255 64.5179 338.582C64.4805 338.909 64.4292 339.259 64.3639 339.632C64.1865 340.64 63.9439 341.485 63.6359 342.166C63.3372 342.838 62.9032 343.347 62.3339 343.692C61.7645 344.037 60.9852 344.21 59.9959 344.21C58.8852 344.21 58.1105 343.991 57.6719 343.552C57.2425 343.113 57.0279 342.465 57.0279 341.606C57.0279 341.027 57.0979 340.369 57.2379 339.632ZM58.9179 335.25C58.7965 335.334 58.6799 335.423 58.5679 335.516C58.4559 335.609 58.3485 335.712 58.2459 335.824L52.8979 335.25H58.9179ZM57.6999 336.594C57.6532 336.687 57.6065 336.785 57.5599 336.888C57.5132 336.991 57.4665 337.098 57.4199 337.21L51.6799 336.594H57.6999ZM60.2619 338.036L59.5619 341.956H60.1219C60.4765 341.956 60.7519 341.919 60.9479 341.844C61.1439 341.769 61.2745 341.559 61.3399 341.214L62.0259 337.294H61.3959C61.0319 337.294 60.7659 337.331 60.5979 337.406C60.4392 337.481 60.3272 337.691 60.2619 338.036ZM57.1819 337.938L57.0139 338.568L51.1339 337.938H57.1819ZM56.7479 339.912L50.8119 339.282H56.8599L56.7479 339.912ZM56.6079 341.256L50.6719 340.626H56.6639C56.6545 340.729 56.6452 340.831 56.6359 340.934C56.6265 341.037 56.6172 341.144 56.6079 341.256ZM56.6079 341.97C56.6265 342.194 56.6545 342.404 56.6919 342.6L50.7699 341.97H56.6079ZM57.4479 343.958L51.5119 343.328H56.9439C57.0745 343.58 57.2425 343.79 57.4479 343.958Z" fill="#333333"/>
<path id="Vector_9" d="M70 260H100" stroke="#333333" stroke-width="2"/>
<path id="80" d="M49.1704 264.21C48.5824 264.21 48.0504 264.145 47.5744 264.014C47.1077 263.893 46.7344 263.683 46.4544 263.384C46.1837 263.085 46.0484 262.679 46.0484 262.166C46.0484 261.634 46.193 261.144 46.4824 260.696C46.7717 260.239 47.1497 259.903 47.6164 259.688L47.6304 259.59C47.2384 259.254 47.0424 258.755 47.0424 258.092C47.0424 257.504 47.1544 257.014 47.3784 256.622C47.6024 256.23 47.8964 255.917 48.2604 255.684C48.6244 255.451 49.0257 255.287 49.4644 255.194C49.9124 255.091 50.351 255.04 50.7804 255.04C51.2844 255.04 51.751 255.101 52.1804 255.222C52.619 255.343 52.969 255.549 53.2304 255.838C53.501 256.127 53.6364 256.524 53.6364 257.028C53.6364 257.569 53.5104 258.073 53.2584 258.54C53.0064 258.997 52.6984 259.347 52.3344 259.59L52.3204 259.688C52.591 259.837 52.801 260.052 52.9504 260.332C53.109 260.603 53.1884 260.911 53.1884 261.256C53.1884 261.965 53.0064 262.539 52.6424 262.978C52.2784 263.407 51.7884 263.72 51.1724 263.916C50.5657 264.112 49.8984 264.21 49.1704 264.21ZM47.4344 255.824L42.1284 255.25H48.1484C47.8964 255.399 47.6584 255.591 47.4344 255.824ZM46.7064 257.21L40.8824 256.594H46.9164C46.879 256.687 46.8417 256.785 46.8044 256.888C46.767 256.991 46.7344 257.098 46.7064 257.21ZM50.5424 258.61C50.7197 258.61 50.827 258.526 50.8644 258.358L51.0604 257.224H50.5284C50.267 257.224 50.0617 257.257 49.9124 257.322C49.763 257.378 49.665 257.541 49.6184 257.812L49.5764 258.078L50.3604 258.554C50.435 258.591 50.4957 258.61 50.5424 258.61ZM46.6504 258.568L40.7144 257.938H46.6224V258.092C46.6224 258.176 46.6224 258.26 46.6224 258.344C46.6317 258.419 46.641 258.493 46.6504 258.568ZM46.6084 259.884L41.0364 259.282H46.8744C46.893 259.329 46.9164 259.375 46.9444 259.422C46.9724 259.459 47.0004 259.501 47.0284 259.548C46.879 259.641 46.739 259.753 46.6084 259.884ZM45.7684 261.242L39.9724 260.626H46.0204L46.0064 260.668C45.9037 260.864 45.8244 261.055 45.7684 261.242ZM48.8624 262.096H49.4084C49.679 262.096 49.8844 262.068 50.0244 262.012C50.1644 261.947 50.2577 261.779 50.3044 261.508L50.3604 261.186L49.5344 260.724C49.441 260.668 49.357 260.64 49.2824 260.64C49.1797 260.64 49.1144 260.719 49.0864 260.878L48.8624 262.096ZM45.6704 262.6L39.7344 261.97H45.6424C45.633 262.007 45.6284 262.045 45.6284 262.082C45.6284 262.11 45.6284 262.138 45.6284 262.166C45.6284 262.315 45.6424 262.46 45.6704 262.6ZM46.4264 263.958L40.5044 263.328H45.8944C46.0157 263.571 46.193 263.781 46.4264 263.958ZM57.2379 259.632C57.4152 258.615 57.6532 257.77 57.9519 257.098C58.2599 256.417 58.6985 255.903 59.2679 255.558C59.8465 255.213 60.6259 255.04 61.6059 255.04C62.7165 255.04 63.4865 255.259 63.9159 255.698C64.3545 256.137 64.5739 256.79 64.5739 257.658C64.5739 257.947 64.5552 258.255 64.5179 258.582C64.4805 258.909 64.4292 259.259 64.3639 259.632C64.1865 260.64 63.9439 261.485 63.6359 262.166C63.3372 262.838 62.9032 263.347 62.3339 263.692C61.7645 264.037 60.9852 264.21 59.9959 264.21C58.8852 264.21 58.1105 263.991 57.6719 263.552C57.2425 263.113 57.0279 262.465 57.0279 261.606C57.0279 261.027 57.0979 260.369 57.2379 259.632ZM58.9179 255.25C58.7965 255.334 58.6799 255.423 58.5679 255.516C58.4559 255.609 58.3485 255.712 58.2459 255.824L52.8979 255.25H58.9179ZM57.6999 256.594C57.6532 256.687 57.6065 256.785 57.5599 256.888C57.5132 256.991 57.4665 257.098 57.4199 257.21L51.6799 256.594H57.6999ZM60.2619 258.036L59.5619 261.956H60.1219C60.4765 261.956 60.7519 261.919 60.9479 261.844C61.1439 261.769 61.2745 261.559 61.3399 261.214L62.0259 257.294H61.3959C61.0319 257.294 60.7659 257.331 60.5979 257.406C60.4392 257.481 60.3272 257.691 60.2619 258.036ZM57.1819 257.938L57.0139 258.568L51.1339 257.938H57.1819ZM56.7479 259.912L50.8119 259.282H56.8599L56.7479 259.912ZM56.6079 261.256L50.6719 260.626H56.6639C56.6545 260.729 56.6452 260.831 56.6359 260.934C56.6265 261.037 56.6172 261.144 56.6079 261.256ZM56.6079 261.97C56.6265 262.194 56.6545 262.404 56.6919 262.6L50.7699 261.97H56.6079ZM57.4479 263.958L51.5119 263.328H56.9439C57.0745 263.58 57.2425 263.79 57.4479 263.958Z" fill="#333333"/>
<path id="Vector_10" d="M70 180H100" stroke="#333333" stroke-width="2"/>
<path id="90" d="M49.1723 184.21C48.6217 184.21 48.071 184.177 47.5203 184.112C46.9697 184.056 46.447 183.967 45.9523 183.846L46.7503 181.536C47.1423 181.639 47.5343 181.718 47.9263 181.774C48.3183 181.83 48.6777 181.858 49.0043 181.858C49.4243 181.858 49.849 181.83 50.2783 181.774L50.4463 180.808H49.7743C49.345 180.808 48.939 180.789 48.5563 180.752C48.183 180.715 47.8517 180.635 47.5623 180.514C47.273 180.383 47.0443 180.187 46.8763 179.926C46.7177 179.665 46.6383 179.31 46.6383 178.862C46.6383 177.574 47.0023 176.617 47.7303 175.992C48.4583 175.357 49.4757 175.04 50.7823 175.04C51.865 175.04 52.621 175.269 53.0503 175.726C53.489 176.183 53.7083 176.86 53.7083 177.756C53.7083 178.027 53.6897 178.316 53.6523 178.624C53.6243 178.932 53.5777 179.263 53.5123 179.618C53.335 180.626 53.083 181.471 52.7563 182.152C52.439 182.833 51.9957 183.347 51.4263 183.692C50.857 184.037 50.1057 184.21 49.1723 184.21ZM47.2683 175.824L41.9623 175.25H47.9963V175.264C47.7163 175.413 47.4737 175.6 47.2683 175.824ZM46.4423 177.21L40.6603 176.594H46.6943L46.6803 176.636C46.643 176.729 46.601 176.823 46.5543 176.916C46.517 177.009 46.4797 177.107 46.4423 177.21ZM49.4803 178.736H50.0123C50.283 178.736 50.4883 178.708 50.6283 178.652C50.7683 178.587 50.8617 178.419 50.9083 178.148L51.0903 177.154H50.5443C50.283 177.154 50.0777 177.187 49.9283 177.252C49.7883 177.308 49.695 177.471 49.6483 177.742L49.4803 178.736ZM46.2183 178.568L40.2823 177.938H46.2743C46.265 178.031 46.2557 178.129 46.2463 178.232C46.237 178.325 46.2277 178.437 46.2183 178.568ZM46.3443 179.828L41.2483 179.282H46.2323C46.251 179.375 46.265 179.469 46.2743 179.562C46.293 179.655 46.3163 179.744 46.3443 179.828ZM47.7443 181.144L43.2923 180.626H46.8903C47.021 180.738 47.1517 180.831 47.2823 180.906C47.4223 180.971 47.581 181.027 47.7583 181.074L47.7443 181.144ZM45.9383 182.586L40.1283 181.97H46.1623L45.9383 182.586ZM45.4763 183.944L39.6523 183.328H45.6863L45.4763 183.944ZM57.2379 179.632C57.4152 178.615 57.6532 177.77 57.9519 177.098C58.2599 176.417 58.6985 175.903 59.2679 175.558C59.8465 175.213 60.6259 175.04 61.6059 175.04C62.7165 175.04 63.4865 175.259 63.9159 175.698C64.3545 176.137 64.5739 176.79 64.5739 177.658C64.5739 177.947 64.5552 178.255 64.5179 178.582C64.4805 178.909 64.4292 179.259 64.3639 179.632C64.1865 180.64 63.9439 181.485 63.6359 182.166C63.3372 182.838 62.9032 183.347 62.3339 183.692C61.7645 184.037 60.9852 184.21 59.9959 184.21C58.8852 184.21 58.1105 183.991 57.6719 183.552C57.2425 183.113 57.0279 182.465 57.0279 181.606C57.0279 181.027 57.0979 180.369 57.2379 179.632ZM58.9179 175.25C58.7965 175.334 58.6799 175.423 58.5679 175.516C58.4559 175.609 58.3485 175.712 58.2459 175.824L52.8979 175.25H58.9179ZM57.6999 176.594C57.6532 176.687 57.6065 176.785 57.5599 176.888C57.5132 176.991 57.4665 177.098 57.4199 177.21L51.6799 176.594H57.6999ZM60.2619 178.036L59.5619 181.956H60.1219C60.4765 181.956 60.7519 181.919 60.9479 181.844C61.1439 181.769 61.2745 181.559 61.3399 181.214L62.0259 177.294H61.3959C61.0319 177.294 60.7659 177.331 60.5979 177.406C60.4392 177.481 60.3272 177.691 60.2619 178.036ZM57.1819 177.938L57.0139 178.568L51.1339 177.938H57.1819ZM56.7479 179.912L50.8119 179.282H56.8599L56.7479 179.912ZM56.6079 181.256L50.6719 180.626H56.6639C56.6545 180.729 56.6452 180.831 56.6359 180.934C56.6265 181.037 56.6172 181.144 56.6079 181.256ZM56.6079 181.97C56.6265 182.194 56.6545 182.404 56.6919 182.6L50.7699 181.97H56.6079ZM57.4479 183.958L51.5119 183.328H56.9439C57.0745 183.58 57.2425 183.79 57.4479 183.958Z" fill="#333333"/>
<path id="Vector_11" d="M70 100H100" stroke="#333333" stroke-width="2"/>
<path id="100" d="M40.474 104H37.674L38.71 98.05H36.372L36.722 95.978L39.9 95.25H42L40.474 104ZM36.316 95.754L31.948 95.25H37.996L36.344 95.628L36.316 95.754ZM36.078 97.224L30.142 96.594H36.176L36.078 97.224ZM35.854 98.568L29.918 97.938H35.966L35.854 98.568ZM37.954 99.912L32.018 99.282H38.066L37.954 99.912ZM37.716 101.256L31.78 100.626H37.828L37.716 101.256ZM37.478 102.6L31.542 101.97H37.59L37.478 102.6ZM37.24 103.958L31.304 103.328H37.352L37.24 103.958ZM46.4098 99.632C46.5871 98.6147 46.8251 97.77 47.1238 97.098C47.4318 96.4167 47.8704 95.9033 48.4398 95.558C49.0184 95.2127 49.7978 95.04 50.7778 95.04C51.8884 95.04 52.6584 95.2593 53.0878 95.698C53.5264 96.1367 53.7458 96.79 53.7458 97.658C53.7458 97.9473 53.7271 98.2553 53.6898 98.582C53.6524 98.9087 53.6011 99.2587 53.5358 99.632C53.3584 100.64 53.1158 101.485 52.8078 102.166C52.5091 102.838 52.0751 103.347 51.5058 103.692C50.9364 104.037 50.1571 104.21 49.1678 104.21C48.0571 104.21 47.2824 103.991 46.8438 103.552C46.4144 103.113 46.1998 102.465 46.1998 101.606C46.1998 101.027 46.2698 100.369 46.4098 99.632ZM48.0898 95.25C47.9684 95.334 47.8518 95.4227 47.7398 95.516C47.6278 95.6093 47.5204 95.712 47.4178 95.824L42.0697 95.25H48.0898ZM46.8718 96.594C46.8251 96.6873 46.7784 96.7853 46.7318 96.888C46.6851 96.9907 46.6384 97.098 46.5918 97.21L40.8517 96.594H46.8718ZM49.4338 98.036L48.7338 101.956H49.2938C49.6484 101.956 49.9238 101.919 50.1198 101.844C50.3158 101.769 50.4464 101.559 50.5118 101.214L51.1978 97.294H50.5678C50.2038 97.294 49.9378 97.3313 49.7698 97.406C49.6111 97.4807 49.4991 97.6907 49.4338 98.036ZM46.3538 97.938L46.1858 98.568L40.3057 97.938H46.3538ZM45.9198 99.912L39.9837 99.282H46.0318L45.9198 99.912ZM45.7798 101.256L39.8438 100.626H45.8358C45.8264 100.729 45.8171 100.831 45.8078 100.934C45.7984 101.037 45.7891 101.144 45.7798 101.256ZM45.7798 101.97C45.7984 102.194 45.8264 102.404 45.8638 102.6L39.9417 101.97H45.7798ZM46.6198 103.958L40.6837 103.328H46.1158C46.2464 103.58 46.4144 103.79 46.6198 103.958ZM57.2379 99.632C57.4152 98.6147 57.6532 97.77 57.9519 97.098C58.2599 96.4167 58.6985 95.9033 59.2679 95.558C59.8465 95.2127 60.6259 95.04 61.6059 95.04C62.7165 95.04 63.4865 95.2593 63.9159 95.698C64.3545 96.1367 64.5739 96.79 64.5739 97.658C64.5739 97.9473 64.5552 98.2553 64.5179 98.582C64.4805 98.9087 64.4292 99.2587 64.3639 99.632C64.1865 100.64 63.9439 101.485 63.6359 102.166C63.3372 102.838 62.9032 103.347 62.3339 103.692C61.7645 104.037 60.9852 104.21 59.9959 104.21C58.8852 104.21 58.1105 103.991 57.6719 103.552C57.2425 103.113 57.0279 102.465 57.0279 101.606C57.0279 101.027 57.0979 100.369 57.2379 99.632ZM58.9179 95.25C58.7965 95.334 58.6799 95.4227 58.5679 95.516C58.4559 95.6093 58.3485 95.712 58.2459 95.824L52.8979 95.25H58.9179ZM57.6999 96.594C57.6532 96.6873 57.6065 96.7853 57.5599 96.888C57.5132 96.9907 57.4665 97.098 57.4199 97.21L51.6799 96.594H57.6999ZM60.2619 98.036L59.5619 101.956H60.1219C60.4765 101.956 60.7519 101.919 60.9479 101.844C61.1439 101.769 61.2745 101.559 61.3399 101.214L62.0259 97.294H61.3959C61.0319 97.294 60.7659 97.3313 60.5979 97.406C60.4392 97.4807 60.3272 97.6907 60.2619 98.036ZM57.1819 97.938L57.0139 98.568L51.1339 97.938H57.1819ZM56.7479 99.912L50.8119 99.282H56.8599L56.7479 99.912ZM56.6079 101.256L50.6719 100.626H56.6639C56.6545 100.729 56.6452 100.831 56.6359 100.934C56.6265 101.037 56.6172 101.144 56.6079 101.256ZM56.6079 101.97C56.6265 102.194 56.6545 102.404 56.6919 102.6L50.7699 101.97H56.6079ZM57.4479 103.958L51.5119 103.328H56.9439C57.0745 103.58 57.2425 103.79 57.4479 103.958Z" fill="#333333"/>
</g>
</g>

</g>
</g>
</g>
<path id="pointer" d="M130 201L151 211L151 191Z" fill="#D32F2F" stroke="#B71C1C" filter="url(#pointer-shadow)" />
<path id="Vector_9" opacity="0.6" d="M101 166C120.33 166 136 154.807 136 141C136 127.193 120.33 116 101 116C81.67 116 66 127.193 66 141C66 154.807 81.67 166 101 166Z" fill="url(#paint0_linear_1_2)"/>
<path id="TURBEK" d="M74.2637 12.0449V14.3389H70.3877V25H67.6631V14.3389H63.7695V12.0449H74.2637ZM83.5186 20.0078V12.0449H86.2695V20.0078C86.2695 21.3848 86.0557 22.457 85.6279 23.2246C84.8311 24.6309 83.3105 25.334 81.0664 25.334C78.8223 25.334 77.2988 24.6309 76.4961 23.2246C76.0684 22.457 75.8545 21.3848 75.8545 20.0078V12.0449H78.6055V20.0078C78.6055 20.8984 78.7109 21.5488 78.9219 21.959C79.25 22.6855 79.9648 23.0488 81.0664 23.0488C82.1621 23.0488 82.874 22.6855 83.2021 21.959C83.4131 21.5488 83.5186 20.8984 83.5186 20.0078ZM94.3643 19.9199H91.5693V25H88.9238V12.0449H95.2783C96.1865 12.0625 96.8838 12.1738 97.3701 12.3789C97.8623 12.584 98.2783 12.8857 98.6182 13.2842C98.8994 13.6123 99.1221 13.9756 99.2861 14.374C99.4502 14.7725 99.5322 15.2266 99.5322 15.7363C99.5322 16.3516 99.377 16.958 99.0664 17.5557C98.7559 18.1475 98.2432 18.5664 97.5283 18.8125C98.126 19.0527 98.5479 19.3955 98.7939 19.8408C99.0459 20.2803 99.1719 20.9541 99.1719 21.8623V22.7324C99.1719 23.3242 99.1953 23.7256 99.2422 23.9365C99.3125 24.2705 99.4766 24.5166 99.7344 24.6748V25H96.7549C96.6729 24.7129 96.6143 24.4814 96.5791 24.3057C96.5088 23.9424 96.4707 23.5703 96.4648 23.1895L96.4473 21.9854C96.4355 21.1592 96.2832 20.6084 95.9902 20.333C95.7031 20.0576 95.1611 19.9199 94.3643 19.9199ZM96.0078 17.5645C96.5469 17.3184 96.8164 16.832 96.8164 16.1055C96.8164 15.3203 96.5557 14.793 96.0342 14.5234C95.7412 14.3711 95.3018 14.2949 94.7158 14.2949H91.5693V17.7754H94.6367C95.2461 17.7754 95.7031 17.7051 96.0078 17.5645ZM107.785 25H101.914V12.0449H108.207C109.795 12.0684 110.92 12.5283 111.582 13.4248C111.98 13.9756 112.18 14.6348 112.18 15.4023C112.18 16.1934 111.98 16.8291 111.582 17.3096C111.359 17.5791 111.031 17.8252 110.598 18.0479C111.26 18.2881 111.758 18.6689 112.092 19.1904C112.432 19.7119 112.602 20.3447 112.602 21.0889C112.602 21.8564 112.408 22.5449 112.021 23.1543C111.775 23.5586 111.468 23.8984 111.099 24.1738C110.683 24.4902 110.19 24.707 109.622 24.8242C109.06 24.9414 108.447 25 107.785 25ZM107.724 19.2959H104.498V22.75H107.68C108.248 22.75 108.69 22.6738 109.007 22.5215C109.581 22.2402 109.868 21.7012 109.868 20.9043C109.868 20.2305 109.59 19.7676 109.033 19.5156C108.723 19.375 108.286 19.3018 107.724 19.2959ZM109.068 16.8262C109.42 16.6152 109.596 16.2373 109.596 15.6924C109.596 15.0889 109.361 14.6904 108.893 14.4971C108.488 14.3623 107.973 14.2949 107.346 14.2949H104.498V17.1514H107.68C108.248 17.1514 108.711 17.043 109.068 16.8262ZM123.896 19.3398H117.603V22.6709H124.774V25H114.957V12.0449H124.458V14.3389H117.603V17.0898H123.896V19.3398ZM138.362 25H134.882L130.883 19.3398L129.591 20.667V25H126.928V12.0449H129.591V17.3799L134.592 12.0449H138.09L132.781 17.3799L138.362 25Z" fill="#2A2A2A"/>
<path id="DEPTH INDICATOR" d="M59.6104 378.17C59.9391 378.17 60.2093 378.136 60.4209 378.067C60.7985 377.94 61.1077 377.696 61.3486 377.335C61.5407 377.045 61.679 376.674 61.7637 376.222C61.8125 375.951 61.8369 375.701 61.8369 375.47C61.8369 374.581 61.6595 373.891 61.3047 373.399C60.9531 372.908 60.3851 372.662 59.6006 372.662H57.877V378.17H59.6104ZM56.9004 371.827H59.8057C60.792 371.827 61.557 372.177 62.1006 372.877C62.5856 373.508 62.8281 374.317 62.8281 375.304C62.8281 376.065 62.6849 376.754 62.3984 377.369C61.8939 378.456 61.0264 379 59.7959 379H56.9004V371.827ZM64.1758 371.827H69.4053V372.706H65.123V374.884H69.083V375.714H65.123V378.146H69.4785V379H64.1758V371.827ZM70.8457 371.827H74.0732C74.7113 371.827 75.2256 372.008 75.6162 372.369C76.0068 372.727 76.2021 373.232 76.2021 373.883C76.2021 374.443 76.028 374.931 75.6797 375.348C75.3314 375.761 74.7959 375.968 74.0732 375.968H71.8174V379H70.8457V371.827ZM75.2207 373.888C75.2207 373.36 75.0254 373.002 74.6348 372.813C74.4199 372.713 74.1253 372.662 73.751 372.662H71.8174V375.147H73.751C74.1872 375.147 74.5404 375.055 74.8105 374.869C75.084 374.684 75.2207 374.356 75.2207 373.888ZM82.6426 371.827V372.682H80.2256V379H79.2393V372.682H76.8223V371.827H82.6426ZM83.5605 371.827H84.542V374.791H88.2725V371.827H89.2539V379H88.2725V375.646H84.542V379H83.5605V371.827ZM93.7656 371.827H94.7471V379H93.7656V371.827ZM96.3291 371.827H97.4766L101.1 377.638V371.827H102.022V379H100.934L97.2568 373.194V379H96.3291V371.827ZM106.31 378.17C106.638 378.17 106.909 378.136 107.12 378.067C107.498 377.94 107.807 377.696 108.048 377.335C108.24 377.045 108.378 376.674 108.463 376.222C108.512 375.951 108.536 375.701 108.536 375.47C108.536 374.581 108.359 373.891 108.004 373.399C107.652 372.908 107.084 372.662 106.3 372.662H104.576V378.17H106.31ZM103.6 371.827H106.505C107.491 371.827 108.256 372.177 108.8 372.877C109.285 373.508 109.527 374.317 109.527 375.304C109.527 376.065 109.384 376.754 109.098 377.369C108.593 378.456 107.726 379 106.495 379H103.6V371.827ZM111.002 371.827H111.983V379H111.002V371.827ZM116.588 371.632C117.496 371.632 118.201 371.871 118.702 372.35C119.203 372.828 119.482 373.372 119.537 373.98H118.59C118.482 373.518 118.268 373.152 117.945 372.882C117.626 372.612 117.177 372.477 116.598 372.477C115.891 372.477 115.32 372.726 114.884 373.224C114.451 373.718 114.234 374.479 114.234 375.504C114.234 376.344 114.43 377.026 114.82 377.55C115.214 378.071 115.8 378.331 116.578 378.331C117.294 378.331 117.84 378.056 118.214 377.506C118.412 377.216 118.561 376.835 118.658 376.363H119.605C119.521 377.118 119.241 377.752 118.766 378.263C118.196 378.878 117.428 379.186 116.461 379.186C115.628 379.186 114.928 378.933 114.361 378.429C113.616 377.761 113.243 376.731 113.243 375.338C113.243 374.28 113.523 373.412 114.083 372.735C114.688 372 115.523 371.632 116.588 371.632ZM124.474 376.061L123.385 372.892L122.228 376.061H124.474ZM122.877 371.827H123.976L126.578 379H125.514L124.786 376.852H121.949L121.173 379H120.177L122.877 371.827ZM131.939 371.827V372.682H129.522V379H128.536V372.682H126.119V371.827H131.939ZM135.753 371.632C137.019 371.632 137.957 372.039 138.565 372.853C139.041 373.487 139.278 374.299 139.278 375.289C139.278 376.36 139.007 377.25 138.463 377.96C137.825 378.793 136.915 379.21 135.733 379.21C134.63 379.21 133.762 378.845 133.131 378.116C132.568 377.413 132.286 376.524 132.286 375.45C132.286 374.48 132.527 373.65 133.009 372.96C133.627 372.075 134.542 371.632 135.753 371.632ZM135.851 378.341C136.707 378.341 137.325 378.035 137.706 377.423C138.09 376.808 138.282 376.101 138.282 375.304C138.282 374.461 138.061 373.782 137.618 373.268C137.179 372.753 136.576 372.496 135.812 372.496C135.069 372.496 134.464 372.752 133.995 373.263C133.526 373.771 133.292 374.521 133.292 375.514C133.292 376.308 133.492 376.979 133.893 377.525C134.296 378.069 134.949 378.341 135.851 378.341ZM143.775 375.113C144.231 375.113 144.591 375.022 144.854 374.84C145.121 374.658 145.255 374.329 145.255 373.854C145.255 373.342 145.069 372.994 144.698 372.809C144.5 372.711 144.234 372.662 143.902 372.662H141.529V375.113H143.775ZM140.558 371.827H143.878C144.425 371.827 144.876 371.907 145.23 372.066C145.904 372.372 146.241 372.937 146.241 373.761C146.241 374.19 146.152 374.542 145.973 374.815C145.797 375.089 145.549 375.309 145.23 375.475C145.51 375.589 145.72 375.738 145.86 375.924C146.004 376.109 146.083 376.41 146.1 376.827L146.134 377.789C146.144 378.062 146.166 378.266 146.202 378.399C146.261 378.627 146.365 378.774 146.515 378.839V379H145.323C145.291 378.938 145.265 378.858 145.245 378.761C145.226 378.663 145.209 378.474 145.196 378.194L145.138 376.998C145.115 376.529 144.941 376.215 144.615 376.056C144.43 375.968 144.138 375.924 143.741 375.924H141.529V379H140.558V371.827Z" fill="#2A2A2A"/>
<path id="MODEL 501-D" d="M75.9922 388.262H77.1055L78.7539 393.113L80.3906 388.262H81.4922V394H80.7539V390.613C80.7539 390.496 80.7565 390.302 80.7617 390.031C80.7669 389.76 80.7695 389.47 80.7695 389.16L79.1328 394H78.3633L76.7148 389.16V389.336C76.7148 389.477 76.7174 389.691 76.7227 389.98C76.7305 390.267 76.7344 390.478 76.7344 390.613V394H75.9922V388.262ZM85.1523 388.105C86.1654 388.105 86.9154 388.431 87.4023 389.082C87.7826 389.59 87.9727 390.24 87.9727 391.031C87.9727 391.888 87.7552 392.6 87.3203 393.168C86.8099 393.835 86.082 394.168 85.1367 394.168C84.2539 394.168 83.5599 393.876 83.0547 393.293C82.6042 392.73 82.3789 392.02 82.3789 391.16C82.3789 390.384 82.5716 389.72 82.957 389.168C83.4518 388.46 84.1836 388.105 85.1523 388.105ZM85.2305 393.473C85.9154 393.473 86.4102 393.228 86.7148 392.738C87.0221 392.246 87.1758 391.681 87.1758 391.043C87.1758 390.368 86.9987 389.826 86.6445 389.414C86.293 389.003 85.8112 388.797 85.1992 388.797C84.6055 388.797 84.1211 389.001 83.7461 389.41C83.3711 389.816 83.1836 390.417 83.1836 391.211C83.1836 391.846 83.3438 392.383 83.6641 392.82C83.987 393.255 84.5091 393.473 85.2305 393.473ZM91.1055 393.336C91.3685 393.336 91.5846 393.309 91.7539 393.254C92.056 393.152 92.3034 392.957 92.4961 392.668C92.6497 392.436 92.7604 392.139 92.8281 391.777C92.8672 391.561 92.8867 391.361 92.8867 391.176C92.8867 390.465 92.7448 389.913 92.4609 389.52C92.1797 389.126 91.7253 388.93 91.0977 388.93H89.7188V393.336H91.1055ZM88.9375 388.262H91.2617C92.0508 388.262 92.6628 388.542 93.0977 389.102C93.4857 389.607 93.6797 390.254 93.6797 391.043C93.6797 391.652 93.5651 392.203 93.3359 392.695C92.9323 393.565 92.2383 394 91.2539 394H88.9375V388.262ZM94.7578 388.262H98.9414V388.965H95.5156V390.707H98.6836V391.371H95.5156V393.316H99V394H94.7578V388.262ZM100.02 388.262H100.797V393.316H103.703V394H100.02V388.262ZM106.781 392.574C106.828 392.975 107.014 393.253 107.34 393.406C107.507 393.484 107.699 393.523 107.918 393.523C108.335 393.523 108.643 393.391 108.844 393.125C109.044 392.859 109.145 392.565 109.145 392.242C109.145 391.852 109.025 391.549 108.785 391.336C108.548 391.122 108.263 391.016 107.93 391.016C107.688 391.016 107.479 391.062 107.305 391.156C107.133 391.25 106.986 391.38 106.863 391.547L106.254 391.512L106.68 388.5H109.586V389.18H107.207L106.969 390.734C107.099 390.635 107.223 390.561 107.34 390.512C107.548 390.426 107.789 390.383 108.062 390.383C108.576 390.383 109.01 390.548 109.367 390.879C109.724 391.21 109.902 391.629 109.902 392.137C109.902 392.665 109.738 393.132 109.41 393.535C109.085 393.939 108.564 394.141 107.848 394.141C107.392 394.141 106.988 394.013 106.637 393.758C106.288 393.5 106.092 393.105 106.051 392.574H106.781ZM112.41 388.406C113.134 388.406 113.658 388.704 113.98 389.301C114.23 389.762 114.355 390.393 114.355 391.195C114.355 391.956 114.242 392.585 114.016 393.082C113.688 393.796 113.151 394.152 112.406 394.152C111.734 394.152 111.234 393.861 110.906 393.277C110.633 392.79 110.496 392.137 110.496 391.316C110.496 390.681 110.578 390.135 110.742 389.68C111.049 388.831 111.605 388.406 112.41 388.406ZM112.402 393.512C112.767 393.512 113.057 393.35 113.273 393.027C113.49 392.704 113.598 392.103 113.598 391.223C113.598 390.587 113.52 390.065 113.363 389.656C113.207 389.245 112.904 389.039 112.453 389.039C112.039 389.039 111.736 389.234 111.543 389.625C111.353 390.013 111.258 390.586 111.258 391.344C111.258 391.914 111.319 392.372 111.441 392.719C111.629 393.247 111.949 393.512 112.402 393.512ZM115.465 390.039V389.5C115.973 389.451 116.327 389.368 116.527 389.254C116.728 389.137 116.878 388.862 116.977 388.43H117.531V394H116.781V390.039H115.465ZM119.484 391.41H121.445V392.133H119.484V391.41ZM124.629 393.336C124.892 393.336 125.108 393.309 125.277 393.254C125.579 393.152 125.827 392.957 126.02 392.668C126.173 392.436 126.284 392.139 126.352 391.777C126.391 391.561 126.41 391.361 126.41 391.176C126.41 390.465 126.268 389.913 125.984 389.52C125.703 389.126 125.249 388.93 124.621 388.93H123.242V393.336H124.629ZM122.461 388.262H124.785C125.574 388.262 126.186 388.542 126.621 389.102C127.009 389.607 127.203 390.254 127.203 391.043C127.203 391.652 127.089 392.203 126.859 392.695C126.456 393.565 125.762 394 124.777 394H122.461V388.262Z" fill="#2A2A2A"/>
<path id="Vector_10" opacity="0.5" d="M143 66H59C54.5817 66 51 70.8532 51 76.84V326.16C51 332.147 54.5817 337 59 337H143C147.418 337 151 332.147 151 326.16V76.84C151 70.8532 147.418 66 143 66Z" fill="url(#paint1_linear_1_2)"/>
</g>
<defs>

<filter id="pointer-shadow">
<feDropShadow dx="2" dy="2" stdDeviation="3" flood-opacity="0.5"/>
</filter>


<linearGradient id="background" x1="0%" y1="0%" x2="0%" y2="100%" gradientUnits="userSpaceOnUse">
<stop offset="0%" stop-color="#9f9f9f" stop-opacity="1"/>
<stop offset="50%" stop-color="white" stop-opacity="1"/>
<stop offset="100%" stop-color="9f9f9f" stop-opacity="1"/>
</linearGradient>


</defs>

  
    <script type="text/javascript">
//<![CDATA[ // this is to make javascript work in the SVG, leave it alone

    function updateSVG(instrumentValue){
    // ========================================
    // STUDENT EDIT ZONE
    // This sections controls how the gauge displays
    // ========================================

// Get the movingScale element
  const movingScale = document.getElementById("movingScale");
  if (!movingScale) return;

  

  // Make sure depth is between 0 and 100
  const normalizedDepth = Math.max(0, Math.min(100, instrumentValue));



  // Calculate y position
  const yPosition = normalizedDepth * -8 + 100
  //0 = -> -700 -> -800
	//100 -> 100 -> 0

  // Update transform to move the scale vertically
  movingScale.setAttribute("transform", `translate(20, ${yPosition})`);


    // ========================================
    // END STUDENT EDIT ZONE
    // ========================================

    }


    setInterval(() => { // do this repeatedly

    // Check localStorage for updates
      const thisSVGfilename = window.location.pathname;
    // this SVG expects a localStorage with the same name as its file
      const localStorageName =  thisSVGfilename.substring(thisSVGfilename.lastIndexOf('/') + 1, thisSVGfilename.lastIndexOf('.'));
      let instrumentValue = localStorage.getItem(localStorageName);



    if (instrumentValue !== null) {
      // Make sure percentage is between 0 and 100
      instrumentValue = Math.max(0, Math.min(100, instrumentValue));

    } else {
    // no localStorage, so make up a number, so it swings back and forth
    // Initialize static variables if they don't exist
    if (typeof window.testValue === 'undefined') {
      window.testValue = 0;
      window.testDirection = 1; // 1 for increasing, -1 for decreasing
    }

    // Update the test value
    window.testValue += window.testDirection * 2; // increment by 2 each time

    // Reverse direction at boundaries
    if (window.testValue >= 100) {
      window.testValue = 100;
      window.testDirection = -1;
    } else if (window.testValue <= 0) {
      window.testValue = 0;
      window.testDirection = 1;
    }

    instrumentValue = window.testValue;
    console.log('no local storage \"'+localStorageName+'\", using test value:', instrumentValue);

     }

    updateSVG(instrumentValue)



    }, 50);  //end of setInterval code.  50 is 50 milliseconds or 20 times per second.

  //]]> // this is to make javascript work in the SVG, leave it alone
  </script>


</svg>
