<svg width="202" height="402" viewBox="0 0 202 402" fill="none" xmlns="http://www.w3.org/2000/svg">
<g id="instruments-depth-claude-figma">
<path id="Vector" d="M187.667 1H14.3333C6.96954 1 1 6.96954 1 14.3333V387.667C1 395.03 6.96954 401 14.3333 401H187.667C195.03 401 201 395.03 201 387.667V14.3333C201 6.96954 195.03 1 187.667 1Z" fill="#D64A2B" stroke="#B83920" stroke-width="2"/>
<path id="Vector_2" d="M161 38H41C35.4772 38 31 43.9322 31 51.25V342.75C31 350.068 35.4772 356 41 356H161C166.523 356 171 350.068 171 342.75V51.25C171 43.9322 166.523 38 161 38Z" fill="#C4412A" stroke="#A83520"/>
<g id="Vector_3" filter="url(#filter0_f_1_2)">
<path d="M148 58H54C49.5817 58 46 62.7415 46 68.5905V325.41C46 331.258 49.5817 336 54 336H148C152.418 336 156 331.258 156 325.41V68.5905C156 62.7415 152.418 58 148 58Z" fill="#2A2A2A"/>
</g>
<path id="Vector_4" d="M143 63H59C54.5817 63 51 67.8532 51 73.84V323.16C51 329.147 54.5817 334 59 334H143C147.418 334 151 329.147 151 323.16V73.84C151 67.8532 147.418 63 143 63Z" fill="#F5F5F0"/>
<g id="Mask group">
<mask id="mask0_1_2" style="mask-type:luminance" maskUnits="userSpaceOnUse" x="51" y="63" width="100" height="271">
<g id="Group">
<path id="Vector_5" d="M143 63H59C54.5817 63 51 67.8532 51 73.84V323.16C51 329.147 54.5817 334 59 334H143C147.418 334 151 329.147 151 323.16V73.84C151 67.8532 147.418 63 143 63Z" fill="white"/>
</g>
</mask>
<g mask="url(#mask0_1_2)">
<g id="Group_2">
<path id="scaleBackground" d="M151 101H51V901H151V101Z" fill="#F5F5F0"/>
<g id="movingScale">
<g id="majorTicks">
<path id="Vector_6" d="M121 281H151" stroke="#333333" stroke-width="2"/>
<path id="90" d="M100.172 285.21C99.6217 285.21 99.071 285.177 98.5203 285.112C97.9697 285.056 97.447 284.967 96.9523 284.846L97.7503 282.536C98.1423 282.639 98.5343 282.718 98.9263 282.774C99.3183 282.83 99.6777 282.858 100.004 282.858C100.424 282.858 100.849 282.83 101.278 282.774L101.446 281.808H100.774C100.345 281.808 99.939 281.789 99.5563 281.752C99.183 281.715 98.8517 281.635 98.5623 281.514C98.273 281.383 98.0443 281.187 97.8763 280.926C97.7177 280.665 97.6383 280.31 97.6383 279.862C97.6383 278.574 98.0023 277.617 98.7303 276.992C99.4583 276.357 100.476 276.04 101.782 276.04C102.865 276.04 103.621 276.269 104.05 276.726C104.489 277.183 104.708 277.86 104.708 278.756C104.708 279.027 104.69 279.316 104.652 279.624C104.624 279.932 104.578 280.263 104.512 280.618C104.335 281.626 104.083 282.471 103.756 283.152C103.439 283.833 102.996 284.347 102.426 284.692C101.857 285.037 101.106 285.21 100.172 285.21ZM98.2683 276.824L92.9623 276.25H98.9963V276.264C98.7163 276.413 98.4737 276.6 98.2683 276.824ZM97.4423 278.21L91.6603 277.594H97.6943L97.6803 277.636C97.643 277.729 97.601 277.823 97.5543 277.916C97.517 278.009 97.4797 278.107 97.4423 278.21ZM100.48 279.736H101.012C101.283 279.736 101.488 279.708 101.628 279.652C101.768 279.587 101.862 279.419 101.908 279.148L102.09 278.154H101.544C101.283 278.154 101.078 278.187 100.928 278.252C100.788 278.308 100.695 278.471 100.648 278.742L100.48 279.736ZM97.2183 279.568L91.2823 278.938H97.2743C97.265 279.031 97.2557 279.129 97.2463 279.232C97.237 279.325 97.2277 279.437 97.2183 279.568ZM97.3443 280.828L92.2483 280.282H97.2323C97.251 280.375 97.265 280.469 97.2743 280.562C97.293 280.655 97.3163 280.744 97.3443 280.828ZM98.7443 282.144L94.2923 281.626H97.8903C98.021 281.738 98.1517 281.831 98.2823 281.906C98.4223 281.971 98.581 282.027 98.7583 282.074L98.7443 282.144ZM96.9383 283.586L91.1283 282.97H97.1623L96.9383 283.586ZM96.4763 284.944L90.6523 284.328H96.6863L96.4763 284.944ZM108.238 280.632C108.415 279.615 108.653 278.77 108.952 278.098C109.26 277.417 109.699 276.903 110.268 276.558C110.847 276.213 111.626 276.04 112.606 276.04C113.717 276.04 114.487 276.259 114.916 276.698C115.355 277.137 115.574 277.79 115.574 278.658C115.574 278.947 115.555 279.255 115.518 279.582C115.481 279.909 115.429 280.259 115.364 280.632C115.187 281.64 114.944 282.485 114.636 283.166C114.337 283.838 113.903 284.347 113.334 284.692C112.765 285.037 111.985 285.21 110.996 285.21C109.885 285.21 109.111 284.991 108.672 284.552C108.243 284.113 108.028 283.465 108.028 282.606C108.028 282.027 108.098 281.369 108.238 280.632ZM109.918 276.25C109.797 276.334 109.68 276.423 109.568 276.516C109.456 276.609 109.349 276.712 109.246 276.824L103.898 276.25H109.918ZM108.7 277.594C108.653 277.687 108.607 277.785 108.56 277.888C108.513 277.991 108.467 278.098 108.42 278.21L102.68 277.594H108.7ZM111.262 279.036L110.562 282.956H111.122C111.477 282.956 111.752 282.919 111.948 282.844C112.144 282.769 112.275 282.559 112.34 282.214L113.026 278.294H112.396C112.032 278.294 111.766 278.331 111.598 278.406C111.439 278.481 111.327 278.691 111.262 279.036ZM108.182 278.938L108.014 279.568L102.134 278.938H108.182ZM107.748 280.912L101.812 280.282H107.86L107.748 280.912ZM107.608 282.256L101.672 281.626H107.664C107.655 281.729 107.645 281.831 107.636 281.934C107.627 282.037 107.617 282.144 107.608 282.256ZM107.608 282.97C107.627 283.194 107.655 283.404 107.692 283.6L101.77 282.97H107.608ZM108.448 284.958L102.512 284.328H107.944C108.075 284.58 108.243 284.79 108.448 284.958Z" fill="#333333"/>
<path id="Vector_7" d="M121 201H151" stroke="#333333" stroke-width="2"/>
<path id="100" d="M91.474 205H88.674L89.71 199.05H87.372L87.722 196.978L90.9 196.25H93L91.474 205ZM87.316 196.754L82.948 196.25H88.996L87.344 196.628L87.316 196.754ZM87.078 198.224L81.142 197.594H87.176L87.078 198.224ZM86.854 199.568L80.918 198.938H86.966L86.854 199.568ZM88.954 200.912L83.018 200.282H89.066L88.954 200.912ZM88.716 202.256L82.78 201.626H88.828L88.716 202.256ZM88.478 203.6L82.542 202.97H88.59L88.478 203.6ZM88.24 204.958L82.304 204.328H88.352L88.24 204.958ZM97.4098 200.632C97.5871 199.615 97.8251 198.77 98.1238 198.098C98.4318 197.417 98.8704 196.903 99.4398 196.558C100.018 196.213 100.798 196.04 101.778 196.04C102.888 196.04 103.658 196.259 104.088 196.698C104.526 197.137 104.746 197.79 104.746 198.658C104.746 198.947 104.727 199.255 104.69 199.582C104.652 199.909 104.601 200.259 104.536 200.632C104.358 201.64 104.116 202.485 103.808 203.166C103.509 203.838 103.075 204.347 102.506 204.692C101.936 205.037 101.157 205.21 100.168 205.21C99.0571 205.21 98.2824 204.991 97.8438 204.552C97.4144 204.113 97.1998 203.465 97.1998 202.606C97.1998 202.027 97.2698 201.369 97.4098 200.632ZM99.0898 196.25C98.9684 196.334 98.8518 196.423 98.7398 196.516C98.6278 196.609 98.5204 196.712 98.4178 196.824L93.0697 196.25H99.0898ZM97.8718 197.594C97.8251 197.687 97.7784 197.785 97.7318 197.888C97.6851 197.991 97.6384 198.098 97.5918 198.21L91.8517 197.594H97.8718ZM100.434 199.036L99.7338 202.956H100.294C100.648 202.956 100.924 202.919 101.12 202.844C101.316 202.769 101.446 202.559 101.512 202.214L102.198 198.294H101.568C101.204 198.294 100.938 198.331 100.77 198.406C100.611 198.481 100.499 198.691 100.434 199.036ZM97.3538 198.938L97.1858 199.568L91.3057 198.938H97.3538ZM96.9198 200.912L90.9837 200.282H97.0318L96.9198 200.912ZM96.7798 202.256L90.8438 201.626H96.8358C96.8264 201.729 96.8171 201.831 96.8078 201.934C96.7984 202.037 96.7891 202.144 96.7798 202.256ZM96.7798 202.97C96.7984 203.194 96.8264 203.404 96.8638 203.6L90.9417 202.97H96.7798ZM97.6198 204.958L91.6837 204.328H97.1158C97.2464 204.58 97.4144 204.79 97.6198 204.958ZM108.238 200.632C108.415 199.615 108.653 198.77 108.952 198.098C109.26 197.417 109.699 196.903 110.268 196.558C110.847 196.213 111.626 196.04 112.606 196.04C113.717 196.04 114.487 196.259 114.916 196.698C115.355 197.137 115.574 197.79 115.574 198.658C115.574 198.947 115.555 199.255 115.518 199.582C115.481 199.909 115.429 200.259 115.364 200.632C115.187 201.64 114.944 202.485 114.636 203.166C114.337 203.838 113.903 204.347 113.334 204.692C112.765 205.037 111.985 205.21 110.996 205.21C109.885 205.21 109.111 204.991 108.672 204.552C108.243 204.113 108.028 203.465 108.028 202.606C108.028 202.027 108.098 201.369 108.238 200.632ZM109.918 196.25C109.797 196.334 109.68 196.423 109.568 196.516C109.456 196.609 109.349 196.712 109.246 196.824L103.898 196.25H109.918ZM108.7 197.594C108.653 197.687 108.607 197.785 108.56 197.888C108.513 197.991 108.467 198.098 108.42 198.21L102.68 197.594H108.7ZM111.262 199.036L110.562 202.956H111.122C111.477 202.956 111.752 202.919 111.948 202.844C112.144 202.769 112.275 202.559 112.34 202.214L113.026 198.294H112.396C112.032 198.294 111.766 198.331 111.598 198.406C111.439 198.481 111.327 198.691 111.262 199.036ZM108.182 198.938L108.014 199.568L102.134 198.938H108.182ZM107.748 200.912L101.812 200.282H107.86L107.748 200.912ZM107.608 202.256L101.672 201.626H107.664C107.655 201.729 107.645 201.831 107.636 201.934C107.627 202.037 107.617 202.144 107.608 202.256ZM107.608 202.97C107.627 203.194 107.655 203.404 107.692 203.6L101.77 202.97H107.608ZM108.448 204.958L102.512 204.328H107.944C108.075 204.58 108.243 204.79 108.448 204.958Z" fill="#333333"/>
</g>
</g>
</g>
</g>
</g>
<path id="Vector_8" d="M61 201L46 211L46 191L61 201Z" fill="#D32F2F" stroke="#B71C1C"/>
<path id="Vector_9" opacity="0.6" d="M101 166C120.33 166 136 154.807 136 141C136 127.193 120.33 116 101 116C81.67 116 66 127.193 66 141C66 154.807 81.67 166 101 166Z" fill="url(#paint0_linear_1_2)"/>
<path id="TURBEK" d="M74.2637 12.0449V14.3389H70.3877V25H67.6631V14.3389H63.7695V12.0449H74.2637ZM83.5186 20.0078V12.0449H86.2695V20.0078C86.2695 21.3848 86.0557 22.457 85.6279 23.2246C84.8311 24.6309 83.3105 25.334 81.0664 25.334C78.8223 25.334 77.2988 24.6309 76.4961 23.2246C76.0684 22.457 75.8545 21.3848 75.8545 20.0078V12.0449H78.6055V20.0078C78.6055 20.8984 78.7109 21.5488 78.9219 21.959C79.25 22.6855 79.9648 23.0488 81.0664 23.0488C82.1621 23.0488 82.874 22.6855 83.2021 21.959C83.4131 21.5488 83.5186 20.8984 83.5186 20.0078ZM94.3643 19.9199H91.5693V25H88.9238V12.0449H95.2783C96.1865 12.0625 96.8838 12.1738 97.3701 12.3789C97.8623 12.584 98.2783 12.8857 98.6182 13.2842C98.8994 13.6123 99.1221 13.9756 99.2861 14.374C99.4502 14.7725 99.5322 15.2266 99.5322 15.7363C99.5322 16.3516 99.377 16.958 99.0664 17.5557C98.7559 18.1475 98.2432 18.5664 97.5283 18.8125C98.126 19.0527 98.5479 19.3955 98.7939 19.8408C99.0459 20.2803 99.1719 20.9541 99.1719 21.8623V22.7324C99.1719 23.3242 99.1953 23.7256 99.2422 23.9365C99.3125 24.2705 99.4766 24.5166 99.7344 24.6748V25H96.7549C96.6729 24.7129 96.6143 24.4814 96.5791 24.3057C96.5088 23.9424 96.4707 23.5703 96.4648 23.1895L96.4473 21.9854C96.4355 21.1592 96.2832 20.6084 95.9902 20.333C95.7031 20.0576 95.1611 19.9199 94.3643 19.9199ZM96.0078 17.5645C96.5469 17.3184 96.8164 16.832 96.8164 16.1055C96.8164 15.3203 96.5557 14.793 96.0342 14.5234C95.7412 14.3711 95.3018 14.2949 94.7158 14.2949H91.5693V17.7754H94.6367C95.2461 17.7754 95.7031 17.7051 96.0078 17.5645ZM107.785 25H101.914V12.0449H108.207C109.795 12.0684 110.92 12.5283 111.582 13.4248C111.98 13.9756 112.18 14.6348 112.18 15.4023C112.18 16.1934 111.98 16.8291 111.582 17.3096C111.359 17.5791 111.031 17.8252 110.598 18.0479C111.26 18.2881 111.758 18.6689 112.092 19.1904C112.432 19.7119 112.602 20.3447 112.602 21.0889C112.602 21.8564 112.408 22.5449 112.021 23.1543C111.775 23.5586 111.468 23.8984 111.099 24.1738C110.683 24.4902 110.19 24.707 109.622 24.8242C109.06 24.9414 108.447 25 107.785 25ZM107.724 19.2959H104.498V22.75H107.68C108.248 22.75 108.69 22.6738 109.007 22.5215C109.581 22.2402 109.868 21.7012 109.868 20.9043C109.868 20.2305 109.59 19.7676 109.033 19.5156C108.723 19.375 108.286 19.3018 107.724 19.2959ZM109.068 16.8262C109.42 16.6152 109.596 16.2373 109.596 15.6924C109.596 15.0889 109.361 14.6904 108.893 14.4971C108.488 14.3623 107.973 14.2949 107.346 14.2949H104.498V17.1514H107.68C108.248 17.1514 108.711 17.043 109.068 16.8262ZM123.896 19.3398H117.603V22.6709H124.774V25H114.957V12.0449H124.458V14.3389H117.603V17.0898H123.896V19.3398ZM138.362 25H134.882L130.883 19.3398L129.591 20.667V25H126.928V12.0449H129.591V17.3799L134.592 12.0449H138.09L132.781 17.3799L138.362 25Z" fill="#2A2A2A"/>
<path id="DEPTH INDICATOR" d="M59.6104 378.17C59.9391 378.17 60.2093 378.136 60.4209 378.067C60.7985 377.94 61.1077 377.696 61.3486 377.335C61.5407 377.045 61.679 376.674 61.7637 376.222C61.8125 375.951 61.8369 375.701 61.8369 375.47C61.8369 374.581 61.6595 373.891 61.3047 373.399C60.9531 372.908 60.3851 372.662 59.6006 372.662H57.877V378.17H59.6104ZM56.9004 371.827H59.8057C60.792 371.827 61.557 372.177 62.1006 372.877C62.5856 373.508 62.8281 374.317 62.8281 375.304C62.8281 376.065 62.6849 376.754 62.3984 377.369C61.8939 378.456 61.0264 379 59.7959 379H56.9004V371.827ZM64.1758 371.827H69.4053V372.706H65.123V374.884H69.083V375.714H65.123V378.146H69.4785V379H64.1758V371.827ZM70.8457 371.827H74.0732C74.7113 371.827 75.2256 372.008 75.6162 372.369C76.0068 372.727 76.2021 373.232 76.2021 373.883C76.2021 374.443 76.028 374.931 75.6797 375.348C75.3314 375.761 74.7959 375.968 74.0732 375.968H71.8174V379H70.8457V371.827ZM75.2207 373.888C75.2207 373.36 75.0254 373.002 74.6348 372.813C74.4199 372.713 74.1253 372.662 73.751 372.662H71.8174V375.147H73.751C74.1872 375.147 74.5404 375.055 74.8105 374.869C75.084 374.684 75.2207 374.356 75.2207 373.888ZM82.6426 371.827V372.682H80.2256V379H79.2393V372.682H76.8223V371.827H82.6426ZM83.5605 371.827H84.542V374.791H88.2725V371.827H89.2539V379H88.2725V375.646H84.542V379H83.5605V371.827ZM93.7656 371.827H94.7471V379H93.7656V371.827ZM96.3291 371.827H97.4766L101.1 377.638V371.827H102.022V379H100.934L97.2568 373.194V379H96.3291V371.827ZM106.31 378.17C106.638 378.17 106.909 378.136 107.12 378.067C107.498 377.94 107.807 377.696 108.048 377.335C108.24 377.045 108.378 376.674 108.463 376.222C108.512 375.951 108.536 375.701 108.536 375.47C108.536 374.581 108.359 373.891 108.004 373.399C107.652 372.908 107.084 372.662 106.3 372.662H104.576V378.17H106.31ZM103.6 371.827H106.505C107.491 371.827 108.256 372.177 108.8 372.877C109.285 373.508 109.527 374.317 109.527 375.304C109.527 376.065 109.384 376.754 109.098 377.369C108.593 378.456 107.726 379 106.495 379H103.6V371.827ZM111.002 371.827H111.983V379H111.002V371.827ZM116.588 371.632C117.496 371.632 118.201 371.871 118.702 372.35C119.203 372.828 119.482 373.372 119.537 373.98H118.59C118.482 373.518 118.268 373.152 117.945 372.882C117.626 372.612 117.177 372.477 116.598 372.477C115.891 372.477 115.32 372.726 114.884 373.224C114.451 373.718 114.234 374.479 114.234 375.504C114.234 376.344 114.43 377.026 114.82 377.55C115.214 378.071 115.8 378.331 116.578 378.331C117.294 378.331 117.84 378.056 118.214 377.506C118.412 377.216 118.561 376.835 118.658 376.363H119.605C119.521 377.118 119.241 377.752 118.766 378.263C118.196 378.878 117.428 379.186 116.461 379.186C115.628 379.186 114.928 378.933 114.361 378.429C113.616 377.761 113.243 376.731 113.243 375.338C113.243 374.28 113.523 373.412 114.083 372.735C114.688 372 115.523 371.632 116.588 371.632ZM124.474 376.061L123.385 372.892L122.228 376.061H124.474ZM122.877 371.827H123.976L126.578 379H125.514L124.786 376.852H121.949L121.173 379H120.177L122.877 371.827ZM131.939 371.827V372.682H129.522V379H128.536V372.682H126.119V371.827H131.939ZM135.753 371.632C137.019 371.632 137.957 372.039 138.565 372.853C139.041 373.487 139.278 374.299 139.278 375.289C139.278 376.36 139.007 377.25 138.463 377.96C137.825 378.793 136.915 379.21 135.733 379.21C134.63 379.21 133.762 378.845 133.131 378.116C132.568 377.413 132.286 376.524 132.286 375.45C132.286 374.48 132.527 373.65 133.009 372.96C133.627 372.075 134.542 371.632 135.753 371.632ZM135.851 378.341C136.707 378.341 137.325 378.035 137.706 377.423C138.09 376.808 138.282 376.101 138.282 375.304C138.282 374.461 138.061 373.782 137.618 373.268C137.179 372.753 136.576 372.496 135.812 372.496C135.069 372.496 134.464 372.752 133.995 373.263C133.526 373.771 133.292 374.521 133.292 375.514C133.292 376.308 133.492 376.979 133.893 377.525C134.296 378.069 134.949 378.341 135.851 378.341ZM143.775 375.113C144.231 375.113 144.591 375.022 144.854 374.84C145.121 374.658 145.255 374.329 145.255 373.854C145.255 373.342 145.069 372.994 144.698 372.809C144.5 372.711 144.234 372.662 143.902 372.662H141.529V375.113H143.775ZM140.558 371.827H143.878C144.425 371.827 144.876 371.907 145.23 372.066C145.904 372.372 146.241 372.937 146.241 373.761C146.241 374.19 146.152 374.542 145.973 374.815C145.797 375.089 145.549 375.309 145.23 375.475C145.51 375.589 145.72 375.738 145.86 375.924C146.004 376.109 146.083 376.41 146.1 376.827L146.134 377.789C146.144 378.062 146.166 378.266 146.202 378.399C146.261 378.627 146.365 378.774 146.515 378.839V379H145.323C145.291 378.938 145.265 378.858 145.245 378.761C145.226 378.663 145.209 378.474 145.196 378.194L145.138 376.998C145.115 376.529 144.941 376.215 144.615 376.056C144.43 375.968 144.138 375.924 143.741 375.924H141.529V379H140.558V371.827Z" fill="#2A2A2A"/>
<path id="MODEL 501-D" d="M75.9922 388.262H77.1055L78.7539 393.113L80.3906 388.262H81.4922V394H80.7539V390.613C80.7539 390.496 80.7565 390.302 80.7617 390.031C80.7669 389.76 80.7695 389.47 80.7695 389.16L79.1328 394H78.3633L76.7148 389.16V389.336C76.7148 389.477 76.7174 389.691 76.7227 389.98C76.7305 390.267 76.7344 390.478 76.7344 390.613V394H75.9922V388.262ZM85.1523 388.105C86.1654 388.105 86.9154 388.431 87.4023 389.082C87.7826 389.59 87.9727 390.24 87.9727 391.031C87.9727 391.888 87.7552 392.6 87.3203 393.168C86.8099 393.835 86.082 394.168 85.1367 394.168C84.2539 394.168 83.5599 393.876 83.0547 393.293C82.6042 392.73 82.3789 392.02 82.3789 391.16C82.3789 390.384 82.5716 389.72 82.957 389.168C83.4518 388.46 84.1836 388.105 85.1523 388.105ZM85.2305 393.473C85.9154 393.473 86.4102 393.228 86.7148 392.738C87.0221 392.246 87.1758 391.681 87.1758 391.043C87.1758 390.368 86.9987 389.826 86.6445 389.414C86.293 389.003 85.8112 388.797 85.1992 388.797C84.6055 388.797 84.1211 389.001 83.7461 389.41C83.3711 389.816 83.1836 390.417 83.1836 391.211C83.1836 391.846 83.3438 392.383 83.6641 392.82C83.987 393.255 84.5091 393.473 85.2305 393.473ZM91.1055 393.336C91.3685 393.336 91.5846 393.309 91.7539 393.254C92.056 393.152 92.3034 392.957 92.4961 392.668C92.6497 392.436 92.7604 392.139 92.8281 391.777C92.8672 391.561 92.8867 391.361 92.8867 391.176C92.8867 390.465 92.7448 389.913 92.4609 389.52C92.1797 389.126 91.7253 388.93 91.0977 388.93H89.7188V393.336H91.1055ZM88.9375 388.262H91.2617C92.0508 388.262 92.6628 388.542 93.0977 389.102C93.4857 389.607 93.6797 390.254 93.6797 391.043C93.6797 391.652 93.5651 392.203 93.3359 392.695C92.9323 393.565 92.2383 394 91.2539 394H88.9375V388.262ZM94.7578 388.262H98.9414V388.965H95.5156V390.707H98.6836V391.371H95.5156V393.316H99V394H94.7578V388.262ZM100.02 388.262H100.797V393.316H103.703V394H100.02V388.262ZM106.781 392.574C106.828 392.975 107.014 393.253 107.34 393.406C107.507 393.484 107.699 393.523 107.918 393.523C108.335 393.523 108.643 393.391 108.844 393.125C109.044 392.859 109.145 392.565 109.145 392.242C109.145 391.852 109.025 391.549 108.785 391.336C108.548 391.122 108.263 391.016 107.93 391.016C107.688 391.016 107.479 391.062 107.305 391.156C107.133 391.25 106.986 391.38 106.863 391.547L106.254 391.512L106.68 388.5H109.586V389.18H107.207L106.969 390.734C107.099 390.635 107.223 390.561 107.34 390.512C107.548 390.426 107.789 390.383 108.062 390.383C108.576 390.383 109.01 390.548 109.367 390.879C109.724 391.21 109.902 391.629 109.902 392.137C109.902 392.665 109.738 393.132 109.41 393.535C109.085 393.939 108.564 394.141 107.848 394.141C107.392 394.141 106.988 394.013 106.637 393.758C106.288 393.5 106.092 393.105 106.051 392.574H106.781ZM112.41 388.406C113.134 388.406 113.658 388.704 113.98 389.301C114.23 389.762 114.355 390.393 114.355 391.195C114.355 391.956 114.242 392.585 114.016 393.082C113.688 393.796 113.151 394.152 112.406 394.152C111.734 394.152 111.234 393.861 110.906 393.277C110.633 392.79 110.496 392.137 110.496 391.316C110.496 390.681 110.578 390.135 110.742 389.68C111.049 388.831 111.605 388.406 112.41 388.406ZM112.402 393.512C112.767 393.512 113.057 393.35 113.273 393.027C113.49 392.704 113.598 392.103 113.598 391.223C113.598 390.587 113.52 390.065 113.363 389.656C113.207 389.245 112.904 389.039 112.453 389.039C112.039 389.039 111.736 389.234 111.543 389.625C111.353 390.013 111.258 390.586 111.258 391.344C111.258 391.914 111.319 392.372 111.441 392.719C111.629 393.247 111.949 393.512 112.402 393.512ZM115.465 390.039V389.5C115.973 389.451 116.327 389.368 116.527 389.254C116.728 389.137 116.878 388.862 116.977 388.43H117.531V394H116.781V390.039H115.465ZM119.484 391.41H121.445V392.133H119.484V391.41ZM124.629 393.336C124.892 393.336 125.108 393.309 125.277 393.254C125.579 393.152 125.827 392.957 126.02 392.668C126.173 392.436 126.284 392.139 126.352 391.777C126.391 391.561 126.41 391.361 126.41 391.176C126.41 390.465 126.268 389.913 125.984 389.52C125.703 389.126 125.249 388.93 124.621 388.93H123.242V393.336H124.629ZM122.461 388.262H124.785C125.574 388.262 126.186 388.542 126.621 389.102C127.009 389.607 127.203 390.254 127.203 391.043C127.203 391.652 127.089 392.203 126.859 392.695C126.456 393.565 125.762 394 124.777 394H122.461V388.262Z" fill="#2A2A2A"/>
<path id="Vector_10" opacity="0.5" d="M143 66H59C54.5817 66 51 70.8532 51 76.84V326.16C51 332.147 54.5817 337 59 337H143C147.418 337 151 332.147 151 326.16V76.84C151 70.8532 147.418 66 143 66Z" fill="url(#paint1_linear_1_2)"/>
</g>
<defs>
<filter id="filter0_f_1_2" x="42" y="54" width="118" height="286" filterUnits="userSpaceOnUse" color-interpolation-filters="sRGB">
<feFlood flood-opacity="0" result="BackgroundImageFix"/>
<feBlend mode="normal" in="SourceGraphic" in2="BackgroundImageFix" result="shape"/>
<feGaussianBlur stdDeviation="2" result="effect1_foregroundBlur_1_2"/>
</filter>
<linearGradient id="paint0_linear_1_2" x1="66" y1="116" x2="66" y2="5116" gradientUnits="userSpaceOnUse">
<stop stop-color="white" stop-opacity="0.4"/>
<stop offset="0.3" stop-color="white" stop-opacity="0.15"/>
<stop offset="1" stop-color="white" stop-opacity="0"/>
</linearGradient>
<linearGradient id="paint1_linear_1_2" x1="51" y1="66" x2="17654.1" y2="6561.61" gradientUnits="userSpaceOnUse">
<stop stop-color="white" stop-opacity="0.3"/>
<stop offset="0.45" stop-color="white" stop-opacity="0.1"/>
<stop offset="1" stop-color="white" stop-opacity="0.05"/>
</linearGradient>
</defs>
</svg>
