<?xml version="1.0" encoding="UTF-8"?><svg xmlns="http://www.w3.org/2000/svg" xmlns:xlink="http://www.w3.org/1999/xlink" id="elevator" version="1.1" viewBox="0 0 512 512">
  <!-- Generator: Adobe Illustrator 30.0.0, SVG Export Plug-In . SVG Version: 2.1.1 Build 123)  -->
  <defs>
    <style>
      .st0, .st1, .st2, .st3, .st4 {
        fill: #1a1a1a;
      }

      .st0, .st5, .st6, .st7 {
        stroke-width: .1px;
      }

      .st0, .st8, .st4 {
        stroke: #000;
        stroke-miterlimit: 11.3;
      }

      .st1, .st2, .st3, .st5 {
        stroke: #666;
      }

      .st1, .st9 {
        stroke-miterlimit: 6.2;
        stroke-width: .2px;
      }

      .st2, .st5, .st10, .st11, .st6, .st7 {
        stroke-miterlimit: 6.2;
      }

      .st2, .st8, .st10, .st4 {
        stroke-width: .2px;
      }

      .st3, .st12 {
        stroke-miterlimit: 6.2;
        stroke-width: .2px;
      }

      .st13 {
        stroke: url(#linear-gradient2);
      }

      .st13, .st14, .st15, .st16, .st17 {
        stroke-miterlimit: 10;
      }

      .st13, .st14, .st15, .st17 {
        fill: none;
      }

      .st13, .st14, .st15, .st11 {
        stroke-width: 2px;
      }

      .st14 {
        stroke: url(#linear-gradient1);
      }

      .st15 {
        stroke: url(#linear-gradient3);
      }

      .st18, .st19, .st17 {
        isolation: isolate;
      }

      .st5, .st11, .st6, .st7 {
        fill-rule: evenodd;
      }

      .st8 {
        fill: #333;
      }

      .st16 {
        fill: #16ec00;
        stroke: #231f20;
      }

      .st12, .st9, .st10, .st7 {
        stroke: gray;
      }

      .st19 {
        fill: #fff;
      }

      .st19, .st17 {
        font-family: HelveticaNeue-Medium, 'Helvetica Neue';
        font-size: 100px;
        font-weight: 500;
      }

      .st17 {
        stroke: #231f00;
      }

      .st11 {
        stroke: url(#linear-gradient);
      }

      .st6 {
        stroke: #999;
      }

      .st20 {
        fill: url(#radial-gradient);
      }
    </style>
    <linearGradient id="linear-gradient" x1="38.8" y1="-241.2" x2="477" y2="-679.6" gradientTransform="translate(0 -204) scale(1 -1)" gradientUnits="userSpaceOnUse">
      <stop offset="0" stop-color="#686868"/>
      <stop offset="1" stop-color="#000"/>
    </linearGradient>
    <linearGradient id="linear-gradient1" x1="229.1" y1="1182.1" x2="381.5" y2="1182.1" gradientTransform="translate(0 -926)" gradientUnits="userSpaceOnUse">
      <stop offset="0" stop-color="#fff"/>
      <stop offset="1" stop-color="#646464"/>
    </linearGradient>
    <linearGradient id="linear-gradient2" x1="207.6" y1="1182.1" x2="207.6" y2="1182.1" gradientTransform="translate(0 -926)" gradientUnits="userSpaceOnUse">
      <stop offset="0" stop-color="#fff"/>
      <stop offset="1" stop-color="#646464"/>
    </linearGradient>
    <linearGradient id="linear-gradient3" x1="140.6" y1="1182.2" x2="380.8" y2="1182.2" gradientTransform="translate(0 -926)" gradientUnits="userSpaceOnUse">
      <stop offset="0" stop-color="#fff"/>
      <stop offset="1" stop-color="#646464"/>
    </linearGradient>
    <radialGradient id="radial-gradient" cx="-2942.4" cy="1630.8" fx="-2942.4" fy="1630.8" r="146" gradientTransform="translate(2869.3 8610.6) rotate(42) scale(2.6 -2.7)" gradientUnits="userSpaceOnUse">
      <stop offset="0" stop-color="#f9f9f9" stop-opacity=".5"/>
      <stop offset=".5" stop-color="#e6e6e6" stop-opacity=".3"/>
      <stop offset="1" stop-color="#000" stop-opacity="0"/>
    </radialGradient>
  </defs>
  <g id="frame">
    <path id="bezel" class="st11" d="M33.1,45.9c1.9-4.3,7.9-10.1,13.7-12.3L129,1.9h254.2l88.4,31.6c5.3,2.2,9.2,7.5,11.3,13l28,83v253.9l-29.5,84.3c-4.1,7.3-6.1,8.9-14.2,13,0,0-45.2,23.9-84,29.7h-254.1c-26.8.7-82.6-28.5-82.6-28.5-5.3-2.7-11.4-10.1-13.3-15.7,0,0-31.2-64.5-31.2-82.6v-253.9l31.2-83.5h0l-.2-.2h.1Z"/>
    <g id="g16431">
      <circle id="circle16391" class="st10" cx="63.3" cy="456.3" r="18.3"/>
      <path id="path16411" class="st7" d="M54.8,447.9c-.3,0-.7,1,0,1.4l2.7,4.3c0,.3,0,1-.3,1.4l-4.3,2.7c-.7.3-.9,1-.7,1.4l3.1,5.1c0,.3,1,.7,1.4,0l3.9-2.4c.7.3,1.4.7,2.2.7l2.2,3.9c.3.7,1,.9,1.4.7l5.1-3.1c.3,0,.7-1,0-1.4l-2-3.4c.3-.9.7-1.9.7-2.9l3.4-2c.7-.3.9-1,.7-1.4l-3.1-5.1c0-.3-1-.7-1.4,0l-3.9,2.4c-.7,0-1.2-.3-2-.3l-2.4-4.1c-.3-.7-1-.9-1.4-.7l-5.1,3.1h0l-.2-.2h0Z"/>
    </g>
    <g id="g16501">
      <circle id="circle16451" class="st9" cx="453.1" cy="456.3" r="18.3"/>
      <path id="path16481" class="st7" d="M444.4,447.9c-.3,0-.7,1,0,1.4l2.7,4.3c0,.3-.2,1-.3,1.4l-4.3,2.7c-.7.3-.9,1-.7,1.4l3.1,5.1c.2.3,1,.7,1.4,0l3.9-2.4c.7.3,1.4.7,2.2.7l2.2,3.9c.3.7,1,.9,1.4.7l5.1-3.1c.3,0,.7-1,0-1.4l-2-3.4c.3-.9.7-1.9.7-2.9l3.4-2c.7-.3.9-1,.7-1.4l-3.1-5.1c-.2-.3-1-.7-1.4,0l-3.9,2.4c-.7,0-1.2-.3-2-.3l-2.4-4.1c-.3-.7-1-.9-1.4-.7l-5.1,3.1h0l-.2-.2h0Z"/>
    </g>
    <g id="g16571">
      <circle id="circle16521" class="st10" cx="63.3" cy="59.1" r="18.3"/>
      <path id="path16551" class="st6" d="M54.8,50.7c-.3.2-.7,1,0,1.4l2.7,4.3c0,.3,0,1-.3,1.4l-4.3,2.7c-.7.3-.9,1-.7,1.4l3.1,5.1c0,.3,1,.7,1.4,0l3.9-2.4c.7.3,1.4.7,2.2.7l2.2,3.9c.3.7,1,.9,1.4.7l5.1-3.1c.3-.2.7-1,0-1.4l-2-3.4c.3-.9.7-1.9.7-2.9l3.4-2c.7-.3.9-1,.7-1.4l-3.1-5.1c0-.3-1-.7-1.4,0l-3.9,2.4c-.7-.2-1.2-.3-2-.3l-2.4-4.1c-.3-.7-1-.9-1.4-.7l-5.1,3.1h0l-.2-.2h0Z"/>
    </g>
    <g id="g16631">
      <circle id="circle16591" class="st12" cx="453.3" cy="59.1" r="18.3" transform="translate(291.4 486.6) rotate(-76.7)"/>
      <path id="path16611" class="st7" d="M444.4,50.7c-.3.2-.7,1,0,1.4l2.7,4.3c0,.3-.2,1-.3,1.4l-4.3,2.7c-.7.3-.9,1-.7,1.4l3.1,5.1c.2.3,1,.7,1.4,0l3.9-2.4c.7.3,1.4.7,2.2.7l2.2,3.9c.3.7,1,.9,1.4.7l5.1-3.1c.3-.2.7-1,0-1.4l-2-3.4c.3-.9.7-1.9.7-2.9l3.4-2c.7-.3.9-1,.7-1.4l-3.1-5.1c-.2-.3-1-.7-1.4,0l-3.9,2.4c-.7-.2-1.2-.3-2-.3l-2.4-4.1c-.3-.7-1-.9-1.4-.7l-5.1,3.1h0l-.2-.2h0Z"/>
    </g>
    <g id="screws">
      <g id="g20091">
        <circle id="circle20051" class="st2" cx="63.5" cy="456.6" r="18.3" transform="translate(-395 504.9) rotate(-88.1)"/>
        <path id="path20071" class="st5" d="M54.9,447.9c-.3,0-.7,1,0,1.4l2.7,4.3c0,.3,0,1-.3,1.4l-4.3,2.7c-.7.3-.9,1-.7,1.4l3.1,5.1c0,.3,1,.7,1.4,0l3.9-2.4c.7.3,1.4.7,2.2.7l2.2,3.9c.3.7,1,.9,1.4.7l5.1-3.1c.3,0,.7-1,0-1.4l-2-3.4c.3-.9.7-1.9.7-2.9l3.4-2c.7-.3.9-1,.7-1.4l-3.1-5.1c0-.3-1-.7-1.4,0l-3.9,2.4c-.7,0-1.2-.3-2-.3l-2.4-4.1c-.3-.7-1-.9-1.4-.7l-5.1,3.1h0l-.2-.2h0Z"/>
      </g>
      <g id="g20151">
        <circle id="circle20111" class="st1" cx="453.3" cy="456.6" r="18.3"/>
        <path id="path20131" class="st5" d="M444.7,447.9c-.3,0-.7,1,0,1.4l2.7,4.3c0,.3-.2,1-.3,1.4l-4.3,2.7c-.7.3-.9,1-.7,1.4l3.1,5.1c.2.3,1,.7,1.4,0l3.9-2.4c.7.3,1.4.7,2.2.7l2.2,3.9c.3.7,1,.9,1.4.7l5.1-3.1c.3,0,.7-1,0-1.4l-2-3.4c.3-.9.7-1.9.7-2.9l3.4-2c.7-.3.9-1,.7-1.4l-3.1-5.1c-.2-.3-1-.7-1.4,0l-3.9,2.4c-.7,0-1.2-.3-2-.3l-2.4-4.1c-.3-.7-1-.9-1.4-.7l-5.1,3.1h0l-.2-.2h0Z"/>
      </g>
      <g id="g20221">
        <circle id="circle20171" class="st2" cx="63.5" cy="59.1" r="18.3"/>
        <path id="path20201" class="st5" d="M54.9,50.7c-.3.2-.7,1,0,1.4l2.7,4.3c0,.3,0,1-.3,1.4l-4.3,2.7c-.7.3-.9,1-.7,1.4l3.1,5.1c0,.3,1,.7,1.4,0l3.9-2.4c.7.3,1.4.7,2.2.7l2.2,3.9c.3.7,1,.9,1.4.7l5.1-3.1c.3-.2.7-1,0-1.4l-2-3.4c.3-.9.7-1.9.7-2.9l3.4-2c.7-.3.9-1,.7-1.4l-3.1-5.1c0-.3-1-.7-1.4,0l-3.9,2.4c-.7-.2-1.2-.3-2-.3l-2.4-4.1c-.3-.7-1-.9-1.4-.7l-5.1,3.1h0l-.2-.2h0Z"/>
      </g>
      <g id="g20301">
        <circle id="circle20241" class="st3" cx="453.4" cy="59.2" r="18.3" transform="translate(291.5 486.8) rotate(-76.7)"/>
        <path id="path20281" class="st5" d="M444.7,50.7c-.3.2-.7,1,0,1.4l2.7,4.3c0,.3-.2,1-.3,1.4l-4.3,2.7c-.7.3-.9,1-.7,1.4l3.1,5.1c.2.3,1,.7,1.4,0l3.9-2.4c.7.3,1.4.7,2.2.7l2.2,3.9c.3.7,1,.9,1.4.7l5.1-3.1c.3-.2.7-1,0-1.4l-2-3.4c.3-.9.7-1.9.7-2.9l3.4-2c.7-.3.9-1,.7-1.4l-3.1-5.1c-.2-.3-1-.7-1.4,0l-3.9,2.4c-.7-.2-1.2-.3-2-.3l-2.4-4.1c-.3-.7-1-.9-1.4-.7l-5.1,3.1h0l-.2-.2h0Z"/>
      </g>
    </g>
    <circle id="circle16671" class="st4" cx="257.1" cy="256.1" r="239.4"/>
    <circle id="circle16691" class="st8" cx="253.7" cy="256.1" r="220.4"/>
    <circle id="circle16711" class="st0" cx="253.7" cy="256.1" r="165.8"/>
  </g>
  <path id="rudder" class="st14" d="M230,162.1c15.8-28.3,38.7-46.1,64.1-46.1,47.7,0,86.4,62.7,86.4,140.1s-38.7,140.1-86.4,140.1-47.8-17.4-63.6-45.3"/>
  <path id="rudder1" class="st13" d="M207.6,256.1"/>
  <path id="sub" class="st15" d="M140.8,139.5s239,52.2,239,116.7-239,116.7-239,116.7"/>
  <g id="Scale" class="st18">
    <g class="st18">
      <text class="st19" transform="translate(126.4 360.5)"><tspan x="0" y="0">100%</tspan></text>
      <text class="st17" transform="translate(126.4 360.5)"><tspan x="0" y="0">100%</tspan></text>
    </g>
  </g>
  <path id="elevator-shape" class="st16" d="M360.3,260c0,9.6-65.4,17.4-146.1,17.4s-80.7-34.6,0-34.6,146.1,7.7,146.1,17.3h0Z"/>
  <g>
    <path d="M117,98.3l20.2-16.4,2.8,3.4-16.5,13.4,6.9,8.5,15.3-12.4,2.6,3.2-15.3,12.4,7.7,9.4,16.8-13.7,2.7,3.3-20.5,16.6-22.6-27.8Z"/>
    <path d="M147,75.6l4.2-2.4,15.3,27.6,15.7-8.7,2.1,3.7-20,11.1-17.4-31.3Z"/>
    <path d="M176.4,60.4l24.6-8.5,1.4,4.2-20.1,6.9,3.5,10.3,18.6-6.4,1.3,3.9-18.6,6.4,4,11.5,20.5-7,1.4,4-25,8.6-11.7-33.9Z"/>
    <path d="M215.7,48.8l14.4,28.8,5.9-31.7,5.4-.8-8,37.3-5.1.7-17.9-33.7,5.3-.7Z"/>
    <path d="M257.3,45.5l5.5.2,11.9,36.2-5.3-.2-3.3-10.8-14.2-.4-4.2,10.6h-5c0-.1,14.6-35.6,14.6-35.6ZM264.7,66.8l-5-16-6.3,15.7,11.2.3Z"/>
    <path d="M306.5,51.9l-.8,4.2-11.9-2.3-6,31-4.8-.9,6-31-11.9-2.3.8-4.2,28.5,5.5Z"/>
    <path d="M340.6,70.2c1,3.8.6,8-1.3,12.6-2,5-5,8.6-8.8,10.8-4.5,2.7-9.5,2.9-15,.6-5.1-2.1-8.4-5.4-10-10-1.3-4.3-.9-9,1.1-13.9,1.8-4.5,4.5-7.9,8-10.2,4.5-2.9,9.6-3.3,15.2-1,5.9,2.4,9.4,6,10.7,11ZM328,89.8c2.9-2.1,5.1-5,6.7-8.7,1.6-3.9,1.8-7.5.8-10.7s-3.4-5.5-6.9-7c-3.4-1.4-6.7-1.4-9.9.1-3.1,1.5-5.6,4.5-7.5,9.1-1.5,3.7-1.8,7.2-1,10.4s3.3,5.8,7.5,7.5c4,1.6,7.4,1.4,10.3-.8Z"/>
    <path d="M356.5,73.1l13.4,9.2c2.2,1.5,3.8,3.1,4.8,4.7,1.9,3.1,1.6,6.4-.7,9.8-1.2,1.8-2.6,3-4.1,3.6-1.5.6-3.2.8-4.9.6.8,1.3,1.3,2.5,1.3,3.6,0,1.2-.5,2.6-1.6,4.4l-2.6,4.1c-.7,1.2-1.2,2.1-1.4,2.7-.4,1.1-.4,2,0,2.7l-.5.7-4.9-3.4c0-.3.2-.7.4-1.2.2-.5.7-1.3,1.4-2.5l3.1-5.1c1.2-2,1.4-3.8.6-5.3-.5-.9-1.5-1.9-3.1-2.9l-8.9-6.1-8.7,12.7-4-2.8,20.3-29.6ZM360.2,95.5c1.8,1.3,3.5,1.9,5.1,1.9s3-1,4.4-3c1.4-2.1,1.7-4.1.7-5.8-.5-.9-1.4-1.9-2.8-2.8l-9.5-6.5-6.9,10.1,9,6.2Z"/>
  </g>
<circle id="reflection" class="st20" cx="253.7" cy="256.3" r="219.9"/>
  

<script type="text/javascript">
// // this is to make javascript work in the SVG, leave it alone
    function updateSVG(instrumentValue){
    // ========================================
    // STUDENT EDIT ZONE
    // This section controls how the instrument displays
    // ========================================
    /**
     * Updates the elevator shape display
     * - The elevator-shape element rotates to show elevator control position
     * - -100 = -30 degrees rotation (rotated counter-clockwise), RED color
     * - 0 = 0 degrees rotation (neutral position), BLACK color
     * - +100 = +30 degrees rotation (rotated clockwise), GREEN color
     * - Color interpolates proportionally between these values
     */
      // Calculate rotation angle
      // Formula: (value / 100) * 30 to map -100 to +100 to -30 to +30 degrees
      const angle = (instrumentValue / 100) * 30 *-1;

      // Get the elevator-shape element
      const elevatorShape = document.getElementById('elevator-shape');
      if (!elevatorShape) {
        console.log('Cannot find elevator-shape element to animate');
        return;
      }

      // Calculate color based on value
      // Normalize value from -100 to +100 into 0 to 1 range
      const normalized = (instrumentValue + 100) / 200;

      let r, g, b;
      if (normalized &lt;= 0.5) {
        // From -100 (red) to 0 (black): interpolate red to black
        // At -100 (normalized=0): red (255, 0, 0)
        // At 0 (normalized=0.5): black (0, 0, 0)
        const t = normalized * 2; // 0 to 1 within this range
        r = Math.round(255 * (1 - t));
        g = 0;
        b = 0;
      } else {
        // From 0 (black) to +100 (green): interpolate black to green
        // At 0 (normalized=0.5): black (0, 0, 0)
        // At +100 (normalized=1): green (22, 236, 0)
        const t = (normalized - 0.5) * 2; // 0 to 1 within this range
        r = 0;
        g = Math.round(22 + (236 - 22) * t);
        b = 0;
      }

      const color = `rgb(${r}, ${g}, ${b})`;
      elevatorShape.style.fill = color;

      // Center point of the elevator-shape for rotation
      // The shape is centered around x=256, y=366
      const centerX = 180;
      const centerY = 280;

      // Rotate the elevator-shape around its center point
      elevatorShape.setAttribute('transform', `rotate(${angle}, ${centerX}, ${centerY})`);

// Get the Scale text element and update its content
const scaleText = document.querySelector('#Scale text tspan');
if (scaleText) {
  scaleText.textContent = `${instrumentValue}%`;
}

    // ========================================
    // END STUDENT EDIT ZONE
    // ========================================
    }

    setInterval(() =&gt; { // do this repeatedly

    // Check localStorage for updates
      const thisSVGfilename = window.location.pathname;
    // this SVG expects a localStorage with the same name as its file
      const localStorageName =  thisSVGfilename.substring(thisSVGfilename.lastIndexOf('/') + 1, thisSVGfilename.lastIndexOf('.'));
      let instrumentValue = localStorage.getItem(localStorageName);

    if (instrumentValue !== null) {
      // Make sure value is between -100 and +100
      instrumentValue = Math.max(-100, Math.min(100, instrumentValue));

    } else {
    // no localStorage, so make up a number, so it swings back and forth
    // Initialize static variables if they don't exist
    if (typeof window.testValue === 'undefined') {
      window.testValue = -100;
      window.testDirection = 1; // 1 for increasing, -1 for decreasing
    }

    // Update the test value
    window.testValue += window.testDirection * 2; // increment by 2 each time

    // Reverse direction at boundaries
    if (window.testValue &gt;= 100) {
      window.testValue = 100;
      window.testDirection = -1;
    } else if (window.testValue &lt;= -100) {
      window.testValue = -100;
      window.testDirection = 1;
    }

    instrumentValue = window.testValue;
    console.log('no local storage "'+localStorageName+'", using test value:', instrumentValue);

     }

    updateSVG(instrumentValue)

    }, 50);  //end of setInterval code.  50 is 50 milliseconds or 20 times per second.

  // // this is to make javascript work in the SVG, leave it alone
  </script></svg>