<?xml version="1.0" encoding="UTF-8"?>
<svg id="compass" xmlns="http://www.w3.org/2000/svg" xmlns:xlink="http://www.w3.org/1999/xlink" xmlns:svg="http://www.w3.org/2000/svg" xmlns:sodipodi="http://sodipodi.sourceforge.net/DTD/sodipodi-0.dtd" xmlns:rdf="http://www.w3.org/1999/02/22-rdf-syntax-ns#" xmlns:inkscape="http://www.inkscape.org/namespaces/inkscape" xmlns:dc="http://purl.org/dc/elements/1.1/" xmlns:cc="http://creativecommons.org/ns#" version="1.1" viewBox="0 0 300 300">
  <!-- Generator: Adobe Illustrator 30.0.0, SVG Export Plug-In . SVG Version: 2.1.1 Build 123)  -->
  <defs>
    <style>
      .st0, .st1, .st2 {
        fill: #1a1a1a;
      }

      .st0, .st3, .st4, .st5 {
        stroke-width: .1px;
      }

      .st0, .st6, .st2 {
        stroke: #000;
        stroke-miterlimit: 11.3;
      }

      .st1, .st3 {
        stroke: #666;
      }

      .st1, .st3, .st7, .st8, .st9, .st4, .st5 {
        stroke-miterlimit: 6.2;
      }

      .st1, .st6, .st7, .st2 {
        stroke-width: .2px;
      }

      .st3, .st9, .st4, .st5 {
        fill-rule: evenodd;
      }

      .st6 {
        fill: #333;
      }

      .st6, .st10 {
        display: none;
      }

      .st7, .st5 {
        stroke: gray;
      }

      .st8 {
        stroke: blue;
        stroke-width: 1.6px;
      }

      .st9 {
        stroke: url(#linear-gradient);
        stroke-width: 2px;
      }

      .st4 {
        stroke: #999;
      }

      .st10 {
        fill: url(#radial-gradient);
      }
    </style>
    <linearGradient id="linear-gradient" x1="21.7" y1="739.3" x2="279" y2="996.7" gradientTransform="translate(0 -718)" gradientUnits="userSpaceOnUse">
      <stop offset="0" stop-color="#686868"/>
      <stop offset="1" stop-color="#000"/>
    </linearGradient>
    <radialGradient id="radial-gradient" cx="-2418.5" cy="-642.3" fx="-2418.5" fy="-642.3" r="85.5" gradientTransform="translate(3588.1 5624.6) rotate(42) scale(2.6 2.7)" gradientUnits="userSpaceOnUse">
      <stop offset="0" stop-color="#f9f9f9" stop-opacity=".5"/>
      <stop offset=".5" stop-color="#e6e6e6" stop-opacity=".3"/>
      <stop offset="1" stop-color="#000" stop-opacity="0"/>
    </radialGradient>
  </defs>
  <g id="frame">
    <path id="bezel" class="st9" d="M18.6,26.8c1.1-2.5,4.6-5.9,8-7.2L74.8,1h148.9l51.8,18.5c3.1,1.3,5.4,4.4,6.6,7.6l16.4,48.6v148.7l-17.3,49.4c-2.4,4.3-3.6,5.2-8.3,7.6,0,0-26.5,14-49.2,17.4H74.9c-15.7.4-48.4-16.7-48.4-16.7-3.1-1.6-6.7-5.9-7.8-9.2,0,0-18.3-37.8-18.3-48.4V75.8L18.7,26.9h-.1Z" inkscape:connector-curvature="0" sodipodi:nodetypes="ccccccccccccccccc"/>
    <g id="g16431">
      <circle id="circle16391" class="st7" cx="36.3" cy="267.1" r="10.7"/>
      <path id="path16411" class="st5" d="M31.3,262.2c-.2,0-.4.6,0,.8l1.6,2.5c0,.2,0,.6-.2.8l-2.5,1.6c-.4.2-.5.6-.4.8l1.8,3c0,.2.6.4.8,0l2.3-1.4c.4.2.8.4,1.3.4l1.3,2.3c.2.4.6.5.8.4l3-1.8c.2,0,.4-.6,0-.8l-1.2-2c.2-.5.4-1.1.4-1.7l2-1.2c.4-.2.5-.6.4-.8l-1.8-3c0-.2-.6-.4-.8,0l-2.3,1.4c-.4,0-.7-.2-1.2-.2l-1.4-2.4c-.2-.4-.6-.5-.8-.4l-3,1.8h0Z" inkscape:connector-curvature="0"/>
    </g>
    <g id="g16501">
      <circle id="circle16451" class="st7" cx="264.6" cy="267.1" r="10.7"/>
      <path id="path16481" class="st5" d="M259.5,262.2c-.2,0-.4.6,0,.8l1.6,2.5c0,.2-.1.6-.2.8l-2.5,1.6c-.4.2-.5.6-.4.8l1.8,3c.1.2.6.4.8,0l2.3-1.4c.4.2.8.4,1.3.4l1.3,2.3c.2.4.6.5.8.4l3-1.8c.2,0,.4-.6,0-.8l-1.2-2c.2-.5.4-1.1.4-1.7l2-1.2c.4-.2.5-.6.4-.8l-1.8-3c-.1-.2-.6-.4-.8,0l-2.3,1.4c-.4,0-.7-.2-1.2-.2l-1.4-2.4c-.2-.4-.6-.5-.8-.4l-3,1.8h0Z" inkscape:connector-curvature="0"/>
    </g>
    <g id="g16571">
      <circle id="circle16521" class="st7" cx="36.3" cy="34.5" r="10.7"/>
      <path id="path16551" class="st4" d="M31.3,29.6c-.2.1-.4.6,0,.8l1.6,2.5c0,.2,0,.6-.2.8l-2.5,1.6c-.4.2-.5.6-.4.8l1.8,3c0,.2.6.4.8,0l2.3-1.4c.4.2.8.4,1.3.4l1.3,2.3c.2.4.6.5.8.4l3-1.8c.2,0,.4-.6,0-.8l-1.2-2c.2-.5.4-1.1.4-1.7l2-1.2c.4-.2.5-.6.4-.8l-1.8-3c0-.2-.6-.4-.8,0l-2.3,1.4c-.4-.1-.7-.2-1.2-.2l-1.4-2.4c-.2-.4-.6-.5-.8-.4l-3,1.8h0Z" inkscape:connector-curvature="0"/>
    </g>
    <g id="g16631">
      <circle id="circle16591" class="st7" cx="264.6" cy="34.5" r="10.7" transform="translate(170.2 284.1) rotate(-76.7)"/>
      <path id="path16611" class="st5" d="M259.5,29.6c-.2.1-.4.6,0,.8l1.6,2.5c0,.2-.1.6-.2.8l-2.5,1.6c-.4.2-.5.6-.4.8l1.8,3c.1.2.6.4.8,0l2.3-1.4c.4.2.8.4,1.3.4l1.3,2.3c.2.4.6.5.8.4l3-1.8c.2,0,.4-.6,0-.8l-1.2-2c.2-.5.4-1.1.4-1.7l2-1.2c.4-.2.5-.6.4-.8l-1.8-3c-.1-.2-.6-.4-.8,0l-2.3,1.4c-.4-.1-.7-.2-1.2-.2l-1.4-2.4c-.2-.4-.6-.5-.8-.4l-3,1.8h0Z" inkscape:connector-curvature="0"/>
    </g>
    <g id="screws">
      <g id="g20091">
        <circle id="circle20051" class="st1" cx="36.4" cy="267.3" r="10.7"/>
        <path id="path20071" class="st3" d="M31.4,262.2c-.2,0-.4.6,0,.8l1.6,2.5c0,.2,0,.6-.2.8l-2.5,1.6c-.4.2-.5.6-.4.8l1.8,3c0,.2.6.4.8,0l2.3-1.4c.4.2.8.4,1.3.4l1.3,2.3c.2.4.6.5.8.4l3-1.8c.2,0,.4-.6,0-.8l-1.2-2c.2-.5.4-1.1.4-1.7l2-1.2c.4-.2.5-.6.4-.8l-1.8-3c0-.2-.6-.4-.8,0l-2.3,1.4c-.4,0-.7-.2-1.2-.2l-1.4-2.4c-.2-.4-.6-.5-.8-.4l-3,1.8h-.1Z" inkscape:connector-curvature="0"/>
      </g>
      <g id="g20151">
        <circle id="circle20111" class="st1" cx="264.7" cy="267.3" r="10.7"/>
        <path id="path20131" class="st3" d="M259.7,262.2c-.2,0-.4.6,0,.8l1.6,2.5c0,.2-.1.6-.2.8l-2.5,1.6c-.4.2-.5.6-.4.8l1.8,3c.1.2.6.4.8,0l2.3-1.4c.4.2.8.4,1.3.4l1.3,2.3c.2.4.6.5.8.4l3-1.8c.2,0,.4-.6,0-.8l-1.2-2c.2-.5.4-1.1.4-1.7l2-1.2c.4-.2.5-.6.4-.8l-1.8-3c-.1-.2-.6-.4-.8,0l-2.3,1.4c-.4,0-.7-.2-1.2-.2l-1.4-2.4c-.2-.4-.6-.5-.8-.4l-3,1.8h0Z" inkscape:connector-curvature="0"/>
      </g>
      <g id="g20221">
        <circle id="circle20171" class="st1" cx="36.4" cy="34.5" r="10.7"/>
        <path id="path20201" class="st3" d="M31.4,29.6c-.2.1-.4.6,0,.8l1.6,2.5c0,.2,0,.6-.2.8l-2.5,1.6c-.4.2-.5.6-.4.8l1.8,3c0,.2.6.4.8,0l2.3-1.4c.4.2.8.4,1.3.4l1.3,2.3c.2.4.6.5.8.4l3-1.8c.2,0,.4-.6,0-.8l-1.2-2c.2-.5.4-1.1.4-1.7l2-1.2c.4-.2.5-.6.4-.8l-1.8-3c0-.2-.6-.4-.8,0l-2.3,1.4c-.4-.1-.7-.2-1.2-.2l-1.4-2.4c-.2-.4-.6-.5-.8-.4l-3,1.8h-.1Z" inkscape:connector-curvature="0"/>
      </g>
      <g id="g20301">
        <circle id="circle20241" class="st1" cx="264.7" cy="34.5" r="10.7" transform="translate(170.3 284.2) rotate(-76.7)"/>
        <path id="path20281" class="st3" d="M259.7,29.6c-.2.1-.4.6,0,.8l1.6,2.5c0,.2-.1.6-.2.8l-2.5,1.6c-.4.2-.5.6-.4.8l1.8,3c.1.2.6.4.8,0l2.3-1.4c.4.2.8.4,1.3.4l1.3,2.3c.2.4.6.5.8.4l3-1.8c.2,0,.4-.6,0-.8l-1.2-2c.2-.5.4-1.1.4-1.7l2-1.2c.4-.2.5-.6.4-.8l-1.8-3c-.1-.2-.6-.4-.8,0l-2.3,1.4c-.4-.1-.7-.2-1.2-.2l-1.4-2.4c-.2-.4-.6-.5-.8-.4l-3,1.8h0Z" inkscape:connector-curvature="0"/>
      </g>
    </g>
    <circle id="circle16671" class="st2" cx="147.8" cy="149.9" r="140.2"/>
    <circle id="circle16691" class="st6" cx="147.8" cy="149.9" r="129.1"/>
    <circle id="circle16711" class="st0" cx="147.8" cy="149.9" r="97.1"/>
  </g>
  <path id="vehicle" class="st8" d="M52.7,164.7l76.2-49.1c3.4-33.1,20.8-72.9,20.8-72.9,0,0,16.3,36.2,21.2,72.9l76.2,49.1c13.5,34.5-63.6,72.7-63.6,72.7,3.4,1.1,7.8,30.6-3.9,21.2l-24.5-14.4-5.6,7.5-5-7.2-23.5,13.3c-13.5,6-7.8-18-4.7-20.2,0,0-74.5-27.4-63.3-72.7h0l-.2-.2Z" inkscape:connector-curvature="0" sodipodi:nodetypes="ccccccccccccccccccc"/>
  <circle id="reflection" class="st10" cx="147.8" cy="150" r="128.8"/>
</svg>