<?xml version="1.0" encoding="UTF-8"?><svg xmlns="http://www.w3.org/2000/svg" xmlns:xlink="http://www.w3.org/1999/xlink" xmlns:svg="http://www.w3.org/2000/svg" xmlns:sodipodi="http://sodipodi.sourceforge.net/DTD/sodipodi-0.dtd" xmlns:rdf="http://www.w3.org/1999/02/22-rdf-syntax-ns#" xmlns:inkscape="http://www.inkscape.org/namespaces/inkscape" xmlns:dc="http://purl.org/dc/elements/1.1/" xmlns:cc="http://creativecommons.org/ns#" id="rudder" version="1.1" viewBox="0 0 300 300">
  <!-- Generator: Adobe Illustrator 30.0.0, SVG Export Plug-In . SVG Version: 2.1.1 Build 123)  -->
  <defs>
    <style>
      .st0, .st1, .st2, .st3 {
        fill: #1a1a1a;
      }

      .st0, .st4, .st5, .st6 {
        stroke-width: .1px;
      }

      .st0, .st7, .st3 {
        stroke: #000;
        stroke-miterlimit: 11.3;
      }

      .st1, .st2, .st4 {
        stroke: #666;
      }

      .st1, .st4, .st8, .st9, .st5, .st6 {
        stroke-miterlimit: 6.2;
      }

      .st1, .st7, .st8, .st3 {
        stroke-width: .2px;
      }

      .st2, .st10 {
        stroke-miterlimit: 6.2;
        stroke-width: .2px;
      }

      .st11 {
        stroke: url(#linear-gradient2);
      }

      .st11, .st12 {
        fill: none;
      }

      .st11, .st12, .st13 {
        stroke-miterlimit: 10;
      }

      .st11, .st12, .st9 {
        stroke-width: 2px;
      }

      .st12 {
        stroke: url(#linear-gradient1);
      }

      .st14 {
        fill: url(#radial-gradient);
      }

      .st15, .st16 {
        isolation: isolate;
      }

      .st4, .st9, .st5, .st6 {
        fill-rule: evenodd;
      }

      .st7 {
        fill: #333;
      }

      .st13 {
        fill: #16ec00;
        stroke: #231f20;
      }

      .st16 {
        fill: #fff;
        font-family: Helvetica, Helvetica;
        font-size: 70px;
      }

      .st10, .st8, .st6 {
        stroke: gray;
      }

      .st9 {
        stroke: url(#linear-gradient);
      }

      .st5 {
        stroke: #999;
      }
    </style>
    <linearGradient id="linear-gradient" x1="21.7" y1="-437.3" x2="279" y2="-694.7" gradientTransform="translate(0 -416) scale(1 -1)" gradientUnits="userSpaceOnUse">
      <stop offset="0" stop-color="#686868"/>
      <stop offset="1" stop-color="#000"/>
    </linearGradient>
    <linearGradient id="linear-gradient1" x1="-342.2" y1="927.1" x2="-427.9" y2="927.1" gradientTransform="translate(-779 555) rotate(90) scale(1 -1)" gradientUnits="userSpaceOnUse">
      <stop offset="0" stop-color="#000"/>
      <stop offset="1" stop-color="#646464"/>
    </linearGradient>
    <linearGradient id="linear-gradient2" x1="-342.6" y1="926.9" x2="-476.9" y2="926.9" gradientTransform="translate(-779 555) rotate(90) scale(1 -1)" gradientUnits="userSpaceOnUse">
      <stop offset="0" stop-color="#000"/>
      <stop offset="1" stop-color="#646464"/>
    </linearGradient>
    <radialGradient id="radial-gradient" cx="-3078.4" cy="1636.5" fx="-3078.4" fy="1636.5" r="85.5" gradientTransform="translate(3066.9 8767.4) rotate(42) scale(2.6 -2.7)" gradientUnits="userSpaceOnUse">
      <stop offset="0" stop-color="#f9f9f9" stop-opacity=".5"/>
      <stop offset=".5" stop-color="#e6e6e6" stop-opacity=".3"/>
      <stop offset="1" stop-color="#000" stop-opacity="0"/>
    </radialGradient>
  </defs>
  <g id="frame">
    <path id="bezel" class="st9" d="M18.6,26.8c1.1-2.5,4.6-5.9,8-7.2L74.8,1h148.9l51.8,18.5c3.1,1.3,5.4,4.4,6.6,7.6l16.4,48.6v148.7l-17.3,49.4c-2.4,4.3-3.6,5.2-8.3,7.6,0,0-26.5,14-49.2,17.4H74.9c-15.7.4-48.4-16.7-48.4-16.7-3.1-1.6-6.7-5.9-7.8-9.2,0,0-18.3-37.8-18.3-48.4V75.8L18.7,26.9h-.1Z" inkscape:connector-curvature="0" sodipodi:nodetypes="ccccccccccccccccc"/>
    <g id="g16431">
      <circle id="circle16391" class="st8" cx="36.3" cy="267.1" r="10.7"/>
      <path id="path16411" class="st6" d="M31.3,262.2c-.2,0-.4.6,0,.8l1.6,2.5c0,.2,0,.6-.2.8l-2.5,1.6c-.4.2-.5.6-.4.8l1.8,3c0,.2.6.4.8,0l2.3-1.4c.4.2.8.4,1.3.4l1.3,2.3c.2.4.6.5.8.4l3-1.8c.2,0,.4-.6,0-.8l-1.2-2c.2-.5.4-1.1.4-1.7l2-1.2c.4-.2.5-.6.4-.8l-1.8-3c0-.2-.6-.4-.8,0l-2.3,1.4c-.4,0-.7-.2-1.2-.2l-1.4-2.4c-.2-.4-.6-.5-.8-.4l-3,1.8h0Z" inkscape:connector-curvature="0"/>
    </g>
    <g id="g16501">
      <circle id="circle16451" class="st8" cx="264.6" cy="267.1" r="10.7"/>
      <path id="path16481" class="st6" d="M259.5,262.2c-.2,0-.4.6,0,.8l1.6,2.5c0,.2-.1.6-.2.8l-2.5,1.6c-.4.2-.5.6-.4.8l1.8,3c.1.2.6.4.8,0l2.3-1.4c.4.2.8.4,1.3.4l1.3,2.3c.2.4.6.5.8.4l3-1.8c.2,0,.4-.6,0-.8l-1.2-2c.2-.5.4-1.1.4-1.7l2-1.2c.4-.2.5-.6.4-.8l-1.8-3c-.1-.2-.6-.4-.8,0l-2.3,1.4c-.4,0-.7-.2-1.2-.2l-1.4-2.4c-.2-.4-.6-.5-.8-.4l-3,1.8h0Z" inkscape:connector-curvature="0"/>
    </g>
    <g id="g16571">
      <circle id="circle16521" class="st8" cx="36.3" cy="34.5" r="10.7"/>
      <path id="path16551" class="st5" d="M31.3,29.6c-.2.1-.4.6,0,.8l1.6,2.5c0,.2,0,.6-.2.8l-2.5,1.6c-.4.2-.5.6-.4.8l1.8,3c0,.2.6.4.8,0l2.3-1.4c.4.2.8.4,1.3.4l1.3,2.3c.2.4.6.5.8.4l3-1.8c.2,0,.4-.6,0-.8l-1.2-2c.2-.5.4-1.1.4-1.7l2-1.2c.4-.2.5-.6.4-.8l-1.8-3c0-.2-.6-.4-.8,0l-2.3,1.4c-.4-.1-.7-.2-1.2-.2l-1.4-2.4c-.2-.4-.6-.5-.8-.4l-3,1.8h0Z" inkscape:connector-curvature="0"/>
    </g>
    <g id="g16631">
      <circle id="circle16591" class="st10" cx="264.6" cy="34.5" r="10.7" transform="translate(115.3 255.8) rotate(-63.4)"/>
      <path id="path16611" class="st6" d="M259.5,29.6c-.2.1-.4.6,0,.8l1.6,2.5c0,.2-.1.6-.2.8l-2.5,1.6c-.4.2-.5.6-.4.8l1.8,3c.1.2.6.4.8,0l2.3-1.4c.4.2.8.4,1.3.4l1.3,2.3c.2.4.6.5.8.4l3-1.8c.2,0,.4-.6,0-.8l-1.2-2c.2-.5.4-1.1.4-1.7l2-1.2c.4-.2.5-.6.4-.8l-1.8-3c-.1-.2-.6-.4-.8,0l-2.3,1.4c-.4-.1-.7-.2-1.2-.2l-1.4-2.4c-.2-.4-.6-.5-.8-.4l-3,1.8h0Z" inkscape:connector-curvature="0"/>
    </g>
    <g id="screws">
      <g id="g20091">
        <circle id="circle20051" class="st1" cx="36.4" cy="267.3" r="10.7"/>
        <path id="path20071" class="st4" d="M31.4,262.2c-.2,0-.4.6,0,.8l1.6,2.5c0,.2,0,.6-.2.8l-2.5,1.6c-.4.2-.5.6-.4.8l1.8,3c0,.2.6.4.8,0l2.3-1.4c.4.2.8.4,1.3.4l1.3,2.3c.2.4.6.5.8.4l3-1.8c.2,0,.4-.6,0-.8l-1.2-2c.2-.5.4-1.1.4-1.7l2-1.2c.4-.2.5-.6.4-.8l-1.8-3c0-.2-.6-.4-.8,0l-2.3,1.4c-.4,0-.7-.2-1.2-.2l-1.4-2.4c-.2-.4-.6-.5-.8-.4l-3,1.8h-.1Z" inkscape:connector-curvature="0"/>
      </g>
      <g id="g20151">
        <circle id="circle20111" class="st1" cx="264.7" cy="267.3" r="10.7"/>
        <path id="path20131" class="st4" d="M259.7,262.2c-.2,0-.4.6,0,.8l1.6,2.5c0,.2-.1.6-.2.8l-2.5,1.6c-.4.2-.5.6-.4.8l1.8,3c.1.2.6.4.8,0l2.3-1.4c.4.2.8.4,1.3.4l1.3,2.3c.2.4.6.5.8.4l3-1.8c.2,0,.4-.6,0-.8l-1.2-2c.2-.5.4-1.1.4-1.7l2-1.2c.4-.2.5-.6.4-.8l-1.8-3c-.1-.2-.6-.4-.8,0l-2.3,1.4c-.4,0-.7-.2-1.2-.2l-1.4-2.4c-.2-.4-.6-.5-.8-.4l-3,1.8h0Z" inkscape:connector-curvature="0"/>
      </g>
      <g id="g20221">
        <circle id="circle20171" class="st1" cx="36.4" cy="34.5" r="10.7"/>
        <path id="path20201" class="st4" d="M31.4,29.6c-.2.1-.4.6,0,.8l1.6,2.5c0,.2,0,.6-.2.8l-2.5,1.6c-.4.2-.5.6-.4.8l1.8,3c0,.2.6.4.8,0l2.3-1.4c.4.2.8.4,1.3.4l1.3,2.3c.2.4.6.5.8.4l3-1.8c.2,0,.4-.6,0-.8l-1.2-2c.2-.5.4-1.1.4-1.7l2-1.2c.4-.2.5-.6.4-.8l-1.8-3c0-.2-.6-.4-.8,0l-2.3,1.4c-.4-.1-.7-.2-1.2-.2l-1.4-2.4c-.2-.4-.6-.5-.8-.4l-3,1.8h-.1Z" inkscape:connector-curvature="0"/>
      </g>
      <g id="g20301">
        <circle id="circle20241" class="st2" cx="264.8" cy="34.5" r="10.7" transform="translate(115.4 255.9) rotate(-63.4)"/>
        <path id="path20281" class="st4" d="M259.7,29.6c-.2.1-.4.6,0,.8l1.6,2.5c0,.2-.1.6-.2.8l-2.5,1.6c-.4.2-.5.6-.4.8l1.8,3c.1.2.6.4.8,0l2.3-1.4c.4.2.8.4,1.3.4l1.3,2.3c.2.4.6.5.8.4l3-1.8c.2,0,.4-.6,0-.8l-1.2-2c.2-.5.4-1.1.4-1.7l2-1.2c.4-.2.5-.6.4-.8l-1.8-3c-.1-.2-.6-.4-.8,0l-2.3,1.4c-.4-.1-.7-.2-1.2-.2l-1.4-2.4c-.2-.4-.6-.5-.8-.4l-3,1.8h0Z" inkscape:connector-curvature="0"/>
      </g>
    </g>
    <circle id="circle16671" class="st3" cx="149.8" cy="149.9" r="140.2"/>
    <circle id="circle16691" class="st7" cx="147.8" cy="149.9" r="129.1"/>
    <circle id="circle16711" class="st0" cx="147.8" cy="149.9" r="97.1"/>
  </g>
  <path id="elevator" class="st12" d="M200.4,128c15.8,8.8,25.7,21.6,25.7,35.7,0,26.6-34.9,48.1-78,48.1s-78-21.6-78-48.1,9.7-26.6,25.2-35.4"/>
  <path id="sub" class="st11" d="M212.9,78.3s-29.1,133.1-65,133.1S82.9,78.3,82.9,78.3"/>
  <path id="rudder-shape" class="st13" d="M147.8,243.3c-4.1,0-7.5-28.2-7.5-63.1s14.9-34.8,14.9,0-3.3,63.1-7.5,63.1h.1Z"/>
  <g id="Scale" class="st15">
    <g class="st15">
      <g class="st15">
        <text class="st16" transform="translate(58.9 146.1)"><tspan x="0" y="0">100%</tspan></text>
      </g>
    </g>
  </g>
  <g>
    <path d="M89.6,57.4l5.1,9-1.9,1-11.3-19.7,7.7-4.4c2.2-1.2,4.1-1.8,5.7-1.6,1.6.2,2.9,1.2,4,3,.7,1.2,1,2.4.9,3.4,0,1-.6,2.1-1.4,3.3.7-.1,1.3-.1,1.9,0,.5.2,1,.5,1.5.9s.8.9,1.2,1.4c.4.5.7,1,1,1.5.4.7.8,1.3,1.2,1.8.3.5.6.8.9,1.1.2.3.5.5.6.6.2.1.4.2.6.2v.2c0,0-1.9,1.2-1.9,1.2-.4-.2-.8-.6-1.2-1.1-.4-.5-.8-1.1-1.2-1.7-.4-.6-.8-1.2-1.2-1.8s-.7-1.1-1-1.4c-.4-.5-.8-.8-1.3-1-.4-.2-.9-.3-1.3-.2-.4,0-.9.1-1.4.3-.5.2-.9.4-1.4.7l-5.9,3.3ZM94.5,52.5c.7-.4,1.3-.8,1.8-1.3.5-.5.9-1,1.2-1.6.3-.6.4-1.2.3-1.8,0-.6-.2-1.3-.6-2-.4-.7-.9-1.3-1.4-1.6-.5-.3-1.1-.5-1.7-.5-.6,0-1.2,0-1.9.3s-1.3.5-1.9.9l-5.9,3.4,4.3,7.6,5.8-3.3Z"/>
    <path d="M103.6,36.1l2.1-.6,4,12.9c.8,2.7,2,4.5,3.3,5.4s3.2,1,5.4.3c1.2-.4,2.1-.8,2.8-1.4.7-.6,1.2-1.2,1.5-2,.3-.8.4-1.7.3-2.7,0-1-.3-2.2-.7-3.5l-4-12.9,2.1-.6,4.2,13.5c.9,2.8.9,5.2,0,7.2-.9,1.9-2.8,3.3-5.6,4.2-2.8.9-5.2.8-7.1-.3s-3.2-3-4.1-5.8l-4.2-13.5Z"/>
    <path d="M131.2,51.8l-1.8-22.7,7.7-.6c.6,0,1.3,0,1.9-.1.6,0,1.2,0,1.8,0,.6,0,1.2.2,1.8.4.6.2,1.1.4,1.7.8.8.5,1.5,1.1,2,1.9.5.7,1,1.5,1.3,2.4.4.8.6,1.7.8,2.6s.3,1.7.4,2.5c0,.8,0,1.5,0,2.3,0,.8-.1,1.6-.3,2.3-.2.8-.4,1.5-.7,2.2-.3.7-.7,1.4-1.2,2-.5.6-1,1.1-1.6,1.6-.6.4-1.2.7-1.9,1-.7.3-1.4.4-2.1.6-.7.1-1.5.2-2.2.3l-7.7.6ZM133.2,49.8l5.1-.4c1,0,1.9-.2,2.7-.4.8-.2,1.7-.5,2.5-1.1.7-.4,1.3-1,1.7-1.7.4-.7.8-1.4,1-2.2s.4-1.6.4-2.5c0-.8,0-1.7,0-2.4,0-.8-.2-1.6-.4-2.5s-.4-1.6-.8-2.4c-.4-.7-.8-1.4-1.4-2-.6-.6-1.2-1.1-2.1-1.4-.7-.3-1.5-.5-2.4-.5-.9,0-1.9,0-2.8,0l-5.1.4,1.5,19Z"/>
    <path d="M152.8,50.5l3.2-22.5,7.7,1.1c.6,0,1.2.2,1.8.3.6.1,1.2.3,1.8.5s1.1.5,1.6.8c.5.3,1,.7,1.5,1.1.7.6,1.2,1.4,1.6,2.2.4.9.6,1.7.8,2.6.2.9.2,1.8.2,2.7,0,.9,0,1.7-.2,2.5s-.3,1.5-.5,2.3-.5,1.5-.8,2.2-.7,1.4-1.1,2c-.4.6-1,1.2-1.6,1.7-.6.5-1.2.9-1.9,1.2-.7.3-1.4.5-2.1.6-.7.1-1.4.1-2.2.1-.7,0-1.5,0-2.2-.2l-7.7-1.1ZM155.2,49l5.1.7c1,.1,1.9.2,2.7.2.9,0,1.8-.2,2.7-.5.8-.3,1.5-.7,2.1-1.3.6-.6,1.1-1.2,1.4-1.9s.7-1.5.9-2.3c.2-.8.4-1.6.5-2.4.1-.8.2-1.6.2-2.5s0-1.7-.3-2.5c-.2-.8-.5-1.6-.9-2.3-.4-.7-1-1.3-1.7-1.9-.6-.4-1.4-.8-2.3-1-.9-.2-1.8-.4-2.8-.6l-5.1-.7-2.7,18.9Z"/>
    <path d="M174.2,54.2l7.7-21.4,14.2,5.2-.6,1.7-12.2-4.4-2.8,7.7,11,4-.6,1.7-11-4-3.1,8.5,12.5,4.5-.6,1.7-14.5-5.3Z"/>
    <path d="M198.4,52.9l-5.4,8.8-1.8-1.1,11.8-19.4,7.6,4.6c2.1,1.3,3.5,2.7,4.2,4.2.6,1.5.4,3.1-.7,4.9-.7,1.2-1.6,2-2.5,2.5-.9.4-2.1.5-3.5.4.5.5.7,1.1.8,1.7,0,.6,0,1.2,0,1.7-.1.6-.3,1.2-.6,1.7-.3.6-.6,1.1-.9,1.6-.4.7-.8,1.4-1,1.9-.3.5-.4.9-.6,1.3-.1.3-.2.6-.2.9,0,.2,0,.4,0,.6v.2c0,0-2.1-1.2-2.1-1.2,0-.4.1-1,.4-1.6.3-.6.6-1.3.9-1.9.3-.7.7-1.3,1-1.9.3-.6.6-1.1.7-1.5.2-.6.3-1.1.2-1.6,0-.5-.2-.9-.4-1.2-.2-.4-.6-.7-1-1-.4-.3-.8-.6-1.3-.9l-5.8-3.5ZM205.1,54.9c.7.4,1.4.7,2,.9.7.2,1.3.3,1.9.2.6,0,1.2-.2,1.8-.6.5-.3,1-.8,1.4-1.5.4-.7.7-1.4.7-2,0-.6-.1-1.2-.4-1.7-.3-.5-.7-1-1.2-1.5s-1.1-.9-1.7-1.2l-5.8-3.5-4.5,7.5,5.7,3.5Z"/>
  </g>
  <circle id="reflection" class="st14" cx="147.8" cy="150" r="128.8"/>
<script type="text/javascript">
// // this is to make javascript work in the SVG, leave it alone
    function updateSVG(instrumentValue){
    // ========================================
    // STUDENT EDIT ZONE
    // This section controls how the instrument displays
    // ========================================
    /**
     * Updates the rudder shape display
     * - The rudder-shape element rotates to show rudder control position
     * - -100 = -30 degrees rotation (rotated counter-clockwise), RED color
     * - 0 = 0 degrees rotation (neutral position), BLACK color
     * - +100 = +30 degrees rotation (rotated clockwise), GREEN color
     * - Color interpolates proportionally between these values
     */
      // Calculate rotation angle
      // Formula: (value / 100) * 30 to map -100 to +100 to -30 to +30 degrees
      const angle = (instrumentValue / 100) * 30 *-1;

      // Get the rudder-shape element
      const rudderShape = document.getElementById('rudder-shape');
      if (!rudderShape) {
        console.log('Cannot find rudder-shape element to animate');
        return;
      }

      // Calculate color based on value
      // Normalize value from -100 to +100 into 0 to 1 range
      const normalized = (instrumentValue + 100) / 200;

      let r, g, b;
      if (normalized &lt;= 0.5) {
        // From -100 (red) to 0 (black): interpolate red to black
        // At -100 (normalized=0): red (255, 0, 0)
        // At 0 (normalized=0.5): black (0, 0, 0)
        const t = normalized * 2; // 0 to 1 within this range
        r = Math.round(255 * (1 - t));
        g = 0;
        b = 0;
      } else {
        // From 0 (black) to +100 (green): interpolate black to green
        // At 0 (normalized=0.5): black (0, 0, 0)
        // At +100 (normalized=1): green (22, 236, 0)
        const t = (normalized - 0.5) * 2; // 0 to 1 within this range
        r = 0;
        g = Math.round(22 + (236 - 22) * t);
        b = 0;
      }

      const color = `rgb(${r}, ${g}, ${b})`;
      rudderShape.style.fill = color;

      // Center point of the rudder-shape for rotation
      // The shape is centered around x=256, y=366
      const centerX = 150;
      const centerY = 140;

      // Rotate the rudder-shape around its center point
      rudderShape.setAttribute('transform', `rotate(${angle}, ${centerX}, ${centerY})`);

// Get the Scale text element and update its content
const scaleText = document.querySelector('#Scale text tspan');
if (scaleText) {
  scaleText.textContent = `${instrumentValue}%`;
}

    // ========================================
    // END STUDENT EDIT ZONE
    // ========================================
    }

    setInterval(() =&gt; { // do this repeatedly

    // Check localStorage for updates
      const thisSVGfilename = window.location.pathname;
    // this SVG expects a localStorage with the same name as its file
      const localStorageName =  thisSVGfilename.substring(thisSVGfilename.lastIndexOf('/') + 1, thisSVGfilename.lastIndexOf('.'));
      let instrumentValue = localStorage.getItem(localStorageName);

    if (instrumentValue !== null) {
      // Make sure value is between -100 and +100
      instrumentValue = Math.max(-100, Math.min(100, instrumentValue));

    } else {
    // no localStorage, so make up a number, so it swings back and forth
    // Initialize static variables if they don't exist
    if (typeof window.testValue === 'undefined') {
      window.testValue = -100;
      window.testDirection = 1; // 1 for increasing, -1 for decreasing
    }

    // Update the test value
    window.testValue += window.testDirection * 2; // increment by 2 each time

    // Reverse direction at boundaries
    if (window.testValue &gt;= 100) {
      window.testValue = 100;
      window.testDirection = -1;
    } else if (window.testValue &lt;= -100) {
      window.testValue = -100;
      window.testDirection = 1;
    }

    instrumentValue = window.testValue;
    console.log('no local storage "'+localStorageName+'", using test value:', instrumentValue);

     }

    updateSVG(instrumentValue)

    }, 50);  //end of setInterval code.  50 is 50 milliseconds or 20 times per second.

  // // this is to make javascript work in the SVG, leave it alone
  </script></svg>