<?xml version="1.0" encoding="UTF-8"?><svg xmlns="http://www.w3.org/2000/svg" xmlns:xlink="http://www.w3.org/1999/xlink" id="Vertical-thruster" version="1.1" viewBox="0 0 202 402">
  <!-- Generator: Adobe Illustrator 30.0.0, SVG Export Plug-In . SVG Version: 2.1.1 Build 123)  -->
  <defs>
    <style>
      .st0, .st1 {
        fill: none;
      }

      .st2 {
        mask: url(#mask);
      }

      .st3 {
        fill: url(#radial-gradient);
        stroke: url(#linear-gradient);
        stroke-width: 2px;
      }

      .st4 {
        fill: url(#linear-gradient2);
      }

      .st1 {
        stroke: #333;
        stroke-miterlimit: 10;
        filter: drop-shadow(2px 2px 1px rgb(0 0 0 / 0.4));
      }

      .st5 {
        fill: #c4c4c4;
      }

      .st6 {
        fill: #fff;
      }

      .st7 {
        fill: #2a2a2a;
      }

      .st8 {
        fill: url(#radial-gradient1);
        stroke: url(#linear-gradient1);
      }

      .st9 {
        fill: #333;
        display:none;
        filter: drop-shadow(2px 2px 1px rgb(0 0 0 / 0.4));
      }
    </style>
    <radialGradient id="radial-gradient" cx="105.4" cy="238.5" fx="105.4" fy="238.5" r="141" gradientTransform="translate(0 -141.4) scale(1 1.6)" gradientUnits="userSpaceOnUse">
      <stop offset=".4" stop-color="#666"/>
      <stop offset=".9" stop-color="#000"/>
    </radialGradient>
    <linearGradient id="linear-gradient" x1="-45.8" y1="54.2" x2="247.8" y2="347.8" gradientUnits="userSpaceOnUse">
      <stop offset="0" stop-color="#999"/>
      <stop offset="1" stop-color="#000"/>
    </linearGradient>
    <radialGradient id="radial-gradient1" cx="101" cy="197" fx="101" fy="197" r="122.8" gradientUnits="userSpaceOnUse">
      <stop offset=".4" stop-color="#333"/>
      <stop offset="1" stop-color="#000"/>
    </radialGradient>
    <linearGradient id="linear-gradient1" x1="-10.5" y1="85.5" x2="212.5" y2="308.5" gradientUnits="userSpaceOnUse">
      <stop offset=".4" stop-color="#aaa"/>
      <stop offset="1" stop-color="#000"/>
    </linearGradient>
    <mask id="mask" x="0" y="0" width="200" height="800" maskUnits="userSpaceOnUse">
      <g id="mask0_1_2">
        <g id="Group">
          <path id="Vector_5" class="st6" d="M143,63H59c-4.4,0-8,4.9-8,10.8v249.3c0,6,3.6,10.8,8,10.8h84c4.4,0,8-4.9,8-10.8V73.8c0-6-3.6-10.8-8-10.8Z"/>
        </g>
      </g>
    </mask>
    <linearGradient id="linear-gradient2" x1="100" y1="404" x2="100" y2="2" gradientTransform="translate(0 404) scale(1 -1)" gradientUnits="userSpaceOnUse">
      <stop offset="0" stop-color="#9f9f9f"/>
      <stop offset=".5" stop-color="#fff"/>
      <stop offset="1" stop-color="#000"/>
    </linearGradient>
  </defs>
  <g id="frame">
    <path id="Vector" class="st3" d="M187.7,1H14.3C7,1,1,7,1,14.3v373.3c0,7.4,6,13.3,13.3,13.3h173.3c7.4,0,13.3-6,13.3-13.3V14.3c0-7.4-6-13.3-13.3-13.3Z"/>
    <path id="Vector_2" class="st8" d="M161,38H41c-5.5,0-10,5.9-10,13.2v291.5c0,7.3,4.5,13.2,10,13.2h120c5.5,0,10-5.9,10-13.2V51.2c0-7.3-4.5-13.2-10-13.2Z"/>
    <g id="Vector_3">
      <path class="st7" d="M148,58H54c-4.4,0-8,4.7-8,10.6v256.8c0,5.8,3.6,10.6,8,10.6h94c4.4,0,8-4.7,8-10.6V68.6c0-5.8-3.6-10.6-8-10.6Z"/>
    </g>
    <path id="Vector_4" class="st0" d="M143,63H59c-4.4,0-8,4.9-8,10.8v249.3c0,6,3.6,10.8,8,10.8h84c4.4,0,8-4.9,8-10.8V73.8c0-6-3.6-10.8-8-10.8Z"/>
    <g id="Mask_group">
      <g class="st2">
        <g id="Group_2">
          <path id="scaleBackground" class="st4" d="M100,0H0v800h200V0h-100Z"/>
        </g>
      </g>
    </g>
    <line class="st1" x1="56.6" y1="199" x2="145.4" y2="199"/>
    <g id="text">
      <path class="st5" d="M24.8,12.9h3l4.1,13h0l4.2-13h2.9l-5.6,16.4h-3.2l-5.5-16.4Z"/>
      <path class="st5" d="M41.2,24c0,.5,0,.9.2,1.3.1.4.3.8.6,1.1.3.3.6.6,1,.8.4.2.9.3,1.4.3s1.4-.2,1.9-.5c.5-.3.8-.8,1-1.5h2.5c-.1.6-.4,1.2-.7,1.7-.3.5-.7.9-1.2,1.3-.5.3-1,.6-1.6.8-.6.2-1.2.3-1.9.3-.9,0-1.8-.2-2.5-.5-.7-.3-1.3-.7-1.8-1.3-.5-.6-.9-1.2-1.1-2s-.4-1.6-.4-2.5.1-1.6.4-2.4c.3-.8.7-1.4,1.1-2,.5-.6,1.1-1,1.8-1.4.7-.3,1.5-.5,2.4-.5s1.8.2,2.5.6c.7.4,1.4.9,1.9,1.6.5.6.8,1.4,1.1,2.2.2.8.3,1.7.2,2.6h-8.7ZM47.3,22.3c0-.4-.1-.8-.3-1.2-.1-.4-.3-.7-.6-1s-.6-.5-.9-.7c-.4-.2-.8-.3-1.2-.3s-.9,0-1.3.2c-.4.2-.7.4-1,.7-.3.3-.5.6-.6,1s-.2.8-.3,1.2h6.1Z"/>
      <path class="st5" d="M51.9,17.4h2.5v2.3h0c0-.3.2-.6.4-.9.2-.3.5-.6.8-.8.3-.3.7-.5,1-.6s.8-.2,1.2-.2.5,0,.6,0c.1,0,.2,0,.4,0v2.5c-.2,0-.4,0-.6,0-.2,0-.4,0-.6,0-.4,0-.9,0-1.3.3-.4.2-.7.4-1,.8-.3.3-.5.8-.7,1.3-.2.5-.3,1.1-.3,1.7v5.7h-2.6v-11.9Z"/>
      <path class="st5" d="M58.8,17.4h2v-3.6h2.6v3.6h2.4v2h-2.4v6.3c0,.3,0,.5,0,.7s0,.4.2.5c0,.1.2.2.4.3.2,0,.4.1.7.1s.4,0,.6,0,.4,0,.6,0v2c-.3,0-.6,0-.9,0-.3,0-.6,0-.9,0-.7,0-1.2,0-1.7-.2-.4-.1-.8-.3-1-.6-.2-.3-.4-.6-.5-1,0-.4-.1-.8-.1-1.3v-7h-2v-2Z"/>
      <path class="st5" d="M67.7,12.9h2.6v2.5h-2.6v-2.5ZM67.7,17.4h2.6v11.9h-2.6v-11.9Z"/>
      <path class="st5" d="M81.2,21.4c-.1-.7-.4-1.3-.9-1.7-.5-.4-1.1-.6-1.8-.6s-.7,0-1.1.2c-.4.1-.7.3-1.1.6-.3.3-.6.8-.8,1.3-.2.6-.3,1.3-.3,2.2s0,1,.2,1.5c.1.5.3.9.6,1.3.3.4.6.7,1,.9.4.2.9.4,1.4.4s1.4-.2,1.9-.7c.5-.5.8-1.1.9-2h2.6c-.2,1.5-.8,2.7-1.8,3.6-.9.8-2.2,1.2-3.7,1.2s-1.8-.2-2.5-.5-1.3-.7-1.8-1.3c-.5-.5-.9-1.2-1.1-1.9s-.4-1.6-.4-2.4.1-1.7.4-2.5c.2-.8.6-1.5,1.1-2,.5-.6,1.1-1,1.8-1.4.7-.3,1.6-.5,2.6-.5s1.3,0,2,.3c.6.2,1.2.4,1.7.8s.9.8,1.2,1.3c.3.5.5,1.2.6,1.9h-2.6Z"/>
      <path class="st5" d="M95.9,26.7c0,.3,0,.6.1.7,0,.1.2.2.5.2h.3c.1,0,.2,0,.4,0v1.8c0,0-.2,0-.4.1-.1,0-.3,0-.4.1s-.3,0-.5,0-.3,0-.4,0c-.5,0-1-.1-1.3-.3s-.6-.6-.7-1.1c-.5.5-1.2.9-1.9,1.1-.8.2-1.5.3-2.2.3s-1.1,0-1.5-.2c-.5-.1-.9-.4-1.3-.6-.4-.3-.7-.6-.9-1.1s-.3-.9-.3-1.5.1-1.3.4-1.8c.3-.5.6-.8,1.1-1.1s.9-.4,1.5-.6c.5-.1,1.1-.2,1.6-.3.5,0,.9-.2,1.4-.2s.8-.1,1.1-.2c.3,0,.6-.2.8-.4.2-.2.3-.5.3-.9s0-.6-.2-.8c-.2-.2-.4-.4-.6-.5-.2-.1-.5-.2-.8-.2-.3,0-.6,0-.8,0-.7,0-1.3.2-1.8.5-.5.3-.7.8-.8,1.4h-2.6c0-.8.2-1.4.6-1.9.3-.5.7-.9,1.2-1.2.5-.3,1.1-.5,1.7-.6.6-.1,1.3-.2,1.9-.2s1.2,0,1.7.2c.6.1,1.1.3,1.5.6.5.3.8.6,1.1,1.1.3.4.4,1,.4,1.6v6.1ZM93.3,23.3c-.4.3-.9.4-1.5.5-.6,0-1.2.1-1.7.2-.3,0-.5.1-.8.2s-.5.2-.7.3c-.2.1-.4.3-.5.6-.1.2-.2.5-.2.9s0,.5.3.7.4.4.6.5c.2.1.5.2.8.2s.5,0,.8,0,.6,0,.9-.1.7-.2,1-.4c.3-.2.5-.4.7-.7.2-.3.3-.6.3-1v-2Z"/>
      <path class="st5" d="M98.8,12.9h2.6v16.4h-2.6V12.9Z"/>
      <path class="st5" d="M109.5,12.9h13.3v2.5h-5.2v13.9h-2.9v-13.9h-5.2v-2.5Z"/>
      <path class="st5" d="M124.3,12.9h2.6v6.1h0c.3-.5.8-1,1.4-1.3s1.3-.5,2.1-.5c1.3,0,2.3.3,3.1,1,.8.7,1.1,1.7,1.1,3v8.2h-2.6v-7.5c0-.9-.2-1.6-.6-2-.4-.4-.9-.6-1.7-.6s-.8,0-1.2.2c-.4.2-.7.4-.9.7-.2.3-.4.6-.6,1s-.2.8-.2,1.2v7h-2.6V12.9Z"/>
      <path class="st5" d="M137.5,17.4h2.5v2.3h0c0-.3.2-.6.4-.9.2-.3.5-.6.8-.8s.7-.5,1-.6c.4-.2.8-.2,1.2-.2s.5,0,.6,0c.1,0,.2,0,.4,0v2.5c-.2,0-.4,0-.6,0s-.4,0-.6,0c-.4,0-.9,0-1.3.3-.4.2-.7.4-1,.8-.3.3-.5.8-.7,1.3-.2.5-.3,1.1-.3,1.7v5.7h-2.6v-11.9Z"/>
      <path class="st5" d="M156.1,29.3h-2.6v-1.7h0c-.3.6-.8,1.1-1.4,1.4-.6.4-1.3.5-1.9.5-1.6,0-2.7-.4-3.4-1.2-.7-.8-1-1.9-1-3.5v-7.5h2.6v7.3c0,1,.2,1.8.6,2.2.4.4,1,.6,1.7.6s1,0,1.4-.3c.4-.2.7-.4.9-.7.2-.3.4-.6.5-1,0-.4.1-.8.1-1.3v-6.9h2.6v11.9Z"/>
      <path class="st5" d="M160.8,25.5c0,.8.4,1.3.9,1.6.5.3,1.1.5,1.8.5s.5,0,.8,0c.3,0,.6-.1.9-.2.3-.1.5-.3.7-.5.2-.2.3-.5.2-.8,0-.3-.1-.6-.4-.8-.2-.2-.5-.4-.9-.5-.4-.1-.8-.2-1.2-.3-.5,0-.9-.2-1.4-.3-.5-.1-1-.2-1.4-.4-.5-.2-.9-.4-1.2-.6-.4-.3-.6-.6-.9-1-.2-.4-.3-.9-.3-1.5s.2-1.2.5-1.6c.3-.4.7-.8,1.2-1.1.5-.3,1-.5,1.6-.6.6-.1,1.2-.2,1.7-.2s1.2,0,1.8.2c.6.1,1.1.3,1.5.6.5.3.8.7,1.1,1.1.3.5.5,1,.6,1.7h-2.7c-.1-.6-.4-1-.9-1.3s-1-.3-1.6-.3-.4,0-.7,0c-.3,0-.5,0-.7.2s-.4.2-.6.4c-.2.2-.2.4-.2.6s.1.6.3.8c.2.2.5.4.9.5s.8.2,1.2.3.9.2,1.4.3c.5.1.9.2,1.4.4.5.2.9.4,1.2.6s.7.6.9,1c.2.4.3.9.3,1.5s-.2,1.3-.5,1.8-.7.9-1.3,1.2-1.1.5-1.7.7c-.6.1-1.2.2-1.9.2s-1.4,0-2.1-.3c-.6-.2-1.2-.4-1.7-.8-.5-.3-.8-.8-1.1-1.3s-.4-1.1-.4-1.8h2.6Z"/>
      <path class="st5" d="M169.6,17.4h2v-3.6h2.6v3.6h2.4v2h-2.4v6.3c0,.3,0,.5,0,.7,0,.2,0,.4.2.5,0,.1.2.2.4.3.2,0,.4.1.7.1s.4,0,.6,0c.2,0,.4,0,.6,0v2c-.3,0-.6,0-.9,0-.3,0-.6,0-.9,0-.7,0-1.2,0-1.7-.2-.4-.1-.8-.3-1-.6-.2-.3-.4-.6-.5-1,0-.4-.1-.8-.1-1.3v-7h-2v-2Z"/>
    </g>
  </g>
  <g id="up">
    <polygon id="_x31_" class="st9" points="100 168.2 105.6 182 114.8 193.8 100 191.8 85.2 193.8 94.4 182 100 168.2"/>
    <polygon id="_x31_1" data-name="_x31_" class="st9" points="100 156.7 105.6 170.5 114.8 182.3 100 180.3 85.2 182.3 94.4 170.5 100 156.7"/>
    <polygon id="_x31_2" data-name="_x31_" class="st9" points="100 145.2 105.6 159 114.8 170.8 100 168.8 85.2 170.8 94.4 159 100 145.2"/>
    <polygon id="_x31_3" data-name="_x31_" class="st9" points="100 133.7 105.6 147.5 114.8 159.2 100 157.2 85.2 159.2 94.4 147.5 100 133.7"/>
    <polygon id="_x31_4" data-name="_x31_" class="st9" points="100 122.1 105.6 135.9 114.8 147.7 100 145.7 85.2 147.7 94.4 135.9 100 122.1"/>
    <polygon id="_x31_5" data-name="_x31_" class="st9" points="100 110.6 105.6 124.4 114.8 136.2 100 134.2 85.2 136.2 94.4 124.4 100 110.6"/>
    <polygon id="_x31_6" data-name="_x31_" class="st9" points="100 99.1 105.6 112.9 114.8 124.7 100 122.7 85.2 124.7 94.4 112.9 100 99.1"/>
    <polygon id="_x31_7" data-name="_x31_" class="st9" points="100 87.6 105.6 101.4 114.8 113.1 100 111.1 85.2 113.1 94.4 101.4 100 87.6"/>
    <polygon id="_x31_8" data-name="_x31_" class="st9" points="100 76 105.6 89.8 114.8 101.6 100 99.6 85.2 101.6 94.4 89.8 100 76"/>
    <polygon id="_x31_9" data-name="_x31_" class="st9" points="100 64.5 105.6 78.3 114.8 90.1 100 88.1 85.2 90.1 94.4 78.3 100 64.5"/>
  </g>
  <g id="down">
    <polygon id="_x31_10" data-name="_x31_" class="st9" points="100 228.3 94.4 214.5 85.2 202.7 100 204.7 114.8 202.7 105.6 214.5 100 228.3"/>
    <polygon id="_x31_11" data-name="_x31_" class="st9" points="100 239.8 94.4 226 85.2 214.2 100 216.2 114.8 214.2 105.6 226 100 239.8"/>
    <polygon id="_x31_12" data-name="_x31_" class="st9" points="100 251.3 94.4 237.5 85.2 225.7 100 227.7 114.8 225.7 105.6 237.5 100 251.3"/>
    <polygon id="_x31_13" data-name="_x31_" class="st9" points="100 262.8 94.4 249 85.2 237.3 100 239.3 114.8 237.3 105.6 249 100 262.8"/>
    <polygon id="_x31_14" data-name="_x31_" class="st9" points="100 274.4 94.4 260.6 85.2 248.8 100 250.8 114.8 248.8 105.6 260.6 100 274.4"/>
    <polygon id="_x31_15" data-name="_x31_" class="st9" points="100 285.9 94.4 272.1 85.2 260.3 100 262.3 114.8 260.3 105.6 272.1 100 285.9"/>
    <polygon id="_x31_16" data-name="_x31_" class="st9" points="100 297.4 94.4 283.6 85.2 271.8 100 273.9 114.8 271.8 105.6 283.6 100 297.4"/>
    <polygon id="_x31_17" data-name="_x31_" class="st9" points="100 308.9 94.4 295.2 85.2 283.4 100 285.4 114.8 283.4 105.6 295.2 100 308.9"/>
    <polygon id="_x31_18" data-name="_x31_" class="st9" points="100 320.5 94.4 306.7 85.2 294.9 100 296.9 114.8 294.9 105.6 306.7 100 320.5"/>
    <polygon id="_x31_19" data-name="_x31_" class="st9" points="100 332 94.4 318.2 85.2 306.4 100 308.4 114.8 306.4 105.6 318.2 100 332"/>
  </g>
<script type="text/javascript" id="TangibleSVG">
            
      //<![CDATA[ // this is to make javascript work in the SVG, leave it alone

          function updateSVG(instrumentValue){
          // ========================================
          // STUDENT EDIT ZONE
          // This section controls how the instrument displays
          // ========================================

          /**
           * Vertical Thrust Indicator
           * - instrumentValue ranges from -100 to +100
           * - Positive values (1 to 100): show "up" arrows from center outward
           * - Negative values (-1 to -100): show "down" arrows from center outward
           * - Zero: all arrows hidden
           * 
           * Up group IDs: _x31_, _x31_1, _x31_2, ... _x31_9 (10 shapes)
           * Down group IDs: _x31_10, _x31_11, _x31_12, ... _x31_19 (10 shapes)
           */

          // Define the element IDs for each group
          const upIDs = ['_x31_', '_x31_1', '_x31_2', '_x31_3', '_x31_4', 
                         '_x31_5', '_x31_6', '_x31_7', '_x31_8', '_x31_9'];
          const downIDs = ['_x31_10', '_x31_11', '_x31_12', '_x31_13', '_x31_14',
                           '_x31_15', '_x31_16', '_x31_17', '_x31_18', '_x31_19'];

          // Calculate how many shapes to show
          // Truncate toward zero: 35 -> 3 shapes, -35 -> 3 shapes
          const absValue = Math.abs(instrumentValue);
          const shapesToShow = Math.floor(absValue / 10);

          // Show/hide UP shapes
          for (let i = 0; i < upIDs.length; i++) {
            const el = document.getElementById(upIDs[i]);
            if (el) {
              // Show if: value is positive AND this shape's index is within range
              if (instrumentValue > 0 && i < shapesToShow) {
                el.style.display = 'block';
              } else {
                el.style.display = 'none';
              }
            }
          }

          // Show/hide DOWN shapes
          for (let i = 0; i < downIDs.length; i++) {
            const el = document.getElementById(downIDs[i]);
            if (el) {
              // Show if: value is negative AND this shape's index is within range
              if (instrumentValue < 0 && i < shapesToShow) {
                el.style.display = 'block';
              } else {
                el.style.display = 'none';
              }
            }
          }

          // ========================================
          // END STUDENT EDIT ZONE
          // ========================================

          }


          setInterval(() => { // do this repeatedly

          // Check localStorage for updates
            const thisSVGfilename = window.location.pathname;
          // this SVG expects a localStorage with the same name as its file
            const localStorageName =  thisSVGfilename.substring(thisSVGfilename.lastIndexOf('/') + 1, thisSVGfilename.lastIndexOf('.'));
            let instrumentValue = localStorage.getItem(localStorageName);



          if (instrumentValue !== null) {
            // Make sure value is between -100 and +100
           instrumentValue = Math.max(-100, Math.min(100, instrumentValue));
          } else {
          // no localStorage, so make up a number, so it swings back and forth
          // Initialize static variables if they don't exist
          if (typeof window.testValue === 'undefined') {
            window.testValue = -100;
            window.testDirection = 1; // 1 for increasing, -1 for decreasing
          }

          // Update the test value
          window.testValue += window.testDirection * 2; // increment by 2 each time

          // Reverse direction at boundaries
          if (window.testValue >= 100) {
            window.testValue = 100;
            window.testDirection = -1;
          } else if (window.testValue <= -100) {
            window.testValue = -100;
            window.testDirection = 1;
          }

          instrumentValue = window.testValue;
          console.log('no local storage '+localStorageName+', using test value:', instrumentValue);

           }

          updateSVG(instrumentValue)



          }, 50);  //end of setInterval code.  50 is 50 milliseconds or 20 times per second.

        //]]> // this is to make javascript work in the SVG, leave it alone
    </script></svg>